<?xml version="1.0" encoding="UTF-8"?>
<svg width="72px" height="50px" viewBox="0 0 72 50" version="1.1" xmlns="http://www.w3.org/2000/svg" xmlns:xlink="http://www.w3.org/1999/xlink">
    <!-- Generator: Sketch 52.5 (67469) - http://www.bohemiancoding.com/sketch -->
    <title>amex</title>
    <desc>Created with Sketch.</desc>
    <defs>
        <radialGradient cx="17.5403709%" cy="17.4683182%" fx="17.5403709%" fy="17.4683182%" r="136.415747%" gradientTransform="translate(0.175404,0.174683),scale(0.683833,1.000000),translate(-0.175404,-0.174683)" id="radialGradient-1">
            <stop stop-color="#9DD5F6" offset="0%"></stop>
            <stop stop-color="#98D3F5" offset="7.11%"></stop>
            <stop stop-color="#89CEF3" offset="15.75%"></stop>
            <stop stop-color="#70C6EF" offset="25.16%"></stop>
            <stop stop-color="#4EBBEA" offset="35.14%"></stop>
            <stop stop-color="#23ADE3" offset="45.46%"></stop>
            <stop stop-color="#0DA6E0" offset="50%"></stop>
            <stop stop-color="#2E77BC" offset="100%"></stop>
        </radialGradient>
    </defs>
    <g id="amex" stroke="none" stroke-width="1" fill="none" fill-rule="evenodd">
        <g id="American_Express-2">
            <g id="American_Express">
                <path d="M72.8009681,0.0035335689 L0.121908127,0.0035335689 L0.121908127,49.9982332 L72.8009681,49.9982332 L72.8009681,33.4982332 C73.0896737,33.2120141 73.2314488,32.8462898 73.2314488,32.3992933 C73.2314488,31.8869258 73.0896737,31.5706714 72.8009681,31.3021201" id="Path" fill="url(#radialGradient-1)"></path>
                <g id="Group" transform="translate(0.000000, 11.000000)" fill="#FFFFFF" fill-rule="nonzero">
                    <path d="M6.64282686,6.67590106 L5.26388693,3.31250883 L3.89257951,6.67590106 L6.64282686,6.67590106 Z M37.0431095,5.33766784 C36.7657951,5.50558304 36.4375972,5.51067138 36.0457951,5.51067138 L33.5957597,5.51067138 L33.5957597,3.63816254 L36.0788693,3.63816254 C36.4299647,3.63816254 36.7963251,3.65342756 37.035477,3.79081272 C37.2975265,3.91293286 37.4578092,4.17498233 37.4578092,4.53625442 C37.4578092,4.90261484 37.3026148,5.20028269 37.0431095,5.33766784 Z M54.5139223,6.67590106 L53.1197173,3.31250883 L51.7331449,6.67590106 L54.5139223,6.67590106 Z M21.9434629,10.3166078 L19.8775972,10.3166078 L19.8699647,3.70939929 L16.9467138,10.3166078 L15.1759717,10.3166078 L12.2450883,3.70431095 L12.2450883,10.3166078 L8.14388693,10.3166078 L7.37045936,8.43646643 L3.17257951,8.43646643 L2.38897527,10.3166078 L0.19844523,10.3166078 L3.80862191,1.88268551 L6.80310954,1.88268551 L10.2351943,9.86628975 L10.2351943,1.88014134 L13.5248057,1.88014134 L16.1631095,7.6019788 L18.5877032,1.88014134 L21.9434629,1.88014134 L21.9434629,10.3166078 Z M30.1814841,10.3166078 L23.4470671,10.3166078 L23.4470671,1.88268551 L30.1814841,1.88268551 L30.1814841,3.63816254 L25.4620495,3.63816254 L25.4620495,5.15957597 L30.0669965,5.15957597 L30.0669965,6.88961131 L25.4620495,6.88961131 L25.4620495,8.57385159 L30.1814841,8.57385159 L30.1814841,10.3166078 Z M39.6788693,4.15208481 C39.6788693,5.49795053 38.7807774,6.19250883 38.2592226,6.40113074 C38.699364,6.56904594 39.0784452,6.86671378 39.2565371,7.11095406 C39.5414841,7.53074205 39.5898233,7.90473498 39.5898233,8.65780919 L39.5898233,10.3140636 L37.5570318,10.3140636 L37.5493993,9.25060071 C37.5493993,8.74176678 37.5977385,8.01413428 37.2313781,7.60706714 C36.9362544,7.30939929 36.4884806,7.24579505 35.7608481,7.24579505 L33.5957597,7.24579505 L33.5957597,10.3140636 L31.5807774,10.3140636 L31.5807774,1.88014134 L36.2187986,1.88014134 C37.2491873,1.88014134 38.0073498,1.90812721 38.6612014,2.28466431 C39.2972438,2.66120141 39.6788693,3.21074205 39.6788693,4.15208481 Z M42.9048763,10.3166078 L40.8466431,10.3166078 L40.8466431,1.88268551 L42.9048763,1.88268551 L42.9048763,10.3166078 Z M66.7717314,10.3166078 L63.914629,10.3166078 L60.0932862,3.98671378 L60.0932862,10.3166078 L55.9869965,10.3166078 L55.2033922,8.43646643 L51.015689,8.43646643 L50.2549823,10.3166078 L47.8965371,10.3166078 C46.9170318,10.3166078 45.675477,10.1003534 44.9732862,9.38289753 C44.2634629,8.6654417 43.8971025,7.69611307 43.8971025,6.1619788 C43.8971025,4.91024735 44.1184452,3.76791519 44.9834629,2.86473498 C45.6347703,2.19053004 46.6549823,1.88014134 48.0440989,1.88014134 L49.995477,1.88014134 L49.995477,3.68650177 L48.0848057,3.68650177 C47.3495406,3.68650177 46.934841,3.79590106 46.5328622,4.18515901 C46.1893993,4.54134276 45.9527915,5.21045936 45.9527915,6.09583039 C45.9527915,6.9990106 46.1334276,7.65031802 46.5074205,8.07773852 C46.8178092,8.41102473 47.3826148,8.51279152 47.9118021,8.51279152 L48.8175265,8.51279152 L51.659364,1.88014134 L54.6792933,1.88014134 L58.0935689,9.85865724 L58.0935689,1.88014134 L61.1643816,1.88014134 L64.7084099,7.75462898 L64.7084099,1.88014134 L66.7742756,1.88014134 L66.7742756,10.3166078 L66.7717314,10.3166078 Z M0.175547703,11.9728622 L3.62035336,11.9728622 L4.39632509,10.1003534 L6.13399293,10.1003534 L6.90742049,11.9728622 L13.6850883,11.9728622 L13.6850883,10.5404947 L14.2906007,11.9779505 L17.8091873,11.9779505 L18.4146996,10.5175972 L18.4146996,11.970318 L35.2596466,11.970318 L35.2520141,8.89441696 L35.5776678,8.89441696 C35.8066431,8.90204947 35.8727915,8.92240283 35.8727915,9.3014841 L35.8727915,11.970318 L44.5840283,11.970318 L44.5840283,11.2554064 C45.2862191,11.6319435 46.380212,11.970318 47.8176678,11.970318 L51.4838163,11.970318 L52.2674205,10.0978092 L54.0050883,10.0978092 L54.7734276,11.970318 L61.8360424,11.970318 L61.8360424,10.1893993 L62.9045936,11.970318 L68.565371,11.970318 L68.565371,0.206077739 L62.9681979,0.206077739 L62.9681979,1.59519435 L62.1845936,0.206077739 L56.4373145,0.206077739 L56.4373145,1.59519435 L55.7173145,0.206077739 L47.955053,0.206077739 C46.6549823,0.206077739 45.5126502,0.386713781 44.5916608,0.893003534 L44.5916608,0.206077739 L39.2336396,0.206077739 L39.2336396,0.893003534 C38.6459364,0.371448763 37.8470671,0.206077739 36.9566078,0.206077739 L17.384311,0.206077739 L16.0715194,3.24381625 L14.7231095,0.206077739 L8.55858657,0.206077739 L8.55858657,1.59519435 L7.88183746,0.206077739 L2.62303887,0.206077739 L0.180636042,5.79816254 L0.175547703,11.9728622 Z" id="Shape"></path>
                    <path d="M71.9084099,18.1933569 L68.234629,18.1933569 C67.8682686,18.1933569 67.6240283,18.2060777 67.4179505,18.3460071 C67.2042403,18.4833922 67.1228269,18.6843816 67.1228269,18.9540636 C67.1228269,19.2720848 67.3034629,19.4883392 67.5629682,19.5824735 C67.7766784,19.6562544 68.0031095,19.6791519 68.3389399,19.6791519 L69.4303887,19.709682 C70.5320141,19.7376678 71.2698233,19.9259364 71.7175972,20.3889753 C71.7990106,20.4525795 71.8473498,20.5263604 71.9058657,20.5975972 L71.9084099,18.1933569 Z M71.9084099,23.7574558 C71.4199293,24.4723675 70.4633216,24.8361837 69.1734276,24.8361837 L65.2808481,24.8361837 L65.2808481,23.0272792 L69.1581625,23.0272792 C69.5423322,23.0272792 69.8120141,22.9763958 69.974841,22.8186572 C70.1147703,22.6889046 70.2139929,22.4980919 70.2139929,22.2691166 C70.2139929,22.0223322 70.1147703,21.8289753 69.9672085,21.7119435 C69.8221908,21.5821908 69.6084806,21.5236749 69.2573852,21.5236749 C67.364523,21.4600707 65.0035336,21.5821908 65.0035336,18.9133569 C65.0035336,17.6896113 65.7795053,16.4022615 67.8962544,16.4022615 L71.9134982,16.4022615 L71.9134982,14.7231095 L68.1812014,14.7231095 C67.0541343,14.7231095 66.2374558,14.9927915 65.6573852,15.4125795 L65.6573852,14.7231095 L60.1390813,14.7231095 C59.2562544,14.7231095 58.2207774,14.9419081 57.7297527,15.4125795 L57.7297527,14.7231095 L47.8736396,14.7231095 L47.8736396,15.4125795 C47.0900353,14.8477739 45.764523,14.7231095 45.1539223,14.7231095 L38.6535689,14.7231095 L38.6535689,15.4125795 C38.0327915,14.8121555 36.6538516,14.7231095 35.8117314,14.7231095 L28.5354064,14.7231095 L26.8715194,16.5243816 L25.3119435,14.7231095 L14.4432509,14.7231095 L14.4432509,26.4949823 L25.1058657,26.4949823 L26.820636,24.6657244 L28.4361837,26.4949823 L35.010318,26.5000707 L35.010318,23.7320141 L35.6565371,23.7320141 C36.5291873,23.744735 37.5570318,23.7091166 38.4653004,23.3173145 L38.4653004,26.4949823 L43.8869258,26.4949823 L43.8869258,23.4267138 L44.1489753,23.4267138 C44.4822615,23.4267138 44.5153357,23.4394346 44.5153357,23.775265 L44.5153357,26.4949823 L60.9862898,26.4949823 C62.0319435,26.4949823 63.1259364,26.2278445 63.7314488,25.7419081 L63.7314488,26.4949823 L68.954629,26.4949823 C70.0409894,26.4949823 71.1044523,26.3423322 71.9109541,25.9530742 L71.9109541,23.7574558 L71.9084099,23.7574558 Z M63.8662898,20.3864311 C64.2580919,20.7934982 64.469258,21.3048763 64.469258,22.1749823 C64.469258,23.9889753 63.3345583,24.8361837 61.3017668,24.8361837 L57.3761131,24.8361837 L57.3761131,23.0272792 L61.2865018,23.0272792 C61.6681272,23.0272792 61.9403534,22.9763958 62.1108127,22.8186572 C62.2481979,22.6889046 62.3499647,22.4980919 62.3499647,22.2691166 C62.3499647,22.0223322 62.2431095,21.8289753 62.1031802,21.7119435 C61.9479859,21.5821908 61.7368198,21.5236749 61.3857244,21.5236749 C59.5004947,21.4600707 57.1395053,21.5821908 57.1395053,18.9133569 C57.1395053,17.6896113 57.9078445,16.4022615 60.0220495,16.4022615 L64.064735,16.4022615 L64.064735,18.1984452 L60.3655124,18.1984452 C59.9991519,18.1984452 59.76,18.2111661 59.5564664,18.3510954 C59.3351237,18.4884806 59.2537102,18.68947 59.2537102,18.9591519 C59.2537102,19.2771731 59.4419788,19.4934276 59.6938516,19.5875618 C59.9075618,19.6613428 60.1339929,19.6842403 60.4774558,19.6842403 L61.5638163,19.7147703 C62.6578092,19.7351237 63.4083392,19.9233922 63.8662898,20.3864311 Z M45.6729329,19.8648763 C45.4032509,20.025159 45.0699647,20.0378799 44.6781625,20.0378799 L42.2281272,20.0378799 L42.2281272,18.1424735 L44.7112367,18.1424735 C45.0699647,18.1424735 45.4286926,18.150106 45.6729329,18.2951237 C45.9349823,18.4325088 46.0901767,18.6920141 46.0901767,19.0532862 C46.0901767,19.4171025 45.9324382,19.7071378 45.6729329,19.8648763 Z M46.8890459,20.9156184 C47.3368198,21.0809894 47.7057244,21.3786572 47.8761837,21.6228975 C48.1611307,22.035053 48.2018375,22.4192226 48.20947,23.1621201 L48.20947,24.8336396 L46.1868551,24.8336396 L46.1868551,23.7778092 C46.1868551,23.2715194 46.2351943,22.5184452 45.8612014,22.1266431 C45.5660777,21.8238869 45.1183039,21.7526502 44.3830389,21.7526502 L42.2281272,21.7526502 L42.2281272,24.8336396 L40.2029682,24.8336396 L40.2029682,16.3971731 L44.8587986,16.3971731 C45.8790106,16.3971731 46.6219081,16.4429682 47.2859364,16.7966078 C47.9219788,17.1807774 48.3214134,17.7074205 48.3214134,18.6691166 C48.3188693,20.0175265 47.4207774,20.7044523 46.8890459,20.9156184 Z M49.4357597,16.3997173 L56.1650883,16.3997173 L56.1650883,18.1450177 L51.4431095,18.1450177 L51.4431095,19.6791519 L56.0480565,19.6791519 L56.0480565,21.4015548 L51.4431095,21.4015548 L51.4431095,23.0807067 L56.1650883,23.0883392 L56.1650883,24.8387279 L49.4357597,24.8387279 L49.4357597,16.3997173 Z M35.834629,20.2922968 L33.2293993,20.2922968 L33.2293993,18.1450177 L35.8575265,18.1450177 C36.585159,18.1450177 37.0914488,18.4426855 37.0914488,19.1804947 C37.0914488,19.9081272 36.6080565,20.2922968 35.834629,20.2922968 Z M31.2195053,24.0678445 L28.1232509,20.6306714 L31.2195053,17.3028975 L31.2195053,24.0678445 Z M23.2257244,23.0781625 L18.269682,23.0781625 L18.269682,21.3990106 L22.6965371,21.3990106 L22.6965371,19.6766078 L18.269682,19.6766078 L18.269682,18.1424735 L23.324947,18.1424735 L25.530742,20.6001413 L23.2257244,23.0781625 Z M39.2539929,19.1779505 C39.2539929,21.5211307 37.5061484,22.004523 35.7430389,22.004523 L33.2268551,22.004523 L33.2268551,24.8336396 L29.3088339,24.8336396 L26.8257244,22.0401413 L24.2459364,24.8336396 L16.259788,24.8336396 L16.259788,16.3971731 L24.3680565,16.3971731 L26.8486219,19.1626855 L29.4131449,16.3971731 L35.8549823,16.3971731 C37.4578092,16.3997173 39.2539929,16.8424028 39.2539929,19.1779505 Z" id="Shape"></path>
                </g>
            </g>
        </g>
    </g>
</svg>