<?xml version="1.0" encoding="UTF-8"?>
<svg width="119px" height="16px" viewBox="0 0 119 16" version="1.1" xmlns="http://www.w3.org/2000/svg" xmlns:xlink="http://www.w3.org/1999/xlink">
    <title>iyzico ile Ode_Alt@1,5x</title>
    <defs>
        <linearGradient x1="90.2554899%" y1="50%" x2="0%" y2="50%" id="linearGradient-1">
            <stop stop-color="#1E64FF" offset="0%"></stop>
            <stop stop-color="#1E64FF" stop-opacity="0" offset="100%"></stop>
        </linearGradient>
    </defs>
    <g id="👉Method-View" stroke="none" stroke-width="1" fill="none" fill-rule="evenodd">
        <g id="PWI_Method_02_PaymentOptions-Copy-3" transform="translate(-414.000000, -381.000000)">
            <g id="www.enplus.com.tr_" transform="translate(0.000000, -81.000000)">
                <g id="iyzico-ile-Ode_Alt" transform="translate(414.000000, 462.000000)">
                    <g id="Group-3" transform="translate(-0.000000, 2.000000)" fill="url(#linearGradient-1)">
                        <path d="M1.5,0 C0.6716,0 0,0.671466667 0,1.5 L0,10.5 C0,11.3285333 0.6716,12 1.5,12 L12.8242667,12 C13.3836,12 13.8964,11.6889333 14.1546667,11.1926667 L16.4973333,6.6928 C16.6082667,6.47946667 16.6646667,6.24626667 16.6666667,6.0128 L16.6666667,5.9872 C16.6646667,5.75373333 16.6082667,5.52053333 16.4973333,5.30733333 L14.1546667,0.807333333 C13.8964,0.3112 13.3836,0 12.8242667,0 L1.5,0 Z" id="Fill-1"></path>
                    </g>
                    <path d="M29.139801,3.77340451 C29.711464,3.48130701 30.4167067,3.69939522 30.7148907,4.25995229 L30.7148907,4.25995229 L33.2195794,8.99176305 L35.7245552,4.25995229 C36.0227393,3.69939522 36.7279819,3.48130701 37.3002196,3.77340451 C37.8727444,4.06493921 38.0948025,4.75634921 37.7969057,5.31690627 L37.7969057,5.31690627 L32.4703847,15.3844211 C32.2698718,15.7600956 31.8869437,15.9824049 31.4839068,15.9987264 C31.285692,16.0080127 31.0825936,15.9666463 30.8941459,15.8704061 C30.3219083,15.5791528 30.0995629,14.8877428 30.397747,14.3269043 L30.397747,14.3269043 L31.9027434,11.4762803 L28.642253,5.31690627 C28.3440689,4.75634921 28.5664143,4.06550202 29.139801,3.77340451 Z M57.1615471,3.49222549 C58.4240895,3.49222549 59.6113676,3.97398939 60.5041962,4.84831208 C60.9612394,5.29574468 60.9612394,6.02036036 60.5041962,6.46694875 C60.0480148,6.91381854 59.3088745,6.91381854 58.8524059,6.46694875 C58.4005335,6.02430002 57.8004309,5.78060403 57.1615471,5.78060403 C56.5220888,5.78060403 55.9219863,6.02430002 55.4698266,6.46694875 C55.0182415,6.90959747 54.7691803,7.49801355 54.7691803,8.12385638 C54.7691803,8.7494178 55.0182415,9.33755247 55.4698266,9.78076401 C55.9219863,10.2228499 56.5220888,10.4668273 57.1615471,10.4668273 C57.8004309,10.4668273 58.4005335,10.2228499 58.8524059,9.78076401 C59.3088745,9.33361281 60.0480148,9.33361281 60.5041962,9.78076401 C60.9612394,10.2276338 60.9612394,10.9516867 60.5041962,11.3985565 C59.6113676,12.2728791 58.4240895,12.7546431 57.1615471,12.7546431 C55.8984303,12.7546431 54.7111521,12.2728791 53.8183236,11.3985565 C52.925495,10.5239524 52.4336924,9.36090902 52.4336924,8.12385638 C52.4336924,6.88708514 52.925495,5.72319758 53.8183236,4.84831208 C54.7111521,3.97398939 55.8984303,3.49222549 57.1615471,3.49222549 Z M66.6054786,3.49230991 C69.2121473,3.49230991 71.3333333,5.57047955 71.3333333,8.1239408 C71.3333333,10.677402 69.2121473,12.7547275 66.6054786,12.7547275 C63.9990972,12.7547275 61.8779112,10.677402 61.8779112,8.1239408 C61.8779112,5.57047955 63.9990972,3.49230991 66.6054786,3.49230991 Z M25.9573612,3.64395861 C26.6019904,3.64395861 27.1251052,4.15583275 27.1251052,4.78786647 L27.1251052,4.78786647 L27.1251052,11.4796571 C27.1251052,12.111128 26.6019904,12.623565 25.9573612,12.623565 C25.3124449,12.623565 24.7893301,12.111128 24.7893301,11.4796571 L24.7893301,11.4796571 L24.7893301,4.78786647 C24.7893301,4.15583275 25.3124449,3.64395861 25.9573612,3.64395861 Z M45.6576752,3.64387418 C45.9357505,3.63430644 46.2181348,3.72266735 46.4479491,3.91120813 C46.9423371,4.31755572 47.0063979,5.03907595 46.5921576,5.5236539 L46.5921576,5.5236539 L42.4701508,10.3353834 L45.6976054,10.3353834 C46.3425218,10.3353834 46.8656366,10.8478204 46.8656366,11.4795727 C46.8656366,12.1110436 46.3425218,12.6234806 45.6976054,12.6234806 L45.6976054,12.6234806 L39.9651749,12.6234806 C39.6997394,12.6234806 39.4334421,12.5362453 39.2142567,12.3561466 C38.7201559,11.9500804 38.6563825,11.2282788 39.0706228,10.7445451 L39.0706228,10.7445451 L43.1932041,5.93168992 L40.4969078,5.93168992 C39.8525659,5.93168992 39.3294511,5.41981577 39.3294511,4.78806345 C39.3294511,4.15602974 39.8525659,3.64387418 40.4969078,3.64387418 L40.4969078,3.64387418 Z M49.7349256,3.64395861 C50.3801293,3.64395861 50.9026695,4.15583275 50.9026695,4.78786647 L50.9026695,4.78786647 L50.9026695,11.4796571 C50.9026695,12.111128 50.3801293,12.623565 49.7349256,12.623565 C49.0900092,12.623565 48.5668944,12.111128 48.5668944,11.4796571 L48.5668944,11.4796571 L48.5668944,4.78786647 C48.5668944,4.15583275 49.0900092,3.64395861 49.7349256,3.64395861 Z M66.6054786,5.78068845 C65.2869191,5.78068845 64.213399,6.83173295 64.213399,8.1239408 C64.213399,9.41558584 65.2869191,10.4669117 66.6054786,10.4669117 C67.9243254,10.4669117 68.997271,9.41558584 68.997271,8.1239408 C68.997271,6.83173295 67.9243254,5.78068845 66.6054786,5.78068845 Z M25.9573612,-9.59232693e-14 C26.6694983,-9.59232693e-14 27.2477685,0.566466552 27.2477685,1.26463025 C27.2477685,1.96307534 26.6694983,2.52926049 25.9573612,2.52926049 C25.2440751,2.52926049 24.6666667,1.96307534 24.6666667,1.26463025 C24.6666667,0.566466552 25.2440751,-9.59232693e-14 25.9573612,-9.59232693e-14 Z M49.7349256,-9.59232693e-14 C50.4476372,-9.59232693e-14 51.0253329,0.566466552 51.0253329,1.26463025 C51.0253329,1.96307534 50.4476372,2.52926049 49.7349256,2.52926049 C49.0219267,2.52926049 48.444231,1.96307534 48.444231,1.26463025 C48.444231,0.566466552 49.0219267,-9.59232693e-14 49.7349256,-9.59232693e-14 Z" id="Combined-Shape" fill="#1E64FF"></path>
                    <path d="M98.2929345,3.10413053 C100.626347,3.10413053 102.932791,5.05958575 102.932791,7.88589415 C102.932791,10.7122026 100.626347,12.6666667 98.2929345,12.6666667 C95.959851,12.6666667 93.6534069,10.7122026 93.6534069,7.88589415 C93.6534069,5.05958575 95.959851,3.10413053 98.2929345,3.10413053 Z M109.946677,3.01047087 C110.333112,3.01047087 110.666598,3.33225046 110.666598,3.72043425 L110.666598,11.9436537 C110.666598,12.3324982 110.333112,12.6536171 109.946677,12.6536171 C109.559912,12.6536171 109.239911,12.3324982 109.239911,11.9436537 L109.239911,11.2204755 C109.146838,11.8230689 108.319701,12.6665015 107.05318,12.6665015 C105.573543,12.6665015 103.800544,11.5148345 103.800544,9.0915765 C103.800544,6.70697171 105.586698,5.52854482 107.05318,5.52854482 C108.039823,5.52854482 108.89327,6.0379741 109.239911,6.81401132 L109.239911,6.27848287 C109.239911,6.2385082 109.239911,6.18465802 109.253395,6.14468335 L109.253395,3.72043425 C109.253395,3.33225046 109.573725,3.01047087 109.946677,3.01047087 Z M77.9065733,5.56918023 C78.1996065,5.56918023 78.4528451,5.8235645 78.4528451,6.13179895 L78.4528451,12.0774532 C78.4528451,12.3995632 78.1996065,12.6536171 77.9065733,12.6536171 C77.600056,12.6536171 77.3464886,12.3995632 77.3464886,12.0774532 L77.3464886,6.13179895 C77.3464886,5.8235645 77.600056,5.56918023 77.9065733,5.56918023 Z M80.4929611,3.01053694 C80.7866521,3.01053694 81.0398906,3.26558195 81.0398906,3.5599409 L81.0398906,12.0775193 C81.0398906,12.3722086 80.7866521,12.6398077 80.4929611,12.6398077 C80.186115,12.6398077 79.9332053,12.3722086 79.9332053,12.0775193 L79.9332053,3.5599409 C79.9332053,3.26558195 80.186115,3.01053694 80.4929611,3.01053694 Z M85.6533708,5.52861089 C87.173131,5.52861089 88.9990797,6.73412805 88.9990797,8.90399288 C88.9990797,9.33182098 88.7458411,9.53334618 88.2929716,9.53334618 L83.3867214,9.50658628 C83.5064341,11.0064624 84.653243,11.7160954 85.799723,11.7160954 C86.4127576,11.7160954 86.9060795,11.5419908 87.3457937,11.2066661 C87.5460824,11.073197 87.666124,11.0064624 87.8124762,11.0064624 C88.0663725,11.0064624 88.2258799,11.180567 88.2258799,11.4214061 C88.2258799,11.5687507 88.1594459,11.7160954 87.9325178,11.9169599 C87.3994013,12.3854234 86.6133752,12.6398077 85.7727547,12.6398077 C84.06619,12.6398077 82.2402414,11.5149006 82.2402414,9.10452698 C82.2402414,6.69415338 84.1332818,5.52861089 85.6533708,5.52861089 Z M115.3203,5.52854482 C116.84006,5.52854482 118.666667,6.73406198 118.666667,8.86329139 C118.666667,9.41269535 118.35982,9.62710496 117.78658,9.62710496 L113.320373,9.61322945 C113.466725,10.8587213 114.440214,11.4751902 115.506776,11.4751902 C116.053705,11.4751902 116.426985,11.3413907 116.84006,11.0870064 C117.066659,10.9664216 117.21334,10.8725968 117.399816,10.8725968 C117.706662,10.8725968 117.893467,11.0870064 117.893467,11.3813653 C117.893467,11.5558003 117.826704,11.7431196 117.533342,11.9836284 C117.026865,12.3995632 116.293131,12.6397416 115.453168,12.6397416 C113.720622,12.6397416 111.867376,11.52871 111.867376,9.1044609 C111.867376,6.69408731 113.80054,5.52854482 115.3203,5.52854482 Z M107.280108,6.74694638 C106.306948,6.74694638 105.213418,7.51109031 105.213418,9.0915765 C105.213418,10.6849471 106.306948,11.4480999 107.280108,11.4480999 C108.186833,11.4480999 109.306674,10.7516817 109.306674,9.0915765 C109.306674,7.41726546 108.186833,6.74694638 107.280108,6.74694638 Z M98.2929345,4.47053749 C96.6662879,4.47053749 95.1600119,5.85048959 95.1600119,7.88589415 C95.1600119,9.92129872 96.6662879,11.2873753 98.2929345,11.2873753 C99.9195811,11.2873753 101.426186,9.92129872 101.426186,7.88589415 C101.426186,5.85048959 99.9327364,4.47053749 98.2929345,4.47053749 Z M85.6533708,6.50683405 C84.6663983,6.50683405 83.5064341,7.17583166 83.3867214,8.67570777 L87.9193626,8.67570777 C87.7996498,7.17583166 86.6528409,6.50683405 85.6533708,6.50683405 Z M115.3203,6.76082189 C114.440214,6.76082189 113.440415,7.32344061 113.320373,8.59569235 L117.293259,8.59569235 C117.173546,7.32344061 116.21387,6.76082189 115.3203,6.76082189 Z M77.9065733,2.87667135 C78.1996065,2.87667135 78.4663292,3.13105562 78.4663292,3.43929007 C78.4663292,3.74719416 78.1996065,4.0019088 77.9065733,4.0019088 C77.600056,4.0019088 77.3333333,3.74719416 77.3333333,3.43929007 C77.3333333,3.13105562 77.600056,2.87667135 77.9065733,2.87667135 Z M99.9327364,0.666666667 C100.359295,0.666666667 100.705936,1.01487579 100.705936,1.4308106 C100.705936,1.8457543 100.359295,2.19396342 99.9327364,2.19396342 C99.5061774,2.19396342 99.1595366,1.8457543 99.1595366,1.4308106 C99.1595366,1.01487579 99.5061774,0.666666667 99.9327364,0.666666667 Z M96.6534616,0.666666667 C97.0796916,0.666666667 97.4260036,1.01487579 97.4260036,1.4308106 C97.4260036,1.8457543 97.0796916,2.19396342 96.6534616,2.19396342 C96.2265737,2.19396342 95.8799329,1.8457543 95.8799329,1.4308106 C95.8799329,1.01487579 96.2265737,0.666666667 96.6534616,0.666666667 Z" id="Combined-Shape" fill="#1E64FF"></path>
                </g>
            </g>
        </g>
    </g>
</svg>