<?xml version="1.0" encoding="UTF-8"?>
<svg width="594px" height="32px" viewBox="0 0 594 32" version="1.1" xmlns="http://www.w3.org/2000/svg" xmlns:xlink="http://www.w3.org/1999/xlink">
    <title>logo-band_iyzico ile Ode</title>
    <defs>
        <radialGradient cx="17.5632448%" cy="17.5027381%" fx="17.5632448%" fy="17.5027381%" r="134.355667%" gradientTransform="translate(0.175632,0.175027),scale(0.694444,1.000000),translate(-0.175632,-0.175027)" id="radialGradient-1">
            <stop stop-color="#9DD5F6" offset="0%"></stop>
            <stop stop-color="#98D3F5" offset="7.11%"></stop>
            <stop stop-color="#89CEF3" offset="15.75%"></stop>
            <stop stop-color="#70C6EF" offset="25.16%"></stop>
            <stop stop-color="#4EBBEA" offset="35.14%"></stop>
            <stop stop-color="#23ADE3" offset="45.46%"></stop>
            <stop stop-color="#0DA6E0" offset="50%"></stop>
            <stop stop-color="#2E77BC" offset="100%"></stop>
        </radialGradient>
        <linearGradient x1="-0.000322580643%" y1="49.995%" x2="99.9996774%" y2="49.995%" id="linearGradient-2">
            <stop stop-color="#1D1C45" offset="0%"></stop>
            <stop stop-color="#174489" offset="100%"></stop>
        </linearGradient>
        <linearGradient x1="90.2554899%" y1="50%" x2="0%" y2="50%" id="linearGradient-3">
            <stop stop-color="#1E64FF" offset="0%"></stop>
            <stop stop-color="#1E64FF" stop-opacity="0" offset="100%"></stop>
        </linearGradient>
    </defs>
    <g id="👉Method-View" stroke="none" stroke-width="1" fill="none" fill-rule="evenodd">
        <g id="PWI_Method_02_PaymentOptions-Copy-10" transform="translate(-650.000000, -848.000000)">
            <g id="Group-3" transform="translate(0.000000, 753.000000)">
                <g id="logo-band_iyzico-ile-Ode" transform="translate(650.000000, 95.000000)">
                    <g id="Troy-Logo" transform="translate(535.000000, 3.000000)">
                        <g id="Group_1_" transform="translate(1.437077, 22.724340)" fill="#323E48">
                            <path d="M0.8,0.7 L0.4,0.7 C0.4,0.7 0.3,0.7 0.3,0.8 L0.3,0.9 L0.1,0.9 L0.1,0.7 C0.1,0.6 0.2,0.5 0.3,0.5 L1.6,0.5 C1.7,0.5 1.8,0.5 1.7,0.7 L1.7,0.9 L1.5,0.9 L1.5,0.8 C1.5,0.8 1.5,0.7 1.5,0.7 L1,0.7 L0.6,2.5 L0.4,2.5 L0.8,0.7 Z" id="Path_6_"></path>
                            <path d="M1.8,1.3 C1.8,1.3 1.7,1.2 1.8,1.3 L1.6,1.2 L1.6,1 L1.8,1 C1.9,1 2,1 1.9,1.2 L1.8,1.9 C1.8,2.1 1.8,2.3 2,2.3 C2.3,2.3 2.6,2 2.6,1.7 L2.7,1 L3,1 L2.7,2.2 C2.7,2.2 2.7,2.3 2.7,2.3 L2.8,2.3 L2.8,2.5 L2.7,2.5 C2.6,2.5 2.5,2.4 2.6,2.3 L2.6,2.2 C2.6,2.1 2.6,2.1 2.6,2.1 L2.6,2.1 C2.5,2.3 2.3,2.5 2,2.5 C1.6,2.5 1.5,2.3 1.6,2 L1.8,1.3 Z M2.2,0.5 L2.4,0.5 L2.3,0.8 L2.2,0.8 L2.2,0.5 Z M2.6,0.5 L2.8,0.5 L2.8,0.8 L2.6,0.8 L2.6,0.5 Z" id="Shape_5_" fill-rule="nonzero"></path>
                            <path d="M3.4,1.3 C3.4,1.3 3.4,1.2 3.4,1.3 L3.3,1.2 L3.3,1 L3.5,1 C3.6,1 3.7,1 3.6,1.2 L3.6,1.3 C3.6,1.4 3.6,1.4 3.6,1.4 L3.6,1.4 C3.7,1.2 3.9,1 4.1,1 C4.1,1 4.2,1 4.2,1 L4.2,1.2 C4.2,1.2 4.2,1.2 4.1,1.2 C3.9,1.2 3.7,1.4 3.6,1.6 C3.6,1.7 3.5,1.8 3.5,1.9 L3.4,2.5 L3.2,2.5 L3.4,1.3 Z" id="Path_7_"></path>
                            <path d="M4.5,0.8 C4.5,0.7 4.5,0.7 4.5,0.8 L4.3,0.7 L4.3,0.5 L4.5,0.5 C4.6,0.5 4.7,0.5 4.6,0.7 L4.5,1.6 L4.6,1.6 C4.7,1.6 4.7,1.6 4.8,1.5 L5.3,1 L5.5,1 L5,1.6 C4.9,1.7 4.9,1.7 4.9,1.7 L4.9,1.7 C4.9,1.7 4.9,1.7 5,1.8 L5.1,2.3 C5.1,2.3 5.1,2.4 5.2,2.4 L5.3,2.4 L5.3,2.6 L5.1,2.6 C5,2.6 4.9,2.6 4.9,2.5 L4.7,1.8 C4.7,1.7 4.6,1.7 4.6,1.7 L4.5,1.7 L4.3,2.5 L4.1,2.5 L4.5,0.8 Z" id="Path_8_"></path>
                            <path d="M6.1,1.3 C6.1,1.3 6.1,1.2 6,1.2 L5.7,1.2 L5.8,1 L6.3,1 C6.6,1 6.7,1 6.6,1.2 L6,2.2 C6,2.2 6,2.3 6.1,2.3 L6.4,2.3 L6.3,2.5 L5.9,2.5 C5.6,2.5 5.5,2.4 5.6,2.3 L6.1,1.3 Z M6.5,0.5 L6.9,0.5 L6.8,0.8 L6.4,0.8 L6.5,0.5 Z" id="Shape_6_" fill-rule="nonzero"></path>
                            <path d="M6.2,2.9 C6.3,2.9 6.4,2.8 6.5,2.7 L6.6,2.5 L6.4,1.3 C6.4,1.3 6.4,1.2 6.3,1.2 L6.3,1.2 L6.3,1 L6.4,1 C6.5,1 6.6,1 6.6,1.1 L6.8,2 C6.8,2.1 6.8,2.2 6.8,2.2 L6.8,2.2 C6.8,2.2 6.8,2.1 6.9,2 L7.4,1.1 C7.5,1 7.5,1 7.6,1 L7.7,1 L7.7,1.2 L7.7,1.2 C7.7,1.2 7.6,1.2 7.6,1.3 L6.6,2.8 C6.5,2.9 6.3,3 6.1,3 C5.9,3 5.9,2.9 5.9,2.9 L6,2.8 C6,2.8 6,2.9 6.2,2.9" id="Path_9_"></path>
                            <path d="M8.5,1 C8.9,1 9.1,1.3 9,1.7 C9,1.7 9,1.8 9,1.8 L7.9,1.8 C7.8,2.1 8,2.3 8.3,2.3 C8.6,2.3 8.8,2.1 8.8,2.1 L8.9,2.2 C8.9,2.2 8.7,2.4 8.3,2.4 C7.9,2.4 7.6,2.1 7.7,1.7 C7.8,1.3 8.1,1 8.5,1 Z M8.8,1.6 C8.9,1.3 8.7,1.2 8.5,1.2 C8.3,1.2 8,1.4 7.9,1.6 L8.8,1.6 Z" id="Shape_7_" fill-rule="nonzero"></path>
                            <polygon id="Path_10_" points="9.5 0.5 9.7 0.5 9.5 1 9.3 1"></polygon>
                            <path d="M9.9,1.3 C9.9,1.3 9.9,1.2 9.9,1.3 L9.8,1.2 L9.8,1 L10,1 C10.1,1 10.2,1 10.1,1.2 L10.1,1.3 C10.1,1.4 10.1,1.4 10.1,1.4 L10.1,1.4 C10.2,1.3 10.4,1 10.7,1 C11.1,1 11.1,1.2 11.1,1.5 L11,2.2 C11,2.2 11,2.3 11,2.3 L11.1,2.3 L11.1,2.5 L10.9,2.5 C10.8,2.5 10.7,2.4 10.8,2.3 L10.9,1.6 C10.9,1.4 11,1.2 10.7,1.2 C10.5,1.2 10.2,1.4 10.1,1.6 C10.1,1.7 10.1,1.7 10,1.8 L9.9,2.5 L9.7,2.5 L9.9,1.3 Z" id="Path_11_"></path>
                            <path d="M11.9,1.3 C11.9,1.3 11.9,1.2 11.8,1.2 L11.5,1.2 L11.6,1 L12.1,1 C12.4,1 12.5,1 12.4,1.2 L11.9,2.2 C11.9,2.2 11.9,2.3 12,2.3 L12.3,2.3 L12.2,2.5 L11.7,2.5 C11.4,2.5 11.3,2.4 11.4,2.3 L11.9,1.3 Z M12.3,0.5 L12.7,0.5 L12.6,0.7 L12.2,0.7 L12.3,0.5 Z" id="Shape_8_" fill-rule="nonzero"></path>
                            <path d="M12.3,1.3 C12.3,1.3 12.3,1.2 12.3,1.3 L12.1,1.2 L12.1,1 L12.3,1 C12.4,1 12.5,1 12.4,1.2 L12.4,1.3 C12.4,1.4 12.4,1.4 12.4,1.4 L12.4,1.4 C12.5,1.3 12.8,1 13.1,1 C13.4,1 13.5,1.2 13.4,1.5 L13.3,2.2 C13.3,2.2 13.3,2.3 13.3,2.3 L13.4,2.3 L13.4,2.5 L13.2,2.5 C13.1,2.5 13,2.4 13.1,2.3 L13.2,1.6 C13.2,1.4 13.3,1.2 13,1.2 C12.8,1.2 12.5,1.4 12.4,1.6 C12.4,1.7 12.4,1.7 12.3,1.8 L12.1,2.5 L12,2.5 L12.3,1.3 Z" id="Path_12_"></path>
                            <path d="M15.8,0.5 C16.4,0.5 16.7,0.9 16.6,1.5 C16.5,2.1 15.9,2.5 15.4,2.5 C14.8,2.5 14.5,2.1 14.6,1.5 C14.7,0.9 15.2,0.5 15.8,0.5 Z M15.3,2.3 C15.7,2.3 16.2,1.9 16.3,1.5 C16.4,1 16.1,0.7 15.7,0.7 C15.3,0.7 14.8,1.1 14.7,1.5 C14.6,2 14.9,2.3 15.3,2.3 Z M15.6,0.1 L15.8,0.1 L15.7,0.3 L15.5,0.3 L15.6,0.1 Z M16,0.1 L16.2,0.1 L16.1,0.3 L15.9,0.3 L16,0.1 Z" id="Shape_9_" fill-rule="nonzero"></path>
                            <path d="M17.5,1 C17.8,1 17.9,1.3 17.9,1.3 L17.9,1.3 C17.9,1.3 17.9,1.3 17.9,1.2 L18,0.7 C18,0.7 18,0.6 18,0.6 L17.9,0.6 L17.9,0.4 L18.1,0.4 C18.2,0.4 18.3,0.4 18.2,0.6 L17.9,2.1 C17.9,2.1 17.9,2.2 17.9,2.2 L18,2.2 L18,2.4 L17.8,2.4 C17.7,2.4 17.6,2.3 17.7,2.2 C17.7,2.1 17.7,2.1 17.7,2.1 L17.7,2.1 C17.7,2.1 17.5,2.4 17.2,2.4 C16.8,2.4 16.7,2.1 16.8,1.7 C16.8,1.3 17.1,1 17.5,1 M17.8,1.8 C17.9,1.5 17.8,1.2 17.5,1.2 C17.3,1.2 17,1.4 16.9,1.8 C16.8,2.1 17,2.4 17.2,2.4 C17.4,2.3 17.7,2.2 17.8,1.8" id="Shape_10_" fill-rule="nonzero"></path>
                            <path d="M19.2,1 C19.6,1 19.7,1.3 19.7,1.6 C19.7,1.6 19.7,1.7 19.7,1.7 L18.6,1.7 C18.5,2 18.7,2.3 19,2.3 C19.3,2.3 19.5,2.1 19.5,2.1 L19.6,2.2 C19.6,2.2 19.3,2.4 19,2.4 C18.6,2.4 18.3,2.1 18.4,1.7 C18.4,1.3 18.8,1 19.2,1 Z M19.4,1.6 C19.5,1.3 19.3,1.2 19.1,1.2 C18.9,1.2 18.6,1.3 18.5,1.6 L19.4,1.6 Z" id="Shape_11_" fill-rule="nonzero"></path>
                            <path d="M20,1.3 C20.1,1.3 20,1.2 20,1.3 L19.8,1.2 L19.8,1 L20,1 C20.1,1 20.2,1 20.1,1.2 L20.1,1.3 C20.1,1.4 20.1,1.4 20.1,1.4 L20.1,1.4 C20.3,1.2 20.6,1 20.8,1 C21.1,1 21.2,1.1 21.2,1.3 L21.2,1.3 C21.3,1.2 21.5,1 21.8,1 C22.1,1 22.2,1.2 22.1,1.5 L22,2.2 C22,2.2 22,2.3 22,2.3 L22.1,2.3 L22.1,2.5 L21.9,2.5 C21.8,2.5 21.7,2.4 21.8,2.3 L22,1.6 C22.1,1.4 22,1.2 21.8,1.2 C21.6,1.2 21.4,1.4 21.3,1.6 C21.3,1.7 21.2,1.7 21.2,1.8 L21.1,2.5 L20.9,2.5 L21.1,1.7 C21.1,1.5 21.2,1.3 20.9,1.3 C20.7,1.3 20.5,1.5 20.4,1.7 C20.4,1.8 20.3,1.8 20.3,1.9 L20,2.5 L19.8,2.5 L20,1.3 Z" id="Path_13_"></path>
                            <path d="M23.3,1 C23.7,1 23.8,1.3 23.8,1.6 C23.8,1.6 23.8,1.7 23.8,1.7 L22.7,1.7 C22.6,2 22.8,2.3 23.1,2.3 C23.4,2.3 23.6,2.1 23.6,2.1 L23.7,2.2 C23.7,2.2 23.4,2.4 23.1,2.4 C22.7,2.4 22.4,2.1 22.5,1.7 C22.5,1.3 22.9,1 23.3,1 Z M23.5,1.6 C23.6,1.3 23.4,1.2 23.2,1.2 C23,1.2 22.7,1.3 22.6,1.6 L23.5,1.6 Z" id="Shape_12_" fill-rule="nonzero"></path>
                            <path d="M25.2,1.6 L24.9,0.7 C24.9,0.6 24.8,0.6 24.8,0.6 L24.8,0.6 L24.8,0.4 L24.9,0.4 C25,0.4 25.1,0.4 25.1,0.6 L25.3,1.1 C25.3,1.2 25.4,1.3 25.4,1.3 L25.4,1.3 C25.4,1.3 25.5,1.2 25.6,1.1 L26,0.7 C26.1,0.6 26.2,0.5 26.3,0.5 L26.4,0.5 L26.4,0.7 L26.4,0.7 C26.3,0.7 26.3,0.7 26.3,0.8 L25.6,1.7 L25.4,2.5 L25,2.5 L25.2,1.6 Z" id="Path_14_"></path>
                            <path d="M26.9,1 C27.3,1 27.6,1.3 27.5,1.7 C27.4,2.1 27,2.4 26.6,2.4 C26.2,2.4 25.9,2.1 26,1.7 C26.1,1.4 26.5,1 26.9,1 Z M26.6,2.3 C26.9,2.3 27.2,2.1 27.3,1.7 C27.4,1.4 27.2,1.2 26.9,1.2 C26.6,1.2 26.3,1.4 26.2,1.7 C26.1,2.1 26.3,2.3 26.6,2.3 Z M26.7,0.5 L26.9,0.5 L26.8,0.7 L26.6,0.7 L26.7,0.5 Z M27.1,0.5 L27.3,0.5 L27.3,0.7 L27.1,0.7 L27.1,0.5 Z" id="Shape_13_" fill-rule="nonzero"></path>
                            <path d="M27.9,1.3 C27.9,1.3 27.9,1.2 27.9,1.3 L27.7,1.2 L27.7,1 L28,1 C28.1,1 28.2,1 28.1,1.2 L28.1,1.3 C28.1,1.4 28.1,1.4 28.1,1.4 L28.1,1.4 C28.2,1.3 28.4,1 28.7,1 C29,1 29.1,1.2 29,1.5 L28.9,2.2 C28.9,2.2 28.9,2.3 29,2.3 L29.1,2.3 L29.1,2.5 L28.9,2.5 C28.8,2.5 28.7,2.4 28.8,2.3 L28.9,1.6 C28.9,1.4 29,1.2 28.7,1.2 C28.5,1.2 28.2,1.4 28.1,1.6 C28,1.7 28,1.7 28,1.8 L27.9,2.5 L27.7,2.5 L27.9,1.3 Z" id="Path_15_"></path>
                            <path d="M29.6,1.2 L29.4,1.2 L29.4,1 L29.6,1 L29.7,0.6 L29.9,0.6 L29.8,1 L30.2,1 L30.2,1.2 L29.8,1.2 L29.6,1.9 C29.5,2.2 29.7,2.3 29.8,2.3 C29.8,2.3 29.9,2.3 29.9,2.3 L29.9,2.5 C29.9,2.5 29.9,2.5 29.8,2.5 C29.6,2.5 29.3,2.4 29.4,2 L29.6,1.2 Z" id="Path_16_"></path>
                            <path d="M31.1,1 C31.5,1 31.6,1.3 31.6,1.6 C31.6,1.6 31.6,1.7 31.6,1.7 L30.5,1.7 C30.4,2 30.6,2.3 30.9,2.3 C31.2,2.3 31.4,2.1 31.4,2.1 L31.5,2.2 C31.5,2.2 31.3,2.4 30.9,2.4 C30.5,2.4 30.2,2.1 30.3,1.7 C30.3,1.3 30.7,1 31.1,1 Z M31.4,1.6 C31.5,1.3 31.3,1.2 31.1,1.2 C30.9,1.2 30.6,1.3 30.5,1.6 L31.4,1.6 Z" id="Shape_14_" fill-rule="nonzero"></path>
                            <path d="M32,1.3 C32,1.3 32,1.2 32,1.3 L31.8,1.2 L31.8,1 L32,1 C32.1,1 32.2,1 32.1,1.2 L32.1,1.3 C32.1,1.4 32.1,1.4 32.1,1.4 L32.1,1.4 C32.3,1.2 32.5,1 32.7,1 C33,1 33.1,1.1 33.1,1.3 L33.1,1.3 C33.2,1.2 33.5,1 33.7,1 C34,1 34.1,1.2 34,1.6 L33.9,2.3 C33.9,2.3 33.9,2.4 33.9,2.4 L34,2.4 L34,2.6 L33.8,2.6 C33.7,2.6 33.6,2.5 33.7,2.4 L33.8,1.7 C33.9,1.5 33.8,1.3 33.6,1.3 C33.4,1.3 33.2,1.5 33.1,1.7 C33.1,1.8 33,1.8 33,1.9 L32.9,2.6 L32.7,2.6 L32.9,1.8 C32.9,1.6 33,1.4 32.7,1.4 C32.5,1.4 32.3,1.6 32.2,1.8 C32.2,1.9 32.2,1.9 32.1,2 L32,2.7 L31.8,2.7 L32,1.3 Z" id="Path_17_"></path>
                            <path d="M34.9,1.3 C34.9,1.3 34.9,1.2 34.8,1.2 L34.5,1.2 L34.6,1 L35.1,1 C35.4,1 35.5,1 35.4,1.2 L34.9,2.2 C34.9,2.2 34.9,2.3 35,2.3 L35.3,2.3 L35.2,2.5 L34.7,2.5 C34.4,2.5 34.3,2.4 34.4,2.3 L34.9,1.3 Z M35.3,0.5 L35.7,0.5 L35.6,0.7 L35.2,0.7 L35.3,0.5 Z" id="Shape_15_" fill-rule="nonzero"></path>
                        </g>
                        <g id="Group_2_">
                            <g id="Path_18_">
                                <path d="M54,4.4 C53.2,4.4 52.3,4.9 51.9,5.7 L48.1,14.4 L46.7,5.7 C46.5,4.9 46,4.4 45.1,4.4 L40.2,4.4 L44.4,18.9 C44.5,19.2 44.5,19.5 44.4,19.8 C44.2,21 43.1,22 41.9,22 L39.2,22 C38.5,22 38.1,22.4 37.8,23.4 L37.2,27 L42,27 C44.5,27 47.4,25.8 49.4,22.3 L59,4.4 L54,4.4 Z" id="Path" fill="#323E48"></path>
                                <path d="M6.8,0 C8.2,0 8.9,0.6 8.7,2 L8.3,4.3 L11.6,4.3 L10.9,8.4 L7.5,8.4 L6.6,13.5 C6.3,15.3 8,15.5 9.1,15.5 C9.3,15.5 9.5,15.5 9.6,15.5 L8.8,20 C8.6,20 8.3,20.1 7.8,20.1 C5.3,20.1 0.6,19.4 1.5,14.2 L2.5,8.4 L0,8.4 L0.7,4.3 L3.1,4.3 L3.9,0 L6.8,0 Z" id="Path" fill="#323E48"></path>
                                <g id="Group" transform="translate(24.190798, 4.196481)" fill="#00ADBB">
                                    <path d="M10.4,0.3 L9.5,5.1 C10.5,5.6 11.3,6.7 11.3,7.9 C11.3,9.5 10.1,10.9 8.5,11.1 L7.7,15.9 C7.8,15.9 8,15.9 8.2,15.9 C12.6,15.9 16.2,12.3 16.2,7.9 C16.1,4.4 13.7,1.3 10.4,0.3 Z" id="Path"></path>
                                    <path d="M6.6,10.8 C5.6,10.3 4.8,9.2 4.8,8 C4.8,6.4 6,5 7.6,4.8 L8.5,0 C8.4,0 8.2,0 8,0 C3.6,0 0,3.6 0,8 C0,11.6 2.4,14.6 5.7,15.6 L6.6,10.8 Z" id="Path"></path>
                                </g>
                                <path d="M13.5,4.4 L16.3,4.4 C17.7,4.4 18.4,5 18.2,6.4 L17.9,8.1 C19,6 21.2,4.2 23.6,4.2 C23.9,4.2 24.2,4.3 24.2,4.3 L23.3,9.5 C23.3,9.5 22.9,9.4 22.2,9.4 C20.9,9.4 18.8,9.8 17.6,12.1 C17.3,12.7 17.1,13.4 17,14.2 L16,20 L10.7,20 L13.5,4.4 Z" id="Path" fill="#323E48"></path>
                            </g>
                            <path d="M59,20.7 C59,21.2 58.8,21.6 58.5,21.9 C58.2,22.2 57.8,22.4 57.3,22.4 C56.8,22.4 56.4,22.2 56.1,21.9 C55.8,21.6 55.6,21.2 55.6,20.7 C55.6,20.2 55.8,19.8 56.1,19.5 C56.4,19.2 56.8,19 57.3,19 C57.8,19 58.2,19.2 58.5,19.5 C58.8,19.8 59,20.2 59,20.7 Z M58.7,20.7 C58.7,20.3 58.6,20 58.3,19.7 C58,19.4 57.7,19.3 57.3,19.3 C56.9,19.3 56.6,19.4 56.3,19.7 C56,20 55.9,20.3 55.9,20.7 C55.9,21.1 56,21.4 56.3,21.7 C56.6,22 56.9,22.1 57.3,22.1 C57.7,22.1 58,22 58.3,21.7 C58.6,21.4 58.7,21.1 58.7,20.7 Z M58,21.6 L57.7,21.6 L57.3,20.8 L57,20.8 L57,21.6 L56.7,21.6 L56.7,19.8 L57.3,19.8 C57.5,19.8 57.6,19.9 57.7,20 C57.8,20.1 57.9,20.2 57.9,20.4 C57.9,20.7 57.8,20.8 57.5,20.9 L58,21.6 Z M57.7,20.3 C57.7,20.2 57.7,20.1 57.6,20.1 C57.5,20.1 57.4,20 57.3,20 L57,20 L57,20.6 L57.3,20.6 C57.4,20.6 57.5,20.6 57.6,20.5 C57.6,20.5 57.7,20.4 57.7,20.3 Z" id="Shape_16_" fill="#323E48" fill-rule="nonzero"></path>
                        </g>
                    </g>
                    <g id="American_Express" transform="translate(459.000000, 0.000000)">
                        <polyline id="Path_5_" fill="url(#radialGradient-1)" points="43.2 0 0 0 0 30 43.2 30 43.2 20.1"></polyline>
                        <g id="Group" transform="translate(0.000000, 6.600000)" fill="#FFFFFF" fill-rule="nonzero">
                            <path d="M3.9,4 L3.1,2 L2.3,4 L3.9,4 Z M22,3.2 C21.8,3.3 21.6,3.3 21.4,3.3 L20,3.3 L20,2.2 L21.5,2.2 C21.7,2.2 21.9,2.2 22.1,2.3 C22.3,2.4 22.4,2.5 22.4,2.7 C22.3,2.9 22.2,3.1 22,3.2 Z M32.4,4 L31.6,2 L30.8,4 L32.4,4 Z M13,6.2 L11.8,6.2 L11.8,2.2 L10.1,6.2 L9,6.2 L7.3,2.2 L7.3,6.2 L4.8,6.2 L4.4,5.1 L1.9,5.1 L1.4,6.2 L0.1,6.2 L2.2,1.1 L4,1.1 L6,5.9 L6,1.1 L8,1.1 L9.6,4.5 L11,1.1 L13,1.1 L13,6.2 Z M17.9,6.2 L13.9,6.2 L13.9,1.1 L17.9,1.1 L17.9,2.2 L15.1,2.2 L15.1,3.1 L17.8,3.1 L17.8,4.1 L15.1,4.1 L15.1,5.1 L17.9,5.1 L17.9,6.2 Z M23.6,2.5 C23.6,3.3 23.1,3.7 22.8,3.8 C23.1,3.9 23.3,4.1 23.4,4.2 C23.6,4.5 23.6,4.7 23.6,5.1 L23.6,6.1 L22.4,6.1 L22.4,5.5 C22.4,5.2 22.4,4.8 22.2,4.5 C22,4.3 21.8,4.3 21.3,4.3 L20,4.3 L20,6.1 L18.8,6.1 L18.8,1.1 L21.6,1.1 C22.2,1.1 22.7,1.1 23.1,1.3 C23.4,1.6 23.6,1.9 23.6,2.5 Z M25.5,6.2 L24.3,6.2 L24.3,1.1 L25.5,1.1 L25.5,6.2 Z M39.7,6.2 L38,6.2 L35.7,2.4 L35.7,6.2 L33.3,6.2 L32.8,5.1 L30.3,5.1 L29.8,6.2 L28.4,6.2 C27.8,6.2 27.1,6.1 26.7,5.6 C26.3,5.2 26.1,4.6 26.1,3.7 C26.1,2.9 26.2,2.3 26.7,1.7 C27.1,1.3 27.7,1.1 28.5,1.1 L29.7,1.1 L29.7,2.2 L28.6,2.2 C28.2,2.2 27.9,2.3 27.7,2.5 C27.5,2.7 27.4,3.1 27.4,3.6 C27.4,4.1 27.5,4.5 27.7,4.8 C27.9,5 28.2,5.1 28.5,5.1 L29,5.1 L30.7,1.1 L32.5,1.1 L34.5,5.9 L34.5,1.1 L36.3,1.1 L38.4,4.6 L38.4,1.1 L39.6,1.1 L39.7,6.2 L39.7,6.2 Z M0.1,7.2 L2.1,7.2 L2.6,6.1 L3.6,6.1 L4.1,7.2 L8.1,7.2 L8.1,6.3 L8.5,7.2 L10.6,7.2 L11,6.3 L11,7.2 L21,7.2 L21,5.4 L21.2,5.4 C21.3,5.4 21.4,5.4 21.4,5.6 L21.4,7.2 L26.6,7.2 L26.6,6.8 C27,7 27.7,7.2 28.5,7.2 L30.7,7.2 L31.2,6.1 L32.2,6.1 L32.7,7.2 L36.9,7.2 L36.9,6.1 L37.5,7.2 L40.9,7.2 L40.9,0.1 L37.6,0.1 L37.6,1 L37,0.1 L33.6,0.1 L33.6,1 L33.2,0.2 L28.6,0.2 C27.8,0.2 27.1,0.3 26.6,0.6 L26.6,0.1 L23.4,0.1 L23.4,0.5 C23,0.2 22.5,0.1 22,0.1 L10.3,0.1 L9.6,1.9 L8.8,0.1 L5.1,0.1 L5.1,1 L4.7,0.1 L1.6,0.1 L0.1,3.5 L0.1,7.2 Z" id="Shape_3_"></path>
                            <path d="M42.8,10.9 L40.6,10.9 C40.4,10.9 40.2,10.9 40.1,11 C40,11.1 39.9,11.2 39.9,11.4 C39.9,11.6 40,11.7 40.2,11.8 C40.3,11.8 40.5,11.9 40.7,11.9 L41.3,11.9 C42,11.9 42.4,12 42.7,12.3 C42.7,12.3 42.8,12.4 42.8,12.4 L42.8,10.9 Z M42.8,14.3 C42.5,14.7 41.9,14.9 41.2,14.9 L38.9,14.9 L38.9,13.8 L41.2,13.8 C41.4,13.8 41.6,13.8 41.7,13.7 C41.8,13.6 41.8,13.5 41.8,13.4 C41.8,13.3 41.7,13.1 41.7,13.1 C41.6,13 41.5,13 41.3,13 C40.2,13 38.8,13 38.8,11.4 C38.8,10.7 39.3,9.9 40.5,9.9 L42.9,9.9 L42.9,8.9 L40.7,8.9 C40,8.9 39.5,9.1 39.2,9.3 L39.2,8.8 L35.9,8.8 C35.4,8.8 34.8,8.9 34.5,9.2 L34.5,8.8 L28.6,8.8 L28.6,9.2 C28.1,8.9 27.3,8.8 27,8.8 L23,8.8 L23,9.2 C22.6,8.8 21.8,8.8 21.3,8.8 L17,8.8 L16,9.9 L15.1,8.8 L8.6,8.8 L8.6,15.9 L14.9,15.9 L15.9,14.8 L16.9,15.9 L20.8,15.9 L20.8,14.2 L21.2,14.2 C21.7,14.2 22.3,14.2 22.9,14 L22.9,15.9 L26.1,15.9 L26.1,14.1 L26.3,14.1 C26.5,14.1 26.5,14.1 26.5,14.3 L26.5,15.9 L36.3,15.9 C36.9,15.9 37.6,15.7 37.9,15.4 L37.9,15.9 L41,15.9 C41.6,15.9 42.3,15.8 42.8,15.6 L42.8,14.3 L42.8,14.3 Z M38,12.2 C38.2,12.4 38.4,12.8 38.4,13.3 C38.4,14.4 37.7,14.9 36.5,14.9 L34.2,14.9 L34.2,13.8 L36.5,13.8 C36.7,13.8 36.9,13.8 37,13.7 C37.1,13.6 37.1,13.5 37.1,13.4 C37.1,13.3 37,13.1 37,13.1 C36.9,13 36.8,13 36.6,13 C35.5,13 34.1,13 34.1,11.4 C34.1,10.7 34.6,9.9 35.8,9.9 L38.2,9.9 L38.2,11 L36,11 C35.8,11 35.6,11 35.5,11.1 C35.4,11.2 35.3,11.3 35.3,11.5 C35.3,11.7 35.4,11.8 35.6,11.9 C35.7,11.9 35.9,12 36.1,12 L36.7,12 C37.3,11.8 37.7,12 38,12.2 Z M27.2,11.9 C27,12 26.8,12 26.6,12 L25.1,12 L25.1,10.9 L26.6,10.9 C26.8,10.9 27,10.9 27.2,11 C27.4,11.1 27.4,11.2 27.4,11.5 C27.4,11.7 27.3,11.8 27.2,11.9 Z M27.9,12.5 C28.2,12.6 28.4,12.8 28.5,12.9 C28.7,13.1 28.7,13.4 28.7,13.8 L28.7,14.8 L27.5,14.8 L27.5,14.2 C27.5,13.9 27.5,13.4 27.3,13.2 C27.1,13 26.9,13 26.4,13 L25.1,13 L25.1,14.8 L23.9,14.8 L23.9,9.8 L26.7,9.8 C27.3,9.8 27.7,9.8 28.1,10 C28.5,10.2 28.7,10.5 28.7,11.1 C28.7,12 28.2,12.4 27.9,12.5 Z M29.4,9.8 L33.4,9.8 L33.4,10.8 L30.6,10.8 L30.6,11.7 L33.3,11.7 L33.3,12.7 L30.6,12.7 L30.6,13.7 L33.4,13.7 L33.4,14.8 L29.4,14.8 L29.4,9.8 Z M21.3,12.2 L19.8,12.2 L19.8,10.9 L21.4,10.9 C21.8,10.9 22.1,11.1 22.1,11.5 C22.1,11.9 21.8,12.2 21.3,12.2 Z M18.6,14.4 L16.8,12.3 L18.6,10.3 L18.6,14.4 Z M13.8,13.8 L10.9,13.8 L10.9,12.8 L13.5,12.8 L13.5,11.8 L10.9,11.8 L10.9,10.9 L13.9,10.9 L15.2,12.4 L13.8,13.8 Z M23.3,11.5 C23.3,12.9 22.3,13.2 21.2,13.2 L19.7,13.2 L19.7,14.9 L17.4,14.9 L16,13.2 L14.5,14.9 L9.7,14.9 L9.7,9.8 L14.5,9.8 L16,11.5 L17.5,9.8 L21.3,9.8 C22.3,9.8 23.3,10.1 23.3,11.5 Z" id="Shape_4_"></path>
                        </g>
                    </g>
                    <g id="visa-electron-seeklogo.com" transform="translate(364.000000, 4.000000)" fill="#1A1F71" fill-rule="nonzero">
                        <path d="M23.9,0.4 L15.7,20 L10.3,20 L6.2,4.3 C6,3.4 5.8,3 5,2.6 C3.8,1.9 1.8,1.3 0,0.9 L0.1,0.3 L8.8,0.3 C9.9,0.3 10.9,1 11.1,2.3 L13.2,13.7 L18.5,0.3 L23.9,0.3 L23.9,0.4 Z M31.2,0.4 L27,20 L21.9,20 L26.1,0.4 L31.2,0.4 Z M45,13.6 C45,8.4 37.8,8.1 37.9,5.8 C37.9,5.1 38.6,4.3 40.1,4.2 C40.8,4.1 42.8,4 45.1,5.1 L46,0.9 C44.7,0.4 43.1,0 41.2,0 C36.2,0 32.6,2.7 32.6,6.5 C32.6,9.3 35.1,10.9 37.1,11.8 C39.1,12.8 39.7,13.4 39.7,14.2 C39.7,15.5 38.1,16.1 36.7,16.1 C34.1,16.1 32.7,15.4 31.5,14.9 L30.6,19.2 C31.8,19.7 34,20.2 36.3,20.2 C41.5,20.3 45,17.7 45,13.6 Z M58.3,20 L63,20 L58.9,0.4 L54.6,0.4 C53.6,0.4 52.8,1 52.4,1.8 L44.7,20 L50,20 L51.1,17.1 L57.6,17.1 L58.3,20 Z M52.6,13 L55.3,5.6 L56.8,13 L52.6,13 Z M37.7,25.4 L35.6,25.4 L35.6,27.3 L38,27.3 L38,27.9 L35,27.9 L35,22.6 L37.9,22.6 L37.9,23.2 L35.7,23.2 L35.7,24.9 L37.8,24.9 L37.8,25.4 L37.7,25.4 Z M39,22.3 L39.7,22.3 L39.7,27.9 L39,27.9 L39,22.3 Z M41.5,26.1 C41.5,27 42.1,27.4 42.8,27.4 C43.3,27.4 43.6,27.3 43.9,27.2 L44,27.7 C43.8,27.8 43.3,27.9 42.7,27.9 C41.5,27.9 40.8,27.1 40.8,26 C40.8,24.9 41.5,23.9 42.6,23.9 C43.9,23.9 44.2,25 44.2,25.7 C44.2,25.8 44.2,25.9 44.2,26 L41.5,26 L41.5,26.1 Z M43.5,25.6 C43.5,25.2 43.3,24.5 42.5,24.5 C41.8,24.5 41.5,25.1 41.4,25.6 L43.5,25.6 Z M48,27.8 C47.8,27.9 47.4,28 46.9,28 C45.7,28 45,27.2 45,26 C45,24.8 45.8,24 47.1,24 C47.5,24 47.9,24.1 48.1,24.2 L47.9,24.7 C47.7,24.6 47.5,24.5 47.1,24.5 C46.2,24.5 45.7,25.2 45.7,25.9 C45.7,26.8 46.3,27.3 47,27.3 C47.4,27.3 47.7,27.2 47.9,27.1 L48,27.8 Z M49.9,23.2 L49.9,24.1 L50.9,24.1 L50.9,24.6 L49.9,24.6 L49.9,26.7 C49.9,27.2 50,27.4 50.4,27.4 C50.6,27.4 50.7,27.4 50.8,27.4 L50.8,27.9 C50.7,27.9 50.5,28 50.2,28 C49.9,28 49.6,27.9 49.4,27.7 C49.2,27.5 49.1,27.1 49.1,26.7 L49.1,24.6 L48.5,24.6 L48.5,24.1 L49.1,24.1 L49.1,23.4 L49.9,23.2 Z M51.9,25.3 C51.9,24.8 51.9,24.5 51.9,24.1 L52.5,24.1 L52.5,24.9 L52.5,24.9 C52.7,24.4 53.1,24.1 53.6,24.1 C53.7,24.1 53.7,24.1 53.8,24.1 L53.8,24.8 C53.7,24.8 53.7,24.8 53.6,24.8 C53.1,24.8 52.8,25.2 52.7,25.7 C52.7,25.8 52.7,25.9 52.7,26 L52.7,28 L52,28 L52,25.3 L51.9,25.3 Z M58.1,26 C58.1,27.4 57.1,28 56.2,28 C55.2,28 54.4,27.2 54.4,26 C54.4,24.7 55.2,24 56.3,24 C57.4,24 58.1,24.8 58.1,26 Z M55.1,26 C55.1,26.8 55.6,27.5 56.3,27.5 C57,27.5 57.5,26.9 57.5,26 C57.5,25.4 57.2,24.5 56.4,24.5 C55.4,24.5 55.1,25.3 55.1,26 Z M59.2,25.1 C59.2,24.7 59.2,24.4 59.2,24.1 L59.8,24.1 L59.8,24.7 L59.8,24.7 C60,24.3 60.4,24 61.1,24 C61.6,24 62.5,24.3 62.5,25.6 L62.5,27.9 L61.8,27.9 L61.8,25.7 C61.8,25.1 61.6,24.6 60.9,24.6 C60.4,24.6 60.1,24.9 60,25.3 C60,25.4 60,25.5 60,25.6 L60,27.9 L59.3,27.9 L59.3,25.1 L59.2,25.1 Z" id="Shape_2_"></path>
                    </g>
                    <g id="visa" transform="translate(270.000000, 4.000000)" fill="url(#linearGradient-2)">
                        <path d="M30.7,0.4 L26.6,19.7 L21.6,19.7 L25.7,0.4 L30.7,0.4 Z M51.8,12.8 L54.4,5.5 L55.9,12.8 L51.8,12.8 Z M57.4,19.7 L62,19.7 L58,0.4 L53.7,0.4 C52.7,0.4 51.9,1 51.6,1.8 L44,19.7 L49.3,19.7 L50.3,16.8 L56.7,16.8 L57.4,19.7 Z M44.3,13.4 C44.3,8.3 37.2,8 37.3,5.7 C37.3,5 38,4.3 39.4,4.1 C40.1,4 42.1,3.9 44.3,5 L45.2,0.9 C44,0.4 42.5,0 40.5,0 C35.5,0 32.1,2.6 32,6.4 C32,9.2 34.5,10.7 36.4,11.7 C38.4,12.6 39,13.3 39,14.1 C39,15.4 37.4,16 36,16 C33.5,16 32,15.3 30.9,14.8 L30,19 C31.2,19.5 33.3,20 35.6,20 C40.8,20 44.3,17.4 44.3,13.4 Z M23.5,0.4 L15.4,19.7 L10.1,19.7 L6.1,4.3 C5.9,3.3 5.6,3 4.9,2.6 C3.7,1.9 1.7,1.3 0,1 L0.1,0.4 L8.6,0.4 C9.7,0.4 10.7,1.1 10.9,2.4 L13,13.6 L18.2,0.4 L23.5,0.4 Z" id="Fill-1"></path>
                    </g>
                    <g id="maestro-seeklogo.com" transform="translate(199.000000, 0.000000)">
                        <polygon id="Path_2_" fill="#6C6BBD" points="24.8 21.3 14.2 21.3 14.2 2.5 24.8 2.5"></polygon>
                        <path d="M14.9,11.9 C14.9,8.1 16.7,4.7 19.5,2.5 C17.4,1 14.9,0 12.1,0 C5.4,0 0,5.3 0,11.9 C0,18.5 5.4,23.8 12.1,23.8 C14.9,23.8 17.5,22.8 19.5,21.2 C16.7,19.1 14.9,15.7 14.9,11.9" id="Path_3_" fill="#D32011"></path>
                        <path d="M39,11.9 C39,18.5 33.6,23.8 26.9,23.8 C24.1,23.8 21.5,22.8 19.5,21.2 C22.3,19 24.1,15.6 24.1,11.8 C24.1,8 22.3,4.6 19.5,2.4 C21.6,1 24.1,0 26.9,0 C33.6,0 39,5.3 39,11.9" id="Path_4_" fill="#0099DF"></path>
                        <path d="M28.3,26.6 C28.4,26.6 28.6,26.6 28.8,26.7 L28.6,27.3 C28.5,27.2 28.3,27.2 28.2,27.2 C27.7,27.2 27.5,27.5 27.5,28 L27.5,29.8 L26.8,29.8 L26.8,26.6 L27.5,26.6 L27.5,27 C27.7,26.8 27.9,26.6 28.3,26.6 Z M25.8,27.3 L24.7,27.3 L24.7,28.7 C24.7,29 24.8,29.2 25.2,29.2 C25.4,29.2 25.6,29.1 25.8,29 L26,29.6 C25.8,29.8 25.4,29.8 25.1,29.8 C24.3,29.8 24,29.4 24,28.6 L24,27.2 L23.4,27.2 L23.4,26.6 L24,26.6 L24,25.6 L24.7,25.6 L24.7,26.6 L25.8,26.6 L25.8,27.3 Z M16.9,28 C17,27.5 17.3,27.2 17.8,27.2 C18.2,27.2 18.5,27.5 18.6,28 L16.9,28 Z M19.2,28.3 C19.2,27.3 18.6,26.6 17.7,26.6 C16.8,26.6 16.1,27.3 16.1,28.3 C16.1,29.3 16.8,30 17.7,30 C18.2,30 18.6,29.9 19,29.6 L18.7,29 C18.4,29.2 18.1,29.3 17.8,29.3 C17.4,29.3 16.9,29.1 16.8,28.5 L19.2,28.5 C19.2,28.4 19.2,28.4 19.2,28.3 Z M22.3,27.5 C22.1,27.4 21.7,27.2 21.3,27.2 C20.9,27.2 20.7,27.3 20.7,27.6 C20.7,27.8 20.9,27.9 21.2,27.9 L21.5,27.9 C22.2,28 22.6,28.3 22.6,28.8 C22.6,29.4 22.1,29.8 21.1,29.8 C20.6,29.8 20.1,29.7 19.7,29.4 L20,28.9 C20.2,29.1 20.6,29.2 21.1,29.2 C21.6,29.2 21.8,29.1 21.8,28.8 C21.8,28.6 21.6,28.5 21.2,28.5 L20.9,28.5 C20.2,28.4 19.8,28.1 19.8,27.6 C19.8,27 20.3,26.6 21.1,26.6 C21.6,26.6 22.1,26.7 22.4,26.9 L22.3,27.5 Z M30.9,27.3 C30.8,27.3 30.6,27.3 30.5,27.4 C30.4,27.5 30.3,27.5 30.2,27.6 C30.1,27.7 30,27.8 30,27.9 C29.9,28 29.9,28.2 29.9,28.3 C29.9,28.5 29.9,28.6 30,28.7 C30.1,28.8 30.1,28.9 30.2,29 C30.3,29.1 30.4,29.2 30.5,29.2 C30.6,29.3 30.8,29.3 30.9,29.3 C31,29.3 31.2,29.3 31.3,29.2 C31.4,29.1 31.5,29.1 31.6,29 C31.7,28.9 31.8,28.8 31.8,28.7 C31.9,28.6 31.9,28.4 31.9,28.3 C31.9,28.1 31.9,28 31.8,27.9 C31.7,27.8 31.7,27.7 31.6,27.6 C31.5,27.5 31.4,27.4 31.3,27.4 C31.2,27.3 31,27.3 30.9,27.3 Z M30.9,26.6 C31.1,26.6 31.4,26.6 31.6,26.7 C31.8,26.8 32,26.9 32.1,27.1 C32.3,27.2 32.4,27.4 32.5,27.6 C32.6,27.8 32.6,28 32.6,28.3 C32.6,28.6 32.6,28.8 32.5,29 C32.4,29.2 32.3,29.4 32.1,29.5 C31.9,29.6 31.8,29.8 31.6,29.9 C31.4,30 31.2,30 30.9,30 C30.7,30 30.4,30 30.2,29.9 C30,29.8 29.8,29.7 29.7,29.5 C29.5,29.4 29.4,29.2 29.3,29 C29.2,28.8 29.2,28.6 29.2,28.3 C29.2,28 29.2,27.8 29.3,27.6 C29.4,27.4 29.5,27.2 29.7,27.1 C29.9,27 30,26.8 30.2,26.7 C30.4,26.6 30.6,26.6 30.9,26.6 Z M12.8,28.3 C12.8,27.7 13.2,27.3 13.8,27.3 C14.4,27.3 14.8,27.7 14.8,28.3 C14.8,28.9 14.4,29.3 13.8,29.3 C13.2,29.3 12.8,28.8 12.8,28.3 Z M15.4,28.3 L15.4,26.7 L14.7,26.7 L14.7,27.1 C14.5,26.8 14.1,26.6 13.7,26.6 C12.8,26.6 12.1,27.3 12.1,28.3 C12.1,29.3 12.8,30 13.7,30 C14.2,30 14.5,29.8 14.7,29.5 L14.7,29.9 L15.4,29.9 L15.4,28.3 Z M11.5,29.8 L11.5,27.8 C11.5,27.1 11,26.5 10.2,26.5 C9.8,26.5 9.4,26.6 9.1,27.1 C8.9,26.7 8.5,26.5 8,26.5 C7.7,26.5 7.3,26.6 7.1,27 L7.1,26.6 L6.4,26.6 L6.4,29.8 L7.1,29.8 L7.1,28 C7.1,27.5 7.4,27.2 7.9,27.2 C8.4,27.2 8.6,27.5 8.6,28 L8.6,29.8 L9.3,29.8 L9.3,28 C9.3,27.5 9.6,27.2 10.1,27.2 C10.6,27.2 10.8,27.5 10.8,28 L10.8,29.8 L11.5,29.8 Z" id="Shape_1_" fill="#110F0D" fill-rule="nonzero"></path>
                    </g>
                    <g id="mastercard-seeklogo.com" transform="translate(128.000000, 0.000000)">
                        <path d="M7.1,29.9 L7.1,27.9 C7.1,27.1 6.6,26.6 5.8,26.6 C5.4,26.6 5,26.7 4.7,27.2 C4.5,26.8 4.1,26.6 3.6,26.6 C3.3,26.6 2.9,26.7 2.7,27.1 L2.7,26.7 L2,26.7 L2,29.9 L2.7,29.9 L2.7,28.1 C2.7,27.5 3,27.3 3.5,27.3 C4,27.3 4.2,27.6 4.2,28.1 L4.2,29.9 L4.9,29.9 L4.9,28.1 C4.9,27.5 5.2,27.3 5.7,27.3 C6.2,27.3 6.4,27.6 6.4,28.1 L6.4,29.9 L7.1,29.9 Z M17.5,26.7 L16.4,26.7 L16.4,25.7 L15.7,25.7 L15.7,26.7 L15,26.7 L15,27.3 L15.6,27.3 L15.6,28.8 C15.6,29.5 15.9,30 16.7,30 C17,30 17.3,29.9 17.6,29.8 L17.4,29.2 C17.2,29.3 17,29.4 16.8,29.4 C16.5,29.4 16.3,29.2 16.3,28.9 L16.3,27.5 L17.4,27.5 L17.4,26.7 L17.5,26.7 Z M23.4,26.6 C23,26.6 22.7,26.8 22.6,27.1 L22.6,26.7 L21.9,26.7 L21.9,29.9 L22.6,29.9 L22.6,28.1 C22.6,27.6 22.8,27.3 23.3,27.3 C23.4,27.3 23.6,27.3 23.7,27.4 L23.9,26.7 C23.8,26.6 23.6,26.6 23.4,26.6 Z M14.4,26.9 C14.1,26.7 13.6,26.6 13.1,26.6 C12.3,26.6 11.8,27 11.8,27.6 C11.8,28.1 12.2,28.4 12.9,28.5 L13.2,28.5 C13.6,28.6 13.8,28.7 13.8,28.8 C13.8,29 13.5,29.2 13.1,29.2 C12.6,29.2 12.3,29 12,28.9 L11.7,29.4 C12.1,29.7 12.6,29.8 13.1,29.8 C14,29.8 14.6,29.4 14.6,28.8 C14.6,28.2 14.2,27.9 13.5,27.8 L13.2,27.8 C12.9,27.8 12.7,27.7 12.7,27.5 C12.7,27.3 12.9,27.1 13.3,27.1 C13.7,27.1 14.1,27.3 14.3,27.4 L14.4,26.9 Z M33.1,26.6 C32.7,26.6 32.4,26.8 32.3,27.1 L32.3,26.7 L31.6,26.7 L31.6,29.9 L32.3,29.9 L32.3,28.1 C32.3,27.6 32.5,27.3 33,27.3 C33.1,27.3 33.3,27.3 33.4,27.4 L33.6,26.7 C33.4,26.6 33.2,26.6 33.1,26.6 Z M24.1,28.3 C24.1,29.3 24.8,30 25.8,30 C26.3,30 26.6,29.9 26.9,29.6 L26.7,29 C26.4,29.2 26.2,29.3 25.9,29.3 C25.3,29.3 24.9,28.9 24.9,28.3 C24.9,27.7 25.3,27.3 25.9,27.3 C26.2,27.3 26.5,27.4 26.7,27.6 L27,27 C26.7,26.7 26.3,26.6 25.9,26.6 C24.8,26.6 24.1,27.3 24.1,28.3 Z M30.6,28.3 L30.6,26.7 L29.9,26.7 L29.9,27.1 C29.7,26.8 29.3,26.6 28.9,26.6 C28,26.6 27.3,27.3 27.3,28.3 C27.3,29.3 28,30 28.9,30 C29.4,30 29.7,29.8 29.9,29.5 L29.9,29.9 L30.6,29.9 L30.6,28.3 Z M28.1,28.3 C28.1,27.7 28.5,27.3 29.1,27.3 C29.7,27.3 30.1,27.7 30.1,28.3 C30.1,28.9 29.7,29.3 29.1,29.3 C28.4,29.3 28.1,28.8 28.1,28.3 Z M19.7,26.6 C18.8,26.6 18.1,27.3 18.1,28.3 C18.1,29.3 18.8,30 19.7,30 C20.2,30 20.6,29.9 21,29.6 L20.7,29 C20.4,29.2 20.1,29.3 19.8,29.3 C19.4,29.3 18.9,29.1 18.8,28.5 L21.2,28.5 L21.2,28.2 C21.2,27.3 20.6,26.6 19.7,26.6 Z M19.7,27.2 C20.1,27.2 20.4,27.5 20.5,28 L18.8,28 C18.9,27.5 19.2,27.2 19.7,27.2 Z M37.1,28.3 L37.1,25.5 L36.4,25.5 L36.4,27.2 C36.2,26.9 35.8,26.7 35.4,26.7 C34.5,26.7 33.8,27.4 33.8,28.4 C33.8,29.4 34.5,30.1 35.4,30.1 C35.9,30.1 36.2,29.9 36.4,29.6 L36.4,30 L37.1,30 L37.1,28.3 Z M34.5,28.3 C34.5,27.7 34.9,27.3 35.5,27.3 C36.1,27.3 36.5,27.7 36.5,28.3 C36.5,28.9 36.1,29.3 35.5,29.3 C34.9,29.3 34.5,28.8 34.5,28.3 Z M11,28.3 L11,26.7 L10.3,26.7 L10.3,27.1 C10.1,26.8 9.7,26.6 9.3,26.6 C8.4,26.6 7.7,27.3 7.7,28.3 C7.7,29.3 8.4,30 9.3,30 C9.8,30 10.1,29.8 10.3,29.5 L10.3,29.9 L11,29.9 L11,28.3 Z M8.4,28.3 C8.4,27.7 8.8,27.3 9.4,27.3 C10,27.3 10.4,27.7 10.4,28.3 C10.4,28.9 10,29.3 9.4,29.3 C8.8,29.3 8.4,28.8 8.4,28.3 Z" id="Shape" fill="#000000" fill-rule="nonzero"></path>
                        <rect id="Rectangle" fill="#FF5F00" x="14.2" y="2.5" width="10.5" height="18.7"></rect>
                        <path d="M14.9,11.9 C14.9,8.1 16.7,4.7 19.5,2.5 C17.4,1 14.8,0 12,0 C5.4,0 0,5.3 0,11.9 C0,18.5 5.4,23.8 12,23.8 C14.8,23.8 17.4,22.8 19.4,21.3 C16.7,19.1 14.9,15.7 14.9,11.9 Z" id="Path" fill="#EB001B"></path>
                        <path d="M39,11.9 C39,18.5 33.6,23.8 27,23.8 C24.2,23.8 21.6,22.8 19.6,21.3 C22.4,19.1 24.2,15.7 24.2,11.9 C24.2,8.1 22.4,4.7 19.6,2.5 C21.5,1 24.1,0 26.9,0 C33.6,0 39,5.4 39,11.9 Z" id="Path_1_" fill="#F79E1B"></path>
                    </g>
                    <g id="iyzico-ile-Ode">
                        <g id="Group-3" fill="url(#linearGradient-3)">
                            <path d="M3.7125,0 C1.66221,0 0,1.67866667 0,3.75 L0,26.25 C0,28.3213333 1.66221,30 3.7125,30 L31.74006,30 C33.12441,30 34.39359,29.2223333 35.0328,27.9816667 L40.8309,16.732 C41.10546,16.1986667 41.24505,15.6156667 41.25,15.032 L41.25,14.968 C41.24505,14.3843333 41.10546,13.8013333 40.8309,13.2683333 L35.0328,2.01833333 C34.39359,0.778 33.12441,0 31.74006,0 L3.7125,0 Z" id="Fill-1"></path>
                        </g>
                        <path d="M51.8509381,3.89132341 C52.4389344,3.59009785 53.1643269,3.81500132 53.4710305,4.3930758 L53.4710305,4.3930758 L56.0472816,9.27275565 L58.6238283,4.3930758 C58.9305319,3.81500132 59.6559243,3.59009785 60.2445115,3.89132341 C60.8333943,4.19196856 61.0617969,4.90498512 60.7553887,5.48305959 L60.7553887,5.48305959 L55.2766814,15.8651843 C55.0704395,16.2525986 54.6765706,16.4818551 54.2620185,16.4986866 C54.0581404,16.5082631 53.8492392,16.465604 53.6554072,16.3663563 C53.0668199,16.0660013 52.8381219,15.3529847 53.1448255,14.7746201 L53.1448255,14.7746201 L54.6928218,11.834914 L51.3391745,5.48305959 C51.0324709,4.90498512 51.261169,4.19254896 51.8509381,3.89132341 Z M80.6733056,3.60135754 C81.9719206,3.60135754 83.193121,4.09817656 84.1114589,4.99982183 C84.5815605,5.4612367 84.5815605,6.20849662 84.1114589,6.6690409 C83.6422438,7.12987536 82.8819852,7.12987536 82.4124746,6.6690409 C81.9476916,6.2125594 81.3304432,5.9612479 80.6733056,5.9612479 C80.0155771,5.9612479 79.3983287,6.2125594 78.9332502,6.6690409 C78.4687627,7.12552239 78.2125854,7.73232647 78.2125854,8.37772689 C78.2125854,9.02283711 78.4687627,9.62935099 78.9332502,10.0864129 C79.3983287,10.542314 80.0155771,10.7939157 80.6733056,10.7939157 C81.3304432,10.7939157 81.9476916,10.542314 82.4124746,10.0864129 C82.8819852,9.62528821 83.6422438,9.62528821 84.1114589,10.0864129 C84.5815605,10.5472473 84.5815605,11.2939269 84.1114589,11.7547613 C83.193121,12.6564066 81.9719206,13.1532256 80.6733056,13.1532256 C79.3740997,13.1532256 78.1528994,12.6564066 77.2345614,11.7547613 C76.3162235,10.8528259 75.8103693,9.65343742 75.8103693,8.37772689 C75.8103693,7.10230655 76.3162235,5.90204751 77.2345614,4.99982183 C78.1528994,4.09817656 79.3740997,3.60135754 80.6733056,3.60135754 Z M90.3870637,3.60144459 C93.0682087,3.60144459 95.25,5.74455704 95.25,8.37781395 C95.25,11.0110709 93.0682087,13.1533127 90.3870637,13.1533127 C87.7062142,13.1533127 85.5244229,11.0110709 85.5244229,8.37781395 C85.5244229,5.74455704 87.7062142,3.60144459 90.3870637,3.60144459 Z M48.5775716,3.75783231 C49.2406187,3.75783231 49.7786796,4.28570253 49.7786796,4.9374873 L49.7786796,4.9374873 L49.7786796,11.8383964 C49.7786796,12.4896008 49.2406187,13.0180514 48.5775716,13.0180514 C47.914229,13.0180514 47.3761681,12.4896008 47.3761681,11.8383964 L47.3761681,11.8383964 L47.3761681,4.9374873 C47.3761681,4.28570253 47.914229,3.75783231 48.5775716,3.75783231 Z M73.0344949,3.75783231 C73.698133,3.75783231 74.235603,4.28570253 74.235603,4.9374873 L74.235603,4.9374873 L74.235603,11.8383964 C74.235603,12.4896008 73.698133,13.0180514 73.0344949,13.0180514 C72.3711524,13.0180514 71.8330914,12.4896008 71.8330914,11.8383964 L71.8330914,11.8383964 L71.8330914,4.9374873 C71.8330914,4.28570253 72.3711524,3.75783231 73.0344949,3.75783231 Z M68.8407516,3.75774525 C69.1267719,3.74787852 69.4172244,3.8390007 69.6536048,4.03343338 C70.1621182,4.45247933 70.2280092,5.19654708 69.8019335,5.69626808 L69.8019335,5.69626808 L65.5621551,10.6583642 L68.8818227,10.6583642 C69.5451653,10.6583642 70.0832262,11.1868148 70.0832262,11.8383094 C70.0832262,12.4895137 69.5451653,13.0179643 68.8818227,13.0179643 L68.8818227,13.0179643 L62.9856085,13.0179643 C62.7125891,13.0179643 62.4386833,12.928003 62.2132355,12.7422762 C61.7050175,12.3235205 61.639422,11.5791625 62.0654977,11.0803121 L62.0654977,11.0803121 L66.305867,6.11705523 L63.5325337,6.11705523 C62.8697821,6.11705523 62.3317211,5.58918501 62.3317211,4.93769044 C62.3317211,4.28590566 62.8697821,3.75774525 63.5325337,3.75774525 L63.5325337,3.75774525 Z M90.3870637,5.96133496 C89.030831,5.96133496 87.926639,7.0452246 87.926639,8.37781395 C87.926639,9.7098229 89.030831,10.7940027 90.3870637,10.7940027 C91.7435919,10.7940027 92.847193,9.7098229 92.847193,8.37781395 C92.847193,7.0452246 91.7435919,5.96133496 90.3870637,5.96133496 Z M48.5775716,-1.98285832e-13 C49.3100554,-1.98285832e-13 49.9048476,0.584168632 49.9048476,1.30414994 C49.9048476,2.02442145 49.3100554,2.60829988 48.5775716,2.60829988 C47.8439058,2.60829988 47.25,2.02442145 47.25,1.30414994 C47.25,0.584168632 47.8439058,-1.98285832e-13 48.5775716,-1.98285832e-13 Z M73.0344949,-1.98285832e-13 C73.7675697,-1.98285832e-13 74.361771,0.584168632 74.361771,1.30414994 C74.361771,2.02442145 73.7675697,2.60829988 73.0344949,2.60829988 C72.3011247,2.60829988 71.7069234,2.02442145 71.7069234,1.30414994 C71.7069234,0.584168632 72.3011247,-1.98285832e-13 73.0344949,-1.98285832e-13 Z" id="Combined-Shape" fill="#1E64FF"></path>
                        <path d="M65.5051365,20.1327809 C67.5374634,20.1327809 69.5463018,21.8438042 69.5463018,24.3168241 C69.5463018,26.7898439 67.5374634,28.5 65.5051365,28.5 C63.4730961,28.5 61.4642576,26.7898439 61.4642576,24.3168241 C61.4642576,21.8438042 63.4730961,20.1327809 65.5051365,20.1327809 Z M75.65517,20.0508287 C75.9917428,20.0508287 76.282198,20.3323858 76.282198,20.6720466 L76.282198,27.8673637 C76.282198,28.2076026 75.9917428,28.4885816 75.65517,28.4885816 C75.3183108,28.4885816 75.0395998,28.2076026 75.0395998,27.8673637 L75.0395998,27.2345828 C74.9585359,27.761852 74.2381269,28.4998555 73.1350274,28.4998555 C71.8463115,28.4998555 70.3020868,27.4921468 70.3020868,25.3717961 C70.3020868,23.2852669 71.8577693,22.2541434 73.1350274,22.2541434 C73.9943622,22.2541434 74.7376868,22.699894 75.0395998,23.3789266 L75.0395998,22.9103392 C75.0395998,22.8753613 75.0395998,22.8282424 75.0513441,22.7932646 L75.0513441,20.6720466 C75.0513441,20.3323858 75.3303414,20.0508287 75.65517,20.0508287 Z M47.7492735,22.2896994 C48.004496,22.2896994 48.2250586,22.5122856 48.2250586,22.7819907 L48.2250586,27.9844382 C48.2250586,28.2662844 48.004496,28.4885816 47.7492735,28.4885816 C47.4823069,28.4885816 47.2614578,28.2662844 47.2614578,27.9844382 L47.2614578,22.7819907 C47.2614578,22.5122856 47.4823069,22.2896994 47.7492735,22.2896994 Z M50.0019339,20.0508865 C50.2577292,20.0508865 50.4782918,20.2740509 50.4782918,20.531615 L50.4782918,27.984496 C50.4782918,28.2423492 50.2577292,28.4764984 50.0019339,28.4764984 C49.7346808,28.4764984 49.5144046,28.2423492 49.5144046,27.984496 L49.5144046,20.531615 C49.5144046,20.2740509 49.7346808,20.0508865 50.0019339,20.0508865 Z M54.4964843,22.2542012 C55.8201464,22.2542012 57.4104887,23.3090287 57.4104887,25.2076604 C57.4104887,25.58201 57.1899261,25.7583446 56.7954914,25.7583446 L52.5223057,25.7349297 C52.6265717,27.0473213 53.6254052,27.6682501 54.6239523,27.6682501 C55.1578857,27.6682501 55.5875531,27.5159087 55.97053,27.2224995 C56.144975,27.105714 56.2495274,27.0473213 56.3769954,27.0473213 C56.5981309,27.0473213 56.7370567,27.1996627 56.7370567,27.410397 C56.7370567,27.5393236 56.6791948,27.6682501 56.4815478,27.8440066 C56.0172205,28.2539121 55.3326171,28.4764984 54.6004638,28.4764984 C53.114101,28.4764984 51.5237586,27.4922047 51.5237586,25.3831278 C51.5237586,23.2740509 53.1725357,22.2542012 54.4964843,22.2542012 Z M80.3354227,22.2541434 C81.6590848,22.2541434 83.25,23.3089709 83.25,25.1720466 C83.25,25.6527751 82.9827469,25.8403835 82.4834733,25.8403835 L78.5935509,25.8282424 C78.7210189,26.9180478 79.568896,27.4574581 80.4978369,27.4574581 C80.9741949,27.4574581 81.2993099,27.3403835 81.6590848,27.1177973 C81.8564453,27.0122856 81.9841998,26.9301889 82.1466141,26.9301889 C82.4138672,26.9301889 82.5765679,27.1177973 82.5765679,27.3753613 C82.5765679,27.5279919 82.5184196,27.6918963 82.2629107,27.9023415 C81.8217855,28.2662844 81.1827268,28.4764405 80.4511464,28.4764405 C78.9421544,28.4764405 77.3280372,27.5042879 77.3280372,25.38307 C77.3280372,23.2739931 79.0117606,22.2541434 80.3354227,22.2541434 Z M73.3326744,23.3202447 C72.4850838,23.3202447 71.5326543,23.9888707 71.5326543,25.3717961 C71.5326543,26.7659954 72.4850838,27.4337541 73.3326744,27.4337541 C74.1224031,27.4337541 75.0977481,26.8243881 75.0977481,25.3717961 C75.0977481,23.9067739 74.1224031,23.3202447 73.3326744,23.3202447 Z M65.5051365,21.328387 C64.0883798,21.328387 62.7764619,22.5358451 62.7764619,24.3168241 C62.7764619,26.097803 64.0883798,27.2931201 65.5051365,27.2931201 C66.9218932,27.2931201 68.2340975,26.097803 68.2340975,24.3168241 C68.2340975,22.5358451 66.933351,21.328387 65.5051365,21.328387 Z M54.4964843,23.1101465 C53.636863,23.1101465 52.6265717,23.6955194 52.5223057,25.007911 L56.47009,25.007911 C56.365824,23.6955194 55.3669905,23.1101465 54.4964843,23.1101465 Z M80.3354227,23.3323858 C79.568896,23.3323858 78.6981033,23.8246772 78.5935509,24.9378975 L82.0538059,24.9378975 C81.9495399,23.8246772 81.1136936,23.3323858 80.3354227,23.3323858 Z M47.7492735,19.9337541 C48.004496,19.9337541 48.2368028,20.1563403 48.2368028,20.4260455 C48.2368028,20.6954616 48.004496,20.9183369 47.7492735,20.9183369 C47.4823069,20.9183369 47.25,20.6954616 47.25,20.4260455 C47.25,20.1563403 47.4823069,19.9337541 47.7492735,19.9337541 Z M66.933351,18 C67.3048701,18 67.6067831,18.304683 67.6067831,18.6686259 C67.6067831,19.0317017 67.3048701,19.3363847 66.933351,19.3363847 C66.5618319,19.3363847 66.259919,19.0317017 66.259919,18.6686259 C66.259919,18.304683 66.5618319,18 66.933351,18 Z M64.0772085,18 C64.4484411,18 64.7500676,18.304683 64.7500676,18.6686259 C64.7500676,19.0317017 64.4484411,19.3363847 64.0772085,19.3363847 C63.7054029,19.3363847 63.4034899,19.0317017 63.4034899,18.6686259 C63.4034899,18.304683 63.7054029,18 64.0772085,18 Z" id="Combined-Shape" fill="#495057"></path>
                    </g>
                </g>
            </g>
        </g>
    </g>
</svg>