<?xml version="1.0" encoding="UTF-8"?>
<svg width="87px" height="50px" viewBox="0 0 87 50" version="1.1" xmlns="http://www.w3.org/2000/svg" xmlns:xlink="http://www.w3.org/1999/xlink">
    <!-- Generator: Sketch 52.5 (67469) - http://www.bohemiancoding.com/sketch -->
    <title>maestro</title>
    <desc>Created with Sketch.</desc>
    <g id="maestro" stroke="none" stroke-width="1" fill="none" fill-rule="evenodd">
        <g id="maestro-seeklogo.com" transform="translate(15.000000, 3.000000)">
            <polygon id="Path" fill="#6C6BBD" points="36.771435 31.9555682 21.1181009 31.9555682 21.1181009 3.82460913 36.771435 3.82460913"></polygon>
            <path d="M22.1116701,17.890662 C22.1116701,23.5971564 24.783497,28.6803386 28.9442221,31.9561416 C25.9015923,34.3515726 22.0616232,35.7813243 17.8883865,35.7813243 C8.00865529,35.7813243 -8.74092093e-07,27.7715305 -8.74092093e-07,17.890662 C-8.74092093e-07,8.00979336 8.00865529,-2.26130653e-07 17.8883865,-2.26130653e-07 C22.0616232,-2.26130653e-07 25.9015923,1.42975135 28.9442221,3.82518237 C24.783497,7.10098548 22.1116701,12.1841675 22.1116701,17.890662" id="Path" fill="#D32011" transform="translate(14.472111, 17.890662) scale(-1, 1) rotate(-180.000000) translate(-14.472111, -17.890662) "></path>
            <path d="M57.8894459,17.890662 C57.8894459,8.00979336 49.8807895,-2.26130653e-07 40.0010585,-2.26130653e-07 C35.8278219,-2.26130653e-07 31.9878525,1.42975135 28.9440855,3.82518237 C33.105948,7.10098548 35.7777748,12.1841675 35.7777748,17.890662 C35.7777748,23.5971564 33.105948,28.6803386 28.9440855,31.9561416 C31.9878525,34.3515726 35.8278219,35.7813243 40.0010585,35.7813243 C49.8807895,35.7813243 57.8894459,27.7715305 57.8894459,17.890662" id="Path" fill="#0099DF" transform="translate(43.416766, 17.890662) scale(-1, 1) rotate(-180.000000) translate(-43.416766, -17.890662) "></path>
            <path d="M42.0676808,43.6034413 C42.2758307,43.6034413 42.5749753,43.5636312 42.8035991,43.4737741 L42.4851182,42.5001326 C42.2667312,42.5899897 42.0483444,42.6195631 41.8390569,42.6195631 C41.1634226,42.6195631 40.8256053,42.1827895 40.8256053,41.3979614 L40.8256053,38.7340967 L39.7916801,38.7340967 L39.7916801,43.4840111 L40.8153686,43.4840111 L40.8153686,42.9073333 C41.0838024,43.3247708 41.4716665,43.6034413 42.0676808,43.6034413 Z M38.2481853,42.5399429 L36.5590992,42.5399429 L36.5590992,40.3936094 C36.5590992,39.9170255 36.7274392,39.5985446 37.2449707,39.5985446 C37.5134045,39.5985446 37.8512218,39.6884017 38.1583282,39.8669784 L38.4563352,38.983194 C38.1287551,38.7545703 37.6123611,38.6146662 37.1653505,38.6146662 C35.9426114,38.6146662 35.5160745,39.2709643 35.5160745,40.3742729 L35.5160745,42.5399429 L34.5515325,42.5399429 L34.5515325,43.4840111 L35.5160745,43.4840111 L35.5160745,44.925137 L36.5590992,44.925137 L36.5590992,43.4840111 L38.2481853,43.4840111 L38.2481853,42.5399429 Z M25.0209927,41.5264914 C25.1313237,42.2123626 25.5476236,42.6798468 26.2835419,42.6798468 C26.9489395,42.6798468 27.3766136,42.2624094 27.4858071,41.5264914 L25.0209927,41.5264914 Z M28.5595426,41.109054 C28.5493059,42.5899897 27.6348107,43.6034413 26.3028783,43.6034413 C24.9117994,43.6034413 23.9381579,42.5899897 23.9381579,41.109054 C23.9381579,39.5996821 24.9516095,38.6158036 26.3733992,38.6158036 C27.0888436,38.6158036 27.7440042,38.7943806 28.3206822,39.2812012 L27.8133874,40.0466926 C27.4164239,39.7282118 26.9091294,39.5496351 26.4325455,39.5496351 C25.7671481,39.5496351 25.1608968,39.8578792 25.0118934,40.7120902 L28.539069,40.7120902 C28.5493059,40.8417574 28.5595426,40.9702871 28.5595426,41.109054 Z M33.1001697,42.2715091 C32.8123997,42.4512233 32.2266222,42.6798468 31.6203712,42.6798468 C31.0539304,42.6798468 30.7161129,42.4705595 30.7161129,42.1225055 C30.7161129,41.8051619 31.0732666,41.7153048 31.5202771,41.6561585 L32.007098,41.5867751 C33.0410232,41.4366343 33.6666107,40.9998605 33.6666107,40.1649856 C33.6666107,39.2607276 32.871546,38.6146662 31.5009407,38.6146662 C30.7252124,38.6146662 30.009768,38.8137168 29.443327,39.2311542 L29.9301476,40.0364559 C30.2782018,39.7680221 30.7957333,39.5393981 31.5111776,39.5393981 C32.2163853,39.5393981 32.5940126,39.7475482 32.5940126,40.1160761 C32.5940126,40.3833724 32.3255788,40.5335135 31.7591378,40.6119962 L31.2723172,40.6813794 C30.2088184,40.8315204 29.6321407,41.3081043 29.6321407,42.0826952 C29.6321407,43.0267636 30.407869,43.6034413 31.6101342,43.6034413 C32.3653889,43.6034413 33.0512601,43.4339643 33.5471803,43.1063839 L33.1001697,42.2715091 Z M45.8450914,42.621838 C45.6323916,42.621838 45.4356158,42.5843028 45.2524893,42.5103696 C45.0705003,42.4352992 44.9123974,42.3306554 44.7793177,42.1964385 C44.6462383,42.0622216 44.5415945,41.9007064 44.4653867,41.7130302 C44.3891786,41.5253537 44.3516436,41.3183413 44.3516436,41.0931298 C44.3516436,40.866781 44.3891786,40.6609058 44.4653867,40.4732295 C44.5415945,40.2855533 44.6462383,40.1240379 44.7793177,39.989821 C44.9123974,39.8556041 45.0705003,39.7509603 45.2524893,39.6758899 C45.4356158,39.6008195 45.6323916,39.5644217 45.8450914,39.5644217 C46.057791,39.5644217 46.255704,39.6008195 46.4376932,39.6758899 C46.6208195,39.7509603 46.78006,39.8556041 46.9131397,39.989821 C47.0484941,40.1240379 47.1531376,40.2855533 47.2304831,40.4732295 C47.306691,40.6609058 47.3442262,40.866781 47.3442262,41.0931298 C47.3442262,41.3183413 47.306691,41.5253537 47.2304831,41.7130302 C47.1531376,41.9007064 47.0484941,42.0622216 46.9131397,42.1964385 C46.78006,42.3306554 46.6208195,42.4352992 46.4376932,42.5103696 C46.255704,42.5843028 46.057791,42.621838 45.8450914,42.621838 Z M45.8450912,43.6034413 C46.213619,43.6034413 46.5548486,43.5397453 46.8687797,43.4112155 C47.1827108,43.283823 47.4545569,43.1075214 47.6831806,42.8834472 C47.9129418,42.6593732 48.0915188,42.3943517 48.2211859,42.0895198 C48.3508531,41.7835508 48.4156868,41.4514208 48.4156868,41.0931298 C48.4156868,40.7348387 48.3508531,40.4027089 48.2211859,40.0967398 C48.0915188,39.791908 47.9129418,39.5257491 47.6831806,39.3016749 C47.4545569,39.0776009 47.1827108,38.9024365 46.8687797,38.7739067 C46.5548486,38.6465144 46.213619,38.5828182 45.8450912,38.5828182 C45.4765633,38.5828182 45.1353338,38.6465144 44.8214027,38.7739067 C44.5074716,38.9024365 44.2379004,39.0776009 44.010414,39.3016749 C43.7829277,39.5257491 43.6043508,39.791908 43.4746836,40.0967398 C43.3450165,40.4027089 43.2801828,40.7348387 43.2801828,41.0931298 C43.2801828,41.4514208 43.3450165,41.7835508 43.4746836,42.0895198 C43.6043508,42.3943517 43.7829277,42.6593732 44.010414,42.8834472 C44.2379004,43.1075214 44.5074716,43.283823 44.8214027,43.4112155 C45.1353338,43.5397453 45.4765633,43.6034413 45.8450912,43.6034413 Z M18.9835056,41.109054 C18.9835056,41.9439288 19.5306103,42.6298 20.4246315,42.6298 C21.2788427,42.6298 21.8555205,41.9735019 21.8555205,41.109054 C21.8555205,40.2446058 21.2788427,39.5894451 20.4246315,39.5894451 C19.5306103,39.5894451 18.9835056,40.2741791 18.9835056,41.109054 Z M22.8291619,41.109054 L22.8291619,43.4840111 L21.7963741,43.4840111 L21.7963741,42.9073333 C21.4676564,43.3350075 20.9717362,43.6034413 20.2961018,43.6034413 C18.9641693,43.6034413 17.9211445,42.5604166 17.9211445,41.109054 C17.9211445,39.6588286 18.9641693,38.6146662 20.2961018,38.6146662 C20.9717362,38.6146662 21.4676564,38.8831003 21.7963741,39.3107744 L21.7963741,38.7340967 L22.8291619,38.7340967 L22.8291619,41.109054 Z M17.0066495,38.7340967 L17.0066495,41.7153048 C17.0066495,42.8379499 16.2912049,43.5932046 15.1389867,43.6034413 C14.5327356,43.6136784 13.9060108,43.4248645 13.4692371,42.7583297 C13.1416567,43.2849607 12.6241254,43.6034413 11.898444,43.6034413 C11.3922869,43.6034413 10.8952293,43.4544379 10.5073651,42.8982338 L10.5073651,43.4840111 L9.47457719,43.4840111 L9.47457719,38.7340967 L10.517602,38.7340967 L10.517602,41.3672509 C10.517602,42.1918887 10.9748495,42.6298 11.6800571,42.6298 C12.3659284,42.6298 12.7139825,42.1827895 12.7139825,41.3774876 L12.7139825,38.7340967 L13.7570073,38.7340967 L13.7570073,41.3672509 C13.7570073,42.1918887 14.2347286,42.6298 14.9194625,42.6298 C15.6258075,42.6298 15.9636247,42.1827895 15.9636247,41.3774876 L15.9636247,38.7340967 L17.0066495,38.7340967 Z" id="Shape" fill="#110F0D" fill-rule="nonzero" transform="translate(28.945132, 41.753978) scale(-1, 1) rotate(-180.000000) translate(-28.945132, -41.753978) "></path>
        </g>
    </g>
</svg>