<?xml version="1.0" encoding="UTF-8"?>
<svg width="87px" height="50px" viewBox="0 0 87 50" version="1.1" xmlns="http://www.w3.org/2000/svg" xmlns:xlink="http://www.w3.org/1999/xlink">
    <!-- Generator: Sketch 52.5 (67469) - http://www.bohemiancoding.com/sketch -->
    <title>visa-electron</title>
    <desc>Created with Sketch.</desc>
    <g id="visa-electron" stroke="none" stroke-width="1" fill="none" fill-rule="evenodd">
        <g id="visa-electron-seeklogo.com" transform="translate(10.000000, 14.000000)" fill="#1A1F71" fill-rule="nonzero">
            <path d="M25.5780279,0.384124226 L16.7582259,21.425787 L11.0036751,21.425787 L6.66302832,4.63271884 C6.40020647,3.60078826 6.17136653,3.22096553 5.37042663,2.78479311 C4.06147924,2.07375464 1.89997392,1.40874226 0,0.994937668 L0.128184793,0.384124226 L9.39233205,0.384124226 C10.5713741,0.384124226 11.632985,1.16914854 11.9026893,2.52842353 L14.1962507,14.7055487 L19.8583192,0.384124226 L25.5780279,0.384124226 Z M33.3572963,0.384124226 L28.8562034,21.425787 L23.4122211,21.425787 L27.9133139,0.384124226 L33.3572963,0.384124226 Z M48.1243566,14.5558563 C48.1471545,9.00347616 40.4470337,8.69548853 40.4973613,6.21438153 C40.5158579,5.46032803 41.2342089,4.65723739 42.8068384,4.45205571 C43.5858405,4.35140055 45.7378826,4.27096242 48.1755445,5.39408489 L49.1291876,0.929554821 C47.8193797,0.455959329 46.1340508,0 44.0374982,0 C38.6558876,0 34.870135,2.85834882 34.8400245,6.95467021 C34.8047521,9.984649 37.5439492,11.6734191 39.6039389,12.6825518 C41.7258705,13.7131918 42.4373392,14.3756234 42.4274458,15.2965751 C42.4123905,16.7083286 40.7330837,17.333337 39.1716382,17.356565 C36.4337313,17.4000103 34.8464766,16.6167064 33.5805445,16.0269704 L32.5924892,20.6394722 C33.8661642,21.2231862 36.2134942,21.7303334 38.6447039,21.7561424 C44.3657032,21.7561424 48.1075808,18.930485 48.1243566,14.5558563 Z M62.3352324,21.425787 L67.3684211,21.425787 L62.9709945,0.384124226 L58.3270918,0.384124226 C57.2796758,0.384124226 56.3995882,0.991926616 56.0090118,1.92664324 L47.8404574,21.425787 L53.557155,21.425787 L54.6910311,18.2826787 L61.6753818,18.2826787 L62.3352324,21.425787 Z M56.2584989,13.970852 L59.1250205,6.06899074 L60.7716361,13.970852 L56.2584989,13.970852 Z M40.3243118,27.217675 L38.1124789,27.217675 L38.1124789,29.2763742 L40.5867037,29.2763742 L40.5867037,29.8953605 L37.3670284,29.8953605 L37.3670284,24.1838247 L40.4598092,24.1838247 L40.4598092,24.8028111 L38.1124789,24.8028111 L38.1124789,26.6072916 L40.3243118,26.6072916 L40.3243118,27.217675 Z M41.7293976,23.8791063 L42.4748484,23.8791063 L42.4748484,29.8951884 L41.7293976,29.8951884 L41.7293976,23.8791063 Z M44.3553363,27.9800303 C44.3721121,28.9887326 45.0078745,29.4038276 45.7614976,29.4038276 C46.2957445,29.4038276 46.6261,29.310485 46.8975247,29.1921937 L47.0330221,29.7260103 C46.7702003,29.8443016 46.3129505,29.9884021 45.6599824,29.9884021 C44.3979213,29.9884021 43.6438679,29.1496089 43.6438679,27.9124966 C43.6438679,26.6753842 44.3721121,25.7092668 45.5670697,25.7092668 C46.9143005,25.7092668 47.2618621,26.8788455 47.2618621,27.6328989 C47.2618621,27.7851721 47.2532592,27.8952905 47.2360532,27.9800303 L44.3553363,27.9800303 Z M46.5413603,27.4462137 C46.5499632,26.9803611 46.3465021,26.2430833 45.5077089,26.2430833 C44.7450526,26.2430833 44.42287,26.9296032 44.3635092,27.4462137 L46.5413603,27.4462137 Z M51.3187816,29.7511311 C51.1239234,29.8444737 50.6916224,29.9885739 50.14103,29.9885739 C48.9039179,29.9885739 48.0991066,29.1497811 48.0991066,27.8954626 C48.0991066,26.6329716 48.9628484,25.7094388 50.3019063,25.7094388 C50.7423803,25.7094388 51.1320963,25.8191272 51.3355576,25.9296758 L51.1665084,26.4974742 C50.9879961,26.4041316 50.7083984,26.3021859 50.3019063,26.3021859 C49.3611676,26.3021859 48.8531603,27.0054816 48.8531603,27.8533079 C48.8531603,28.8022195 49.4631134,29.3867937 50.2765274,29.3867937 C50.7002255,29.3867937 50.9798234,29.2852784 51.1914571,29.1919358 L51.3187816,29.7511311 Z M53.4103016,24.8111129 L53.4103016,25.7940064 L54.4775045,25.7940064 L54.4775045,26.3613747 L53.4103016,26.3613747 L53.4103016,28.5732074 C53.4103016,29.0820755 53.5544021,29.3698458 53.9694971,29.3698458 C54.1725279,29.3698458 54.2916797,29.35307 54.4017982,29.3186579 L54.43578,29.8868866 C54.2916797,29.9376442 54.0628397,29.9884021 53.7746389,29.9884021 C53.4270774,29.9884021 53.1474797,29.8696805 52.9698276,29.6752526 C52.7663666,29.4459826 52.6816271,29.0820755 52.6816271,28.5990166 L52.6816271,26.3613747 L52.0458647,26.3613747 L52.0458647,25.7940064 L52.6816271,25.7940064 L52.6816271,25.0313499 L53.4103016,24.8111129 Z M55.5190705,27.0736174 C55.5190705,26.5905587 55.5100374,26.1754637 55.4850887,25.7939204 L56.1376266,25.7939204 L56.1716084,26.6073347 L56.1965574,26.6073347 C56.3832424,26.0567422 56.8404924,25.7091808 57.3403268,25.7091808 C57.4168937,25.7091808 57.4762545,25.7177838 57.5442182,25.7259566 L57.5442182,26.4296826 C57.4676513,26.4124766 57.391945,26.4124766 57.2895692,26.4124766 C56.7647858,26.4124766 56.3914153,26.8021926 56.2898997,27.3618182 C56.2731239,27.4633337 56.2645211,27.5902279 56.2645211,27.7093797 L56.2645211,29.8954037 L55.5190705,29.8954037 L55.5190705,27.0736174 Z M62.1271684,27.81068 C62.1271684,29.32739 61.0677082,29.9885311 60.0848147,29.9885311 C58.9832,29.9885311 58.1194582,29.1746868 58.1194582,27.8786437 C58.1194582,26.5142071 59.0257847,25.7093958 60.1527787,25.7093958 C61.33053,25.7093958 62.1271684,26.5649647 62.1271684,27.81068 Z M58.8816845,27.853265 C58.8816845,28.7514189 59.3901221,29.4293355 60.1187966,29.4293355 C60.8306955,29.4293355 61.3640821,28.7595918 61.3640821,27.8360589 C61.3640821,27.1413663 61.0169505,26.2681611 60.1355726,26.2681611 C59.2632279,26.2681611 58.8816845,27.0820055 58.8816845,27.853265 Z M63.2697339,26.9038803 C63.2697339,26.4720095 63.2607005,26.1330509 63.2357521,25.7940924 L63.8964626,25.7940924 L63.9390476,26.4720095 L63.9558234,26.4720095 C64.1592847,26.0904661 64.6337405,25.7093528 65.3116574,25.7093528 C65.8790255,25.7093528 66.7604037,26.0483113 66.7604037,27.4544726 L66.7604037,29.8951455 L66.0149532,29.8951455 L66.0149532,27.5310395 C66.0149532,26.8703287 65.7693374,26.3193061 65.0660416,26.3193061 C64.5829829,26.3193061 64.2014395,26.6668674 64.0663721,27.0819626 C64.0319603,27.1753053 64.0151842,27.3021995 64.0151842,27.4295239 L64.0151842,29.8951455 L63.2697339,29.8951455 L63.2697339,26.9038803 Z" id="Shape"></path>
        </g>
    </g>
</svg>