<?xml version="1.0" encoding="UTF-8"?>
<svg width="568px" height="33px" viewBox="0 0 568 33" version="1.1" xmlns="http://www.w3.org/2000/svg" xmlns:xlink="http://www.w3.org/1999/xlink">
    <title>logo-band</title>
    <defs>
        <radialGradient cx="17.5632448%" cy="17.5027381%" fx="17.5632448%" fy="17.5027381%" r="134.355667%" gradientTransform="translate(0.175632,0.175027),scale(0.694444,1.000000),translate(-0.175632,-0.175027)" id="radialGradient-1">
            <stop stop-color="#9DD5F6" offset="0%"></stop>
            <stop stop-color="#98D3F5" offset="7.11%"></stop>
            <stop stop-color="#89CEF3" offset="15.75%"></stop>
            <stop stop-color="#70C6EF" offset="25.16%"></stop>
            <stop stop-color="#4EBBEA" offset="35.14%"></stop>
            <stop stop-color="#23ADE3" offset="45.46%"></stop>
            <stop stop-color="#0DA6E0" offset="50%"></stop>
            <stop stop-color="#2E77BC" offset="100%"></stop>
        </radialGradient>
        <linearGradient x1="-0.000322580643%" y1="49.995%" x2="99.9996774%" y2="49.995%" id="linearGradient-2">
            <stop stop-color="#1D1C45" offset="0%"></stop>
            <stop stop-color="#174489" offset="100%"></stop>
        </linearGradient>
    </defs>
    <g id="👉Method-View" stroke="none" stroke-width="1" fill="none" fill-rule="evenodd">
        <g id="PWI_Method_02_PaymentOptions-Copy-10" transform="translate(-676.000000, -1011.000000)">
            <g id="Group-3" transform="translate(0.000000, 812.000000)">
                <g id="logo-band" transform="translate(676.000000, 199.000000)">
                    <g id="Troy-Logo" transform="translate(509.000000, 5.000000)">
                        <g id="Group_1_" transform="translate(1.437077, 22.724340)" fill="#323E48">
                            <path d="M0.8,0.7 L0.4,0.7 C0.4,0.7 0.3,0.7 0.3,0.8 L0.3,0.9 L0.1,0.9 L0.1,0.7 C0.1,0.6 0.2,0.5 0.3,0.5 L1.6,0.5 C1.7,0.5 1.8,0.5 1.7,0.7 L1.7,0.9 L1.5,0.9 L1.5,0.8 C1.5,0.8 1.5,0.7 1.5,0.7 L1,0.7 L0.6,2.5 L0.4,2.5 L0.8,0.7 Z" id="Path_6_"></path>
                            <path d="M1.8,1.3 C1.8,1.3 1.7,1.2 1.8,1.3 L1.6,1.2 L1.6,1 L1.8,1 C1.9,1 2,1 1.9,1.2 L1.8,1.9 C1.8,2.1 1.8,2.3 2,2.3 C2.3,2.3 2.6,2 2.6,1.7 L2.7,1 L3,1 L2.7,2.2 C2.7,2.2 2.7,2.3 2.7,2.3 L2.8,2.3 L2.8,2.5 L2.7,2.5 C2.6,2.5 2.5,2.4 2.6,2.3 L2.6,2.2 C2.6,2.1 2.6,2.1 2.6,2.1 L2.6,2.1 C2.5,2.3 2.3,2.5 2,2.5 C1.6,2.5 1.5,2.3 1.6,2 L1.8,1.3 Z M2.2,0.5 L2.4,0.5 L2.3,0.8 L2.2,0.8 L2.2,0.5 Z M2.6,0.5 L2.8,0.5 L2.8,0.8 L2.6,0.8 L2.6,0.5 Z" id="Shape_5_" fill-rule="nonzero"></path>
                            <path d="M3.4,1.3 C3.4,1.3 3.4,1.2 3.4,1.3 L3.3,1.2 L3.3,1 L3.5,1 C3.6,1 3.7,1 3.6,1.2 L3.6,1.3 C3.6,1.4 3.6,1.4 3.6,1.4 L3.6,1.4 C3.7,1.2 3.9,1 4.1,1 C4.1,1 4.2,1 4.2,1 L4.2,1.2 C4.2,1.2 4.2,1.2 4.1,1.2 C3.9,1.2 3.7,1.4 3.6,1.6 C3.6,1.7 3.5,1.8 3.5,1.9 L3.4,2.5 L3.2,2.5 L3.4,1.3 Z" id="Path_7_"></path>
                            <path d="M4.5,0.8 C4.5,0.7 4.5,0.7 4.5,0.8 L4.3,0.7 L4.3,0.5 L4.5,0.5 C4.6,0.5 4.7,0.5 4.6,0.7 L4.5,1.6 L4.6,1.6 C4.7,1.6 4.7,1.6 4.8,1.5 L5.3,1 L5.5,1 L5,1.6 C4.9,1.7 4.9,1.7 4.9,1.7 L4.9,1.7 C4.9,1.7 4.9,1.7 5,1.8 L5.1,2.3 C5.1,2.3 5.1,2.4 5.2,2.4 L5.3,2.4 L5.3,2.6 L5.1,2.6 C5,2.6 4.9,2.6 4.9,2.5 L4.7,1.8 C4.7,1.7 4.6,1.7 4.6,1.7 L4.5,1.7 L4.3,2.5 L4.1,2.5 L4.5,0.8 Z" id="Path_8_"></path>
                            <path d="M6.1,1.3 C6.1,1.3 6.1,1.2 6,1.2 L5.7,1.2 L5.8,1 L6.3,1 C6.6,1 6.7,1 6.6,1.2 L6,2.2 C6,2.2 6,2.3 6.1,2.3 L6.4,2.3 L6.3,2.5 L5.9,2.5 C5.6,2.5 5.5,2.4 5.6,2.3 L6.1,1.3 Z M6.5,0.5 L6.9,0.5 L6.8,0.8 L6.4,0.8 L6.5,0.5 Z" id="Shape_6_" fill-rule="nonzero"></path>
                            <path d="M6.2,2.9 C6.3,2.9 6.4,2.8 6.5,2.7 L6.6,2.5 L6.4,1.3 C6.4,1.3 6.4,1.2 6.3,1.2 L6.3,1.2 L6.3,1 L6.4,1 C6.5,1 6.6,1 6.6,1.1 L6.8,2 C6.8,2.1 6.8,2.2 6.8,2.2 L6.8,2.2 C6.8,2.2 6.8,2.1 6.9,2 L7.4,1.1 C7.5,1 7.5,1 7.6,1 L7.7,1 L7.7,1.2 L7.7,1.2 C7.7,1.2 7.6,1.2 7.6,1.3 L6.6,2.8 C6.5,2.9 6.3,3 6.1,3 C5.9,3 5.9,2.9 5.9,2.9 L6,2.8 C6,2.8 6,2.9 6.2,2.9" id="Path_9_"></path>
                            <path d="M8.5,1 C8.9,1 9.1,1.3 9,1.7 C9,1.7 9,1.8 9,1.8 L7.9,1.8 C7.8,2.1 8,2.3 8.3,2.3 C8.6,2.3 8.8,2.1 8.8,2.1 L8.9,2.2 C8.9,2.2 8.7,2.4 8.3,2.4 C7.9,2.4 7.6,2.1 7.7,1.7 C7.8,1.3 8.1,1 8.5,1 Z M8.8,1.6 C8.9,1.3 8.7,1.2 8.5,1.2 C8.3,1.2 8,1.4 7.9,1.6 L8.8,1.6 Z" id="Shape_7_" fill-rule="nonzero"></path>
                            <polygon id="Path_10_" points="9.5 0.5 9.7 0.5 9.5 1 9.3 1"></polygon>
                            <path d="M9.9,1.3 C9.9,1.3 9.9,1.2 9.9,1.3 L9.8,1.2 L9.8,1 L10,1 C10.1,1 10.2,1 10.1,1.2 L10.1,1.3 C10.1,1.4 10.1,1.4 10.1,1.4 L10.1,1.4 C10.2,1.3 10.4,1 10.7,1 C11.1,1 11.1,1.2 11.1,1.5 L11,2.2 C11,2.2 11,2.3 11,2.3 L11.1,2.3 L11.1,2.5 L10.9,2.5 C10.8,2.5 10.7,2.4 10.8,2.3 L10.9,1.6 C10.9,1.4 11,1.2 10.7,1.2 C10.5,1.2 10.2,1.4 10.1,1.6 C10.1,1.7 10.1,1.7 10,1.8 L9.9,2.5 L9.7,2.5 L9.9,1.3 Z" id="Path_11_"></path>
                            <path d="M11.9,1.3 C11.9,1.3 11.9,1.2 11.8,1.2 L11.5,1.2 L11.6,1 L12.1,1 C12.4,1 12.5,1 12.4,1.2 L11.9,2.2 C11.9,2.2 11.9,2.3 12,2.3 L12.3,2.3 L12.2,2.5 L11.7,2.5 C11.4,2.5 11.3,2.4 11.4,2.3 L11.9,1.3 Z M12.3,0.5 L12.7,0.5 L12.6,0.7 L12.2,0.7 L12.3,0.5 Z" id="Shape_8_" fill-rule="nonzero"></path>
                            <path d="M12.3,1.3 C12.3,1.3 12.3,1.2 12.3,1.3 L12.1,1.2 L12.1,1 L12.3,1 C12.4,1 12.5,1 12.4,1.2 L12.4,1.3 C12.4,1.4 12.4,1.4 12.4,1.4 L12.4,1.4 C12.5,1.3 12.8,1 13.1,1 C13.4,1 13.5,1.2 13.4,1.5 L13.3,2.2 C13.3,2.2 13.3,2.3 13.3,2.3 L13.4,2.3 L13.4,2.5 L13.2,2.5 C13.1,2.5 13,2.4 13.1,2.3 L13.2,1.6 C13.2,1.4 13.3,1.2 13,1.2 C12.8,1.2 12.5,1.4 12.4,1.6 C12.4,1.7 12.4,1.7 12.3,1.8 L12.1,2.5 L12,2.5 L12.3,1.3 Z" id="Path_12_"></path>
                            <path d="M15.8,0.5 C16.4,0.5 16.7,0.9 16.6,1.5 C16.5,2.1 15.9,2.5 15.4,2.5 C14.8,2.5 14.5,2.1 14.6,1.5 C14.7,0.9 15.2,0.5 15.8,0.5 Z M15.3,2.3 C15.7,2.3 16.2,1.9 16.3,1.5 C16.4,1 16.1,0.7 15.7,0.7 C15.3,0.7 14.8,1.1 14.7,1.5 C14.6,2 14.9,2.3 15.3,2.3 Z M15.6,0.1 L15.8,0.1 L15.7,0.3 L15.5,0.3 L15.6,0.1 Z M16,0.1 L16.2,0.1 L16.1,0.3 L15.9,0.3 L16,0.1 Z" id="Shape_9_" fill-rule="nonzero"></path>
                            <path d="M17.5,1 C17.8,1 17.9,1.3 17.9,1.3 L17.9,1.3 C17.9,1.3 17.9,1.3 17.9,1.2 L18,0.7 C18,0.7 18,0.6 18,0.6 L17.9,0.6 L17.9,0.4 L18.1,0.4 C18.2,0.4 18.3,0.4 18.2,0.6 L17.9,2.1 C17.9,2.1 17.9,2.2 17.9,2.2 L18,2.2 L18,2.4 L17.8,2.4 C17.7,2.4 17.6,2.3 17.7,2.2 C17.7,2.1 17.7,2.1 17.7,2.1 L17.7,2.1 C17.7,2.1 17.5,2.4 17.2,2.4 C16.8,2.4 16.7,2.1 16.8,1.7 C16.8,1.3 17.1,1 17.5,1 M17.8,1.8 C17.9,1.5 17.8,1.2 17.5,1.2 C17.3,1.2 17,1.4 16.9,1.8 C16.8,2.1 17,2.4 17.2,2.4 C17.4,2.3 17.7,2.2 17.8,1.8" id="Shape_10_" fill-rule="nonzero"></path>
                            <path d="M19.2,1 C19.6,1 19.7,1.3 19.7,1.6 C19.7,1.6 19.7,1.7 19.7,1.7 L18.6,1.7 C18.5,2 18.7,2.3 19,2.3 C19.3,2.3 19.5,2.1 19.5,2.1 L19.6,2.2 C19.6,2.2 19.3,2.4 19,2.4 C18.6,2.4 18.3,2.1 18.4,1.7 C18.4,1.3 18.8,1 19.2,1 Z M19.4,1.6 C19.5,1.3 19.3,1.2 19.1,1.2 C18.9,1.2 18.6,1.3 18.5,1.6 L19.4,1.6 Z" id="Shape_11_" fill-rule="nonzero"></path>
                            <path d="M20,1.3 C20.1,1.3 20,1.2 20,1.3 L19.8,1.2 L19.8,1 L20,1 C20.1,1 20.2,1 20.1,1.2 L20.1,1.3 C20.1,1.4 20.1,1.4 20.1,1.4 L20.1,1.4 C20.3,1.2 20.6,1 20.8,1 C21.1,1 21.2,1.1 21.2,1.3 L21.2,1.3 C21.3,1.2 21.5,1 21.8,1 C22.1,1 22.2,1.2 22.1,1.5 L22,2.2 C22,2.2 22,2.3 22,2.3 L22.1,2.3 L22.1,2.5 L21.9,2.5 C21.8,2.5 21.7,2.4 21.8,2.3 L22,1.6 C22.1,1.4 22,1.2 21.8,1.2 C21.6,1.2 21.4,1.4 21.3,1.6 C21.3,1.7 21.2,1.7 21.2,1.8 L21.1,2.5 L20.9,2.5 L21.1,1.7 C21.1,1.5 21.2,1.3 20.9,1.3 C20.7,1.3 20.5,1.5 20.4,1.7 C20.4,1.8 20.3,1.8 20.3,1.9 L20,2.5 L19.8,2.5 L20,1.3 Z" id="Path_13_"></path>
                            <path d="M23.3,1 C23.7,1 23.8,1.3 23.8,1.6 C23.8,1.6 23.8,1.7 23.8,1.7 L22.7,1.7 C22.6,2 22.8,2.3 23.1,2.3 C23.4,2.3 23.6,2.1 23.6,2.1 L23.7,2.2 C23.7,2.2 23.4,2.4 23.1,2.4 C22.7,2.4 22.4,2.1 22.5,1.7 C22.5,1.3 22.9,1 23.3,1 Z M23.5,1.6 C23.6,1.3 23.4,1.2 23.2,1.2 C23,1.2 22.7,1.3 22.6,1.6 L23.5,1.6 Z" id="Shape_12_" fill-rule="nonzero"></path>
                            <path d="M25.2,1.6 L24.9,0.7 C24.9,0.6 24.8,0.6 24.8,0.6 L24.8,0.6 L24.8,0.4 L24.9,0.4 C25,0.4 25.1,0.4 25.1,0.6 L25.3,1.1 C25.3,1.2 25.4,1.3 25.4,1.3 L25.4,1.3 C25.4,1.3 25.5,1.2 25.6,1.1 L26,0.7 C26.1,0.6 26.2,0.5 26.3,0.5 L26.4,0.5 L26.4,0.7 L26.4,0.7 C26.3,0.7 26.3,0.7 26.3,0.8 L25.6,1.7 L25.4,2.5 L25,2.5 L25.2,1.6 Z" id="Path_14_"></path>
                            <path d="M26.9,1 C27.3,1 27.6,1.3 27.5,1.7 C27.4,2.1 27,2.4 26.6,2.4 C26.2,2.4 25.9,2.1 26,1.7 C26.1,1.4 26.5,1 26.9,1 Z M26.6,2.3 C26.9,2.3 27.2,2.1 27.3,1.7 C27.4,1.4 27.2,1.2 26.9,1.2 C26.6,1.2 26.3,1.4 26.2,1.7 C26.1,2.1 26.3,2.3 26.6,2.3 Z M26.7,0.5 L26.9,0.5 L26.8,0.7 L26.6,0.7 L26.7,0.5 Z M27.1,0.5 L27.3,0.5 L27.3,0.7 L27.1,0.7 L27.1,0.5 Z" id="Shape_13_" fill-rule="nonzero"></path>
                            <path d="M27.9,1.3 C27.9,1.3 27.9,1.2 27.9,1.3 L27.7,1.2 L27.7,1 L28,1 C28.1,1 28.2,1 28.1,1.2 L28.1,1.3 C28.1,1.4 28.1,1.4 28.1,1.4 L28.1,1.4 C28.2,1.3 28.4,1 28.7,1 C29,1 29.1,1.2 29,1.5 L28.9,2.2 C28.9,2.2 28.9,2.3 29,2.3 L29.1,2.3 L29.1,2.5 L28.9,2.5 C28.8,2.5 28.7,2.4 28.8,2.3 L28.9,1.6 C28.9,1.4 29,1.2 28.7,1.2 C28.5,1.2 28.2,1.4 28.1,1.6 C28,1.7 28,1.7 28,1.8 L27.9,2.5 L27.7,2.5 L27.9,1.3 Z" id="Path_15_"></path>
                            <path d="M29.6,1.2 L29.4,1.2 L29.4,1 L29.6,1 L29.7,0.6 L29.9,0.6 L29.8,1 L30.2,1 L30.2,1.2 L29.8,1.2 L29.6,1.9 C29.5,2.2 29.7,2.3 29.8,2.3 C29.8,2.3 29.9,2.3 29.9,2.3 L29.9,2.5 C29.9,2.5 29.9,2.5 29.8,2.5 C29.6,2.5 29.3,2.4 29.4,2 L29.6,1.2 Z" id="Path_16_"></path>
                            <path d="M31.1,1 C31.5,1 31.6,1.3 31.6,1.6 C31.6,1.6 31.6,1.7 31.6,1.7 L30.5,1.7 C30.4,2 30.6,2.3 30.9,2.3 C31.2,2.3 31.4,2.1 31.4,2.1 L31.5,2.2 C31.5,2.2 31.3,2.4 30.9,2.4 C30.5,2.4 30.2,2.1 30.3,1.7 C30.3,1.3 30.7,1 31.1,1 Z M31.4,1.6 C31.5,1.3 31.3,1.2 31.1,1.2 C30.9,1.2 30.6,1.3 30.5,1.6 L31.4,1.6 Z" id="Shape_14_" fill-rule="nonzero"></path>
                            <path d="M32,1.3 C32,1.3 32,1.2 32,1.3 L31.8,1.2 L31.8,1 L32,1 C32.1,1 32.2,1 32.1,1.2 L32.1,1.3 C32.1,1.4 32.1,1.4 32.1,1.4 L32.1,1.4 C32.3,1.2 32.5,1 32.7,1 C33,1 33.1,1.1 33.1,1.3 L33.1,1.3 C33.2,1.2 33.5,1 33.7,1 C34,1 34.1,1.2 34,1.6 L33.9,2.3 C33.9,2.3 33.9,2.4 33.9,2.4 L34,2.4 L34,2.6 L33.8,2.6 C33.7,2.6 33.6,2.5 33.7,2.4 L33.8,1.7 C33.9,1.5 33.8,1.3 33.6,1.3 C33.4,1.3 33.2,1.5 33.1,1.7 C33.1,1.8 33,1.8 33,1.9 L32.9,2.6 L32.7,2.6 L32.9,1.8 C32.9,1.6 33,1.4 32.7,1.4 C32.5,1.4 32.3,1.6 32.2,1.8 C32.2,1.9 32.2,1.9 32.1,2 L32,2.7 L31.8,2.7 L32,1.3 Z" id="Path_17_"></path>
                            <path d="M34.9,1.3 C34.9,1.3 34.9,1.2 34.8,1.2 L34.5,1.2 L34.6,1 L35.1,1 C35.4,1 35.5,1 35.4,1.2 L34.9,2.2 C34.9,2.2 34.9,2.3 35,2.3 L35.3,2.3 L35.2,2.5 L34.7,2.5 C34.4,2.5 34.3,2.4 34.4,2.3 L34.9,1.3 Z M35.3,0.5 L35.7,0.5 L35.6,0.7 L35.2,0.7 L35.3,0.5 Z" id="Shape_15_" fill-rule="nonzero"></path>
                        </g>
                        <g id="Group_2_">
                            <g id="Path_18_">
                                <path d="M54,4.4 C53.2,4.4 52.3,4.9 51.9,5.7 L48.1,14.4 L46.7,5.7 C46.5,4.9 46,4.4 45.1,4.4 L40.2,4.4 L44.4,18.9 C44.5,19.2 44.5,19.5 44.4,19.8 C44.2,21 43.1,22 41.9,22 L39.2,22 C38.5,22 38.1,22.4 37.8,23.4 L37.2,27 L42,27 C44.5,27 47.4,25.8 49.4,22.3 L59,4.4 L54,4.4 Z" id="Path" fill="#323E48"></path>
                                <path d="M6.8,0 C8.2,0 8.9,0.6 8.7,2 L8.3,4.3 L11.6,4.3 L10.9,8.4 L7.5,8.4 L6.6,13.5 C6.3,15.3 8,15.5 9.1,15.5 C9.3,15.5 9.5,15.5 9.6,15.5 L8.8,20 C8.6,20 8.3,20.1 7.8,20.1 C5.3,20.1 0.6,19.4 1.5,14.2 L2.5,8.4 L0,8.4 L0.7,4.3 L3.1,4.3 L3.9,0 L6.8,0 Z" id="Path" fill="#323E48"></path>
                                <g id="Group" transform="translate(24.190798, 4.196481)" fill="#00ADBB">
                                    <path d="M10.4,0.3 L9.5,5.1 C10.5,5.6 11.3,6.7 11.3,7.9 C11.3,9.5 10.1,10.9 8.5,11.1 L7.7,15.9 C7.8,15.9 8,15.9 8.2,15.9 C12.6,15.9 16.2,12.3 16.2,7.9 C16.1,4.4 13.7,1.3 10.4,0.3 Z" id="Path"></path>
                                    <path d="M6.6,10.8 C5.6,10.3 4.8,9.2 4.8,8 C4.8,6.4 6,5 7.6,4.8 L8.5,0 C8.4,0 8.2,0 8,0 C3.6,0 0,3.6 0,8 C0,11.6 2.4,14.6 5.7,15.6 L6.6,10.8 Z" id="Path"></path>
                                </g>
                                <path d="M13.5,4.4 L16.3,4.4 C17.7,4.4 18.4,5 18.2,6.4 L17.9,8.1 C19,6 21.2,4.2 23.6,4.2 C23.9,4.2 24.2,4.3 24.2,4.3 L23.3,9.5 C23.3,9.5 22.9,9.4 22.2,9.4 C20.9,9.4 18.8,9.8 17.6,12.1 C17.3,12.7 17.1,13.4 17,14.2 L16,20 L10.7,20 L13.5,4.4 Z" id="Path" fill="#323E48"></path>
                            </g>
                            <path d="M59,20.7 C59,21.2 58.8,21.6 58.5,21.9 C58.2,22.2 57.8,22.4 57.3,22.4 C56.8,22.4 56.4,22.2 56.1,21.9 C55.8,21.6 55.6,21.2 55.6,20.7 C55.6,20.2 55.8,19.8 56.1,19.5 C56.4,19.2 56.8,19 57.3,19 C57.8,19 58.2,19.2 58.5,19.5 C58.8,19.8 59,20.2 59,20.7 Z M58.7,20.7 C58.7,20.3 58.6,20 58.3,19.7 C58,19.4 57.7,19.3 57.3,19.3 C56.9,19.3 56.6,19.4 56.3,19.7 C56,20 55.9,20.3 55.9,20.7 C55.9,21.1 56,21.4 56.3,21.7 C56.6,22 56.9,22.1 57.3,22.1 C57.7,22.1 58,22 58.3,21.7 C58.6,21.4 58.7,21.1 58.7,20.7 Z M58,21.6 L57.7,21.6 L57.3,20.8 L57,20.8 L57,21.6 L56.7,21.6 L56.7,19.8 L57.3,19.8 C57.5,19.8 57.6,19.9 57.7,20 C57.8,20.1 57.9,20.2 57.9,20.4 C57.9,20.7 57.8,20.8 57.5,20.9 L58,21.6 Z M57.7,20.3 C57.7,20.2 57.7,20.1 57.6,20.1 C57.5,20.1 57.4,20 57.3,20 L57,20 L57,20.6 L57.3,20.6 C57.4,20.6 57.5,20.6 57.6,20.5 C57.6,20.5 57.7,20.4 57.7,20.3 Z" id="Shape_16_" fill="#323E48" fill-rule="nonzero"></path>
                        </g>
                    </g>
                    <g id="American_Express" transform="translate(433.000000, 0.000000)">
                        <polyline id="Path_5_" fill="url(#radialGradient-1)" points="43.2 0 0 0 0 30 43.2 30 43.2 20.1"></polyline>
                        <g id="Group" transform="translate(0.000000, 6.600000)" fill="#FFFFFF" fill-rule="nonzero">
                            <path d="M3.9,4 L3.1,2 L2.3,4 L3.9,4 Z M22,3.2 C21.8,3.3 21.6,3.3 21.4,3.3 L20,3.3 L20,2.2 L21.5,2.2 C21.7,2.2 21.9,2.2 22.1,2.3 C22.3,2.4 22.4,2.5 22.4,2.7 C22.3,2.9 22.2,3.1 22,3.2 Z M32.4,4 L31.6,2 L30.8,4 L32.4,4 Z M13,6.2 L11.8,6.2 L11.8,2.2 L10.1,6.2 L9,6.2 L7.3,2.2 L7.3,6.2 L4.8,6.2 L4.4,5.1 L1.9,5.1 L1.4,6.2 L0.1,6.2 L2.2,1.1 L4,1.1 L6,5.9 L6,1.1 L8,1.1 L9.6,4.5 L11,1.1 L13,1.1 L13,6.2 Z M17.9,6.2 L13.9,6.2 L13.9,1.1 L17.9,1.1 L17.9,2.2 L15.1,2.2 L15.1,3.1 L17.8,3.1 L17.8,4.1 L15.1,4.1 L15.1,5.1 L17.9,5.1 L17.9,6.2 Z M23.6,2.5 C23.6,3.3 23.1,3.7 22.8,3.8 C23.1,3.9 23.3,4.1 23.4,4.2 C23.6,4.5 23.6,4.7 23.6,5.1 L23.6,6.1 L22.4,6.1 L22.4,5.5 C22.4,5.2 22.4,4.8 22.2,4.5 C22,4.3 21.8,4.3 21.3,4.3 L20,4.3 L20,6.1 L18.8,6.1 L18.8,1.1 L21.6,1.1 C22.2,1.1 22.7,1.1 23.1,1.3 C23.4,1.6 23.6,1.9 23.6,2.5 Z M25.5,6.2 L24.3,6.2 L24.3,1.1 L25.5,1.1 L25.5,6.2 Z M39.7,6.2 L38,6.2 L35.7,2.4 L35.7,6.2 L33.3,6.2 L32.8,5.1 L30.3,5.1 L29.8,6.2 L28.4,6.2 C27.8,6.2 27.1,6.1 26.7,5.6 C26.3,5.2 26.1,4.6 26.1,3.7 C26.1,2.9 26.2,2.3 26.7,1.7 C27.1,1.3 27.7,1.1 28.5,1.1 L29.7,1.1 L29.7,2.2 L28.6,2.2 C28.2,2.2 27.9,2.3 27.7,2.5 C27.5,2.7 27.4,3.1 27.4,3.6 C27.4,4.1 27.5,4.5 27.7,4.8 C27.9,5 28.2,5.1 28.5,5.1 L29,5.1 L30.7,1.1 L32.5,1.1 L34.5,5.9 L34.5,1.1 L36.3,1.1 L38.4,4.6 L38.4,1.1 L39.6,1.1 L39.7,6.2 L39.7,6.2 Z M0.1,7.2 L2.1,7.2 L2.6,6.1 L3.6,6.1 L4.1,7.2 L8.1,7.2 L8.1,6.3 L8.5,7.2 L10.6,7.2 L11,6.3 L11,7.2 L21,7.2 L21,5.4 L21.2,5.4 C21.3,5.4 21.4,5.4 21.4,5.6 L21.4,7.2 L26.6,7.2 L26.6,6.8 C27,7 27.7,7.2 28.5,7.2 L30.7,7.2 L31.2,6.1 L32.2,6.1 L32.7,7.2 L36.9,7.2 L36.9,6.1 L37.5,7.2 L40.9,7.2 L40.9,0.1 L37.6,0.1 L37.6,1 L37,0.1 L33.6,0.1 L33.6,1 L33.2,0.2 L28.6,0.2 C27.8,0.2 27.1,0.3 26.6,0.6 L26.6,0.1 L23.4,0.1 L23.4,0.5 C23,0.2 22.5,0.1 22,0.1 L10.3,0.1 L9.6,1.9 L8.8,0.1 L5.1,0.1 L5.1,1 L4.7,0.1 L1.6,0.1 L0.1,3.5 L0.1,7.2 Z" id="Shape_3_"></path>
                            <path d="M42.8,10.9 L40.6,10.9 C40.4,10.9 40.2,10.9 40.1,11 C40,11.1 39.9,11.2 39.9,11.4 C39.9,11.6 40,11.7 40.2,11.8 C40.3,11.8 40.5,11.9 40.7,11.9 L41.3,11.9 C42,11.9 42.4,12 42.7,12.3 C42.7,12.3 42.8,12.4 42.8,12.4 L42.8,10.9 Z M42.8,14.3 C42.5,14.7 41.9,14.9 41.2,14.9 L38.9,14.9 L38.9,13.8 L41.2,13.8 C41.4,13.8 41.6,13.8 41.7,13.7 C41.8,13.6 41.8,13.5 41.8,13.4 C41.8,13.3 41.7,13.1 41.7,13.1 C41.6,13 41.5,13 41.3,13 C40.2,13 38.8,13 38.8,11.4 C38.8,10.7 39.3,9.9 40.5,9.9 L42.9,9.9 L42.9,8.9 L40.7,8.9 C40,8.9 39.5,9.1 39.2,9.3 L39.2,8.8 L35.9,8.8 C35.4,8.8 34.8,8.9 34.5,9.2 L34.5,8.8 L28.6,8.8 L28.6,9.2 C28.1,8.9 27.3,8.8 27,8.8 L23,8.8 L23,9.2 C22.6,8.8 21.8,8.8 21.3,8.8 L17,8.8 L16,9.9 L15.1,8.8 L8.6,8.8 L8.6,15.9 L14.9,15.9 L15.9,14.8 L16.9,15.9 L20.8,15.9 L20.8,14.2 L21.2,14.2 C21.7,14.2 22.3,14.2 22.9,14 L22.9,15.9 L26.1,15.9 L26.1,14.1 L26.3,14.1 C26.5,14.1 26.5,14.1 26.5,14.3 L26.5,15.9 L36.3,15.9 C36.9,15.9 37.6,15.7 37.9,15.4 L37.9,15.9 L41,15.9 C41.6,15.9 42.3,15.8 42.8,15.6 L42.8,14.3 L42.8,14.3 Z M38,12.2 C38.2,12.4 38.4,12.8 38.4,13.3 C38.4,14.4 37.7,14.9 36.5,14.9 L34.2,14.9 L34.2,13.8 L36.5,13.8 C36.7,13.8 36.9,13.8 37,13.7 C37.1,13.6 37.1,13.5 37.1,13.4 C37.1,13.3 37,13.1 37,13.1 C36.9,13 36.8,13 36.6,13 C35.5,13 34.1,13 34.1,11.4 C34.1,10.7 34.6,9.9 35.8,9.9 L38.2,9.9 L38.2,11 L36,11 C35.8,11 35.6,11 35.5,11.1 C35.4,11.2 35.3,11.3 35.3,11.5 C35.3,11.7 35.4,11.8 35.6,11.9 C35.7,11.9 35.9,12 36.1,12 L36.7,12 C37.3,11.8 37.7,12 38,12.2 Z M27.2,11.9 C27,12 26.8,12 26.6,12 L25.1,12 L25.1,10.9 L26.6,10.9 C26.8,10.9 27,10.9 27.2,11 C27.4,11.1 27.4,11.2 27.4,11.5 C27.4,11.7 27.3,11.8 27.2,11.9 Z M27.9,12.5 C28.2,12.6 28.4,12.8 28.5,12.9 C28.7,13.1 28.7,13.4 28.7,13.8 L28.7,14.8 L27.5,14.8 L27.5,14.2 C27.5,13.9 27.5,13.4 27.3,13.2 C27.1,13 26.9,13 26.4,13 L25.1,13 L25.1,14.8 L23.9,14.8 L23.9,9.8 L26.7,9.8 C27.3,9.8 27.7,9.8 28.1,10 C28.5,10.2 28.7,10.5 28.7,11.1 C28.7,12 28.2,12.4 27.9,12.5 Z M29.4,9.8 L33.4,9.8 L33.4,10.8 L30.6,10.8 L30.6,11.7 L33.3,11.7 L33.3,12.7 L30.6,12.7 L30.6,13.7 L33.4,13.7 L33.4,14.8 L29.4,14.8 L29.4,9.8 Z M21.3,12.2 L19.8,12.2 L19.8,10.9 L21.4,10.9 C21.8,10.9 22.1,11.1 22.1,11.5 C22.1,11.9 21.8,12.2 21.3,12.2 Z M18.6,14.4 L16.8,12.3 L18.6,10.3 L18.6,14.4 Z M13.8,13.8 L10.9,13.8 L10.9,12.8 L13.5,12.8 L13.5,11.8 L10.9,11.8 L10.9,10.9 L13.9,10.9 L15.2,12.4 L13.8,13.8 Z M23.3,11.5 C23.3,12.9 22.3,13.2 21.2,13.2 L19.7,13.2 L19.7,14.9 L17.4,14.9 L16,13.2 L14.5,14.9 L9.7,14.9 L9.7,9.8 L14.5,9.8 L16,11.5 L17.5,9.8 L21.3,9.8 C22.3,9.8 23.3,10.1 23.3,11.5 Z" id="Shape_4_"></path>
                        </g>
                    </g>
                    <g id="visa-electron-seeklogo.com" transform="translate(338.000000, 5.000000)" fill="#1A1F71" fill-rule="nonzero">
                        <path d="M23.9,0.4 L15.7,20 L10.3,20 L6.2,4.3 C6,3.4 5.8,3 5,2.6 C3.8,1.9 1.8,1.3 0,0.9 L0.1,0.3 L8.8,0.3 C9.9,0.3 10.9,1 11.1,2.3 L13.2,13.7 L18.5,0.3 L23.9,0.3 L23.9,0.4 Z M31.2,0.4 L27,20 L21.9,20 L26.1,0.4 L31.2,0.4 Z M45,13.6 C45,8.4 37.8,8.1 37.9,5.8 C37.9,5.1 38.6,4.3 40.1,4.2 C40.8,4.1 42.8,4 45.1,5.1 L46,0.9 C44.7,0.4 43.1,0 41.2,0 C36.2,0 32.6,2.7 32.6,6.5 C32.6,9.3 35.1,10.9 37.1,11.8 C39.1,12.8 39.7,13.4 39.7,14.2 C39.7,15.5 38.1,16.1 36.7,16.1 C34.1,16.1 32.7,15.4 31.5,14.9 L30.6,19.2 C31.8,19.7 34,20.2 36.3,20.2 C41.5,20.3 45,17.7 45,13.6 Z M58.3,20 L63,20 L58.9,0.4 L54.6,0.4 C53.6,0.4 52.8,1 52.4,1.8 L44.7,20 L50,20 L51.1,17.1 L57.6,17.1 L58.3,20 Z M52.6,13 L55.3,5.6 L56.8,13 L52.6,13 Z M37.7,25.4 L35.6,25.4 L35.6,27.3 L38,27.3 L38,27.9 L35,27.9 L35,22.6 L37.9,22.6 L37.9,23.2 L35.7,23.2 L35.7,24.9 L37.8,24.9 L37.8,25.4 L37.7,25.4 Z M39,22.3 L39.7,22.3 L39.7,27.9 L39,27.9 L39,22.3 Z M41.5,26.1 C41.5,27 42.1,27.4 42.8,27.4 C43.3,27.4 43.6,27.3 43.9,27.2 L44,27.7 C43.8,27.8 43.3,27.9 42.7,27.9 C41.5,27.9 40.8,27.1 40.8,26 C40.8,24.9 41.5,23.9 42.6,23.9 C43.9,23.9 44.2,25 44.2,25.7 C44.2,25.8 44.2,25.9 44.2,26 L41.5,26 L41.5,26.1 Z M43.5,25.6 C43.5,25.2 43.3,24.5 42.5,24.5 C41.8,24.5 41.5,25.1 41.4,25.6 L43.5,25.6 Z M48,27.8 C47.8,27.9 47.4,28 46.9,28 C45.7,28 45,27.2 45,26 C45,24.8 45.8,24 47.1,24 C47.5,24 47.9,24.1 48.1,24.2 L47.9,24.7 C47.7,24.6 47.5,24.5 47.1,24.5 C46.2,24.5 45.7,25.2 45.7,25.9 C45.7,26.8 46.3,27.3 47,27.3 C47.4,27.3 47.7,27.2 47.9,27.1 L48,27.8 Z M49.9,23.2 L49.9,24.1 L50.9,24.1 L50.9,24.6 L49.9,24.6 L49.9,26.7 C49.9,27.2 50,27.4 50.4,27.4 C50.6,27.4 50.7,27.4 50.8,27.4 L50.8,27.9 C50.7,27.9 50.5,28 50.2,28 C49.9,28 49.6,27.9 49.4,27.7 C49.2,27.5 49.1,27.1 49.1,26.7 L49.1,24.6 L48.5,24.6 L48.5,24.1 L49.1,24.1 L49.1,23.4 L49.9,23.2 Z M51.9,25.3 C51.9,24.8 51.9,24.5 51.9,24.1 L52.5,24.1 L52.5,24.9 L52.5,24.9 C52.7,24.4 53.1,24.1 53.6,24.1 C53.7,24.1 53.7,24.1 53.8,24.1 L53.8,24.8 C53.7,24.8 53.7,24.8 53.6,24.8 C53.1,24.8 52.8,25.2 52.7,25.7 C52.7,25.8 52.7,25.9 52.7,26 L52.7,28 L52,28 L52,25.3 L51.9,25.3 Z M58.1,26 C58.1,27.4 57.1,28 56.2,28 C55.2,28 54.4,27.2 54.4,26 C54.4,24.7 55.2,24 56.3,24 C57.4,24 58.1,24.8 58.1,26 Z M55.1,26 C55.1,26.8 55.6,27.5 56.3,27.5 C57,27.5 57.5,26.9 57.5,26 C57.5,25.4 57.2,24.5 56.4,24.5 C55.4,24.5 55.1,25.3 55.1,26 Z M59.2,25.1 C59.2,24.7 59.2,24.4 59.2,24.1 L59.8,24.1 L59.8,24.7 L59.8,24.7 C60,24.3 60.4,24 61.1,24 C61.6,24 62.5,24.3 62.5,25.6 L62.5,27.9 L61.8,27.9 L61.8,25.7 C61.8,25.1 61.6,24.6 60.9,24.6 C60.4,24.6 60.1,24.9 60,25.3 C60,25.4 60,25.5 60,25.6 L60,27.9 L59.3,27.9 L59.3,25.1 L59.2,25.1 Z" id="Shape_2_"></path>
                    </g>
                    <g id="visa" transform="translate(244.000000, 5.000000)" fill="url(#linearGradient-2)">
                        <path d="M30.7,0.4 L26.6,19.7 L21.6,19.7 L25.7,0.4 L30.7,0.4 Z M51.8,12.8 L54.4,5.5 L55.9,12.8 L51.8,12.8 Z M57.4,19.7 L62,19.7 L58,0.4 L53.7,0.4 C52.7,0.4 51.9,1 51.6,1.8 L44,19.7 L49.3,19.7 L50.3,16.8 L56.7,16.8 L57.4,19.7 Z M44.3,13.4 C44.3,8.3 37.2,8 37.3,5.7 C37.3,5 38,4.3 39.4,4.1 C40.1,4 42.1,3.9 44.3,5 L45.2,0.9 C44,0.4 42.5,0 40.5,0 C35.5,0 32.1,2.6 32,6.4 C32,9.2 34.5,10.7 36.4,11.7 C38.4,12.6 39,13.3 39,14.1 C39,15.4 37.4,16 36,16 C33.5,16 32,15.3 30.9,14.8 L30,19 C31.2,19.5 33.3,20 35.6,20 C40.8,20 44.3,17.4 44.3,13.4 Z M23.5,0.4 L15.4,19.7 L10.1,19.7 L6.1,4.3 C5.9,3.3 5.6,3 4.9,2.6 C3.7,1.9 1.7,1.3 0,1 L0.1,0.4 L8.6,0.4 C9.7,0.4 10.7,1.1 10.9,2.4 L13,13.6 L18.2,0.4 L23.5,0.4 Z" id="Fill-1"></path>
                    </g>
                    <g id="maestro-seeklogo.com" transform="translate(173.000000, 0.000000)">
                        <polygon id="Path_2_" fill="#6C6BBD" points="24.8 21.3 14.2 21.3 14.2 2.5 24.8 2.5"></polygon>
                        <path d="M14.9,11.9 C14.9,8.1 16.7,4.7 19.5,2.5 C17.4,1 14.9,0 12.1,0 C5.4,0 0,5.3 0,11.9 C0,18.5 5.4,23.8 12.1,23.8 C14.9,23.8 17.5,22.8 19.5,21.2 C16.7,19.1 14.9,15.7 14.9,11.9" id="Path_3_" fill="#D32011"></path>
                        <path d="M39,11.9 C39,18.5 33.6,23.8 26.9,23.8 C24.1,23.8 21.5,22.8 19.5,21.2 C22.3,19 24.1,15.6 24.1,11.8 C24.1,8 22.3,4.6 19.5,2.4 C21.6,1 24.1,0 26.9,0 C33.6,0 39,5.3 39,11.9" id="Path_4_" fill="#0099DF"></path>
                        <path d="M28.3,26.6 C28.4,26.6 28.6,26.6 28.8,26.7 L28.6,27.3 C28.5,27.2 28.3,27.2 28.2,27.2 C27.7,27.2 27.5,27.5 27.5,28 L27.5,29.8 L26.8,29.8 L26.8,26.6 L27.5,26.6 L27.5,27 C27.7,26.8 27.9,26.6 28.3,26.6 Z M25.8,27.3 L24.7,27.3 L24.7,28.7 C24.7,29 24.8,29.2 25.2,29.2 C25.4,29.2 25.6,29.1 25.8,29 L26,29.6 C25.8,29.8 25.4,29.8 25.1,29.8 C24.3,29.8 24,29.4 24,28.6 L24,27.2 L23.4,27.2 L23.4,26.6 L24,26.6 L24,25.6 L24.7,25.6 L24.7,26.6 L25.8,26.6 L25.8,27.3 Z M16.9,28 C17,27.5 17.3,27.2 17.8,27.2 C18.2,27.2 18.5,27.5 18.6,28 L16.9,28 Z M19.2,28.3 C19.2,27.3 18.6,26.6 17.7,26.6 C16.8,26.6 16.1,27.3 16.1,28.3 C16.1,29.3 16.8,30 17.7,30 C18.2,30 18.6,29.9 19,29.6 L18.7,29 C18.4,29.2 18.1,29.3 17.8,29.3 C17.4,29.3 16.9,29.1 16.8,28.5 L19.2,28.5 C19.2,28.4 19.2,28.4 19.2,28.3 Z M22.3,27.5 C22.1,27.4 21.7,27.2 21.3,27.2 C20.9,27.2 20.7,27.3 20.7,27.6 C20.7,27.8 20.9,27.9 21.2,27.9 L21.5,27.9 C22.2,28 22.6,28.3 22.6,28.8 C22.6,29.4 22.1,29.8 21.1,29.8 C20.6,29.8 20.1,29.7 19.7,29.4 L20,28.9 C20.2,29.1 20.6,29.2 21.1,29.2 C21.6,29.2 21.8,29.1 21.8,28.8 C21.8,28.6 21.6,28.5 21.2,28.5 L20.9,28.5 C20.2,28.4 19.8,28.1 19.8,27.6 C19.8,27 20.3,26.6 21.1,26.6 C21.6,26.6 22.1,26.7 22.4,26.9 L22.3,27.5 Z M30.9,27.3 C30.8,27.3 30.6,27.3 30.5,27.4 C30.4,27.5 30.3,27.5 30.2,27.6 C30.1,27.7 30,27.8 30,27.9 C29.9,28 29.9,28.2 29.9,28.3 C29.9,28.5 29.9,28.6 30,28.7 C30.1,28.8 30.1,28.9 30.2,29 C30.3,29.1 30.4,29.2 30.5,29.2 C30.6,29.3 30.8,29.3 30.9,29.3 C31,29.3 31.2,29.3 31.3,29.2 C31.4,29.1 31.5,29.1 31.6,29 C31.7,28.9 31.8,28.8 31.8,28.7 C31.9,28.6 31.9,28.4 31.9,28.3 C31.9,28.1 31.9,28 31.8,27.9 C31.7,27.8 31.7,27.7 31.6,27.6 C31.5,27.5 31.4,27.4 31.3,27.4 C31.2,27.3 31,27.3 30.9,27.3 Z M30.9,26.6 C31.1,26.6 31.4,26.6 31.6,26.7 C31.8,26.8 32,26.9 32.1,27.1 C32.3,27.2 32.4,27.4 32.5,27.6 C32.6,27.8 32.6,28 32.6,28.3 C32.6,28.6 32.6,28.8 32.5,29 C32.4,29.2 32.3,29.4 32.1,29.5 C31.9,29.6 31.8,29.8 31.6,29.9 C31.4,30 31.2,30 30.9,30 C30.7,30 30.4,30 30.2,29.9 C30,29.8 29.8,29.7 29.7,29.5 C29.5,29.4 29.4,29.2 29.3,29 C29.2,28.8 29.2,28.6 29.2,28.3 C29.2,28 29.2,27.8 29.3,27.6 C29.4,27.4 29.5,27.2 29.7,27.1 C29.9,27 30,26.8 30.2,26.7 C30.4,26.6 30.6,26.6 30.9,26.6 Z M12.8,28.3 C12.8,27.7 13.2,27.3 13.8,27.3 C14.4,27.3 14.8,27.7 14.8,28.3 C14.8,28.9 14.4,29.3 13.8,29.3 C13.2,29.3 12.8,28.8 12.8,28.3 Z M15.4,28.3 L15.4,26.7 L14.7,26.7 L14.7,27.1 C14.5,26.8 14.1,26.6 13.7,26.6 C12.8,26.6 12.1,27.3 12.1,28.3 C12.1,29.3 12.8,30 13.7,30 C14.2,30 14.5,29.8 14.7,29.5 L14.7,29.9 L15.4,29.9 L15.4,28.3 Z M11.5,29.8 L11.5,27.8 C11.5,27.1 11,26.5 10.2,26.5 C9.8,26.5 9.4,26.6 9.1,27.1 C8.9,26.7 8.5,26.5 8,26.5 C7.7,26.5 7.3,26.6 7.1,27 L7.1,26.6 L6.4,26.6 L6.4,29.8 L7.1,29.8 L7.1,28 C7.1,27.5 7.4,27.2 7.9,27.2 C8.4,27.2 8.6,27.5 8.6,28 L8.6,29.8 L9.3,29.8 L9.3,28 C9.3,27.5 9.6,27.2 10.1,27.2 C10.6,27.2 10.8,27.5 10.8,28 L10.8,29.8 L11.5,29.8 Z" id="Shape_1_" fill="#110F0D" fill-rule="nonzero"></path>
                    </g>
                    <g id="mastercard-seeklogo.com" transform="translate(102.000000, 0.000000)">
                        <path d="M7.1,29.9 L7.1,27.9 C7.1,27.1 6.6,26.6 5.8,26.6 C5.4,26.6 5,26.7 4.7,27.2 C4.5,26.8 4.1,26.6 3.6,26.6 C3.3,26.6 2.9,26.7 2.7,27.1 L2.7,26.7 L2,26.7 L2,29.9 L2.7,29.9 L2.7,28.1 C2.7,27.5 3,27.3 3.5,27.3 C4,27.3 4.2,27.6 4.2,28.1 L4.2,29.9 L4.9,29.9 L4.9,28.1 C4.9,27.5 5.2,27.3 5.7,27.3 C6.2,27.3 6.4,27.6 6.4,28.1 L6.4,29.9 L7.1,29.9 Z M17.5,26.7 L16.4,26.7 L16.4,25.7 L15.7,25.7 L15.7,26.7 L15,26.7 L15,27.3 L15.6,27.3 L15.6,28.8 C15.6,29.5 15.9,30 16.7,30 C17,30 17.3,29.9 17.6,29.8 L17.4,29.2 C17.2,29.3 17,29.4 16.8,29.4 C16.5,29.4 16.3,29.2 16.3,28.9 L16.3,27.5 L17.4,27.5 L17.4,26.7 L17.5,26.7 Z M23.4,26.6 C23,26.6 22.7,26.8 22.6,27.1 L22.6,26.7 L21.9,26.7 L21.9,29.9 L22.6,29.9 L22.6,28.1 C22.6,27.6 22.8,27.3 23.3,27.3 C23.4,27.3 23.6,27.3 23.7,27.4 L23.9,26.7 C23.8,26.6 23.6,26.6 23.4,26.6 Z M14.4,26.9 C14.1,26.7 13.6,26.6 13.1,26.6 C12.3,26.6 11.8,27 11.8,27.6 C11.8,28.1 12.2,28.4 12.9,28.5 L13.2,28.5 C13.6,28.6 13.8,28.7 13.8,28.8 C13.8,29 13.5,29.2 13.1,29.2 C12.6,29.2 12.3,29 12,28.9 L11.7,29.4 C12.1,29.7 12.6,29.8 13.1,29.8 C14,29.8 14.6,29.4 14.6,28.8 C14.6,28.2 14.2,27.9 13.5,27.8 L13.2,27.8 C12.9,27.8 12.7,27.7 12.7,27.5 C12.7,27.3 12.9,27.1 13.3,27.1 C13.7,27.1 14.1,27.3 14.3,27.4 L14.4,26.9 Z M33.1,26.6 C32.7,26.6 32.4,26.8 32.3,27.1 L32.3,26.7 L31.6,26.7 L31.6,29.9 L32.3,29.9 L32.3,28.1 C32.3,27.6 32.5,27.3 33,27.3 C33.1,27.3 33.3,27.3 33.4,27.4 L33.6,26.7 C33.4,26.6 33.2,26.6 33.1,26.6 Z M24.1,28.3 C24.1,29.3 24.8,30 25.8,30 C26.3,30 26.6,29.9 26.9,29.6 L26.7,29 C26.4,29.2 26.2,29.3 25.9,29.3 C25.3,29.3 24.9,28.9 24.9,28.3 C24.9,27.7 25.3,27.3 25.9,27.3 C26.2,27.3 26.5,27.4 26.7,27.6 L27,27 C26.7,26.7 26.3,26.6 25.9,26.6 C24.8,26.6 24.1,27.3 24.1,28.3 Z M30.6,28.3 L30.6,26.7 L29.9,26.7 L29.9,27.1 C29.7,26.8 29.3,26.6 28.9,26.6 C28,26.6 27.3,27.3 27.3,28.3 C27.3,29.3 28,30 28.9,30 C29.4,30 29.7,29.8 29.9,29.5 L29.9,29.9 L30.6,29.9 L30.6,28.3 Z M28.1,28.3 C28.1,27.7 28.5,27.3 29.1,27.3 C29.7,27.3 30.1,27.7 30.1,28.3 C30.1,28.9 29.7,29.3 29.1,29.3 C28.4,29.3 28.1,28.8 28.1,28.3 Z M19.7,26.6 C18.8,26.6 18.1,27.3 18.1,28.3 C18.1,29.3 18.8,30 19.7,30 C20.2,30 20.6,29.9 21,29.6 L20.7,29 C20.4,29.2 20.1,29.3 19.8,29.3 C19.4,29.3 18.9,29.1 18.8,28.5 L21.2,28.5 L21.2,28.2 C21.2,27.3 20.6,26.6 19.7,26.6 Z M19.7,27.2 C20.1,27.2 20.4,27.5 20.5,28 L18.8,28 C18.9,27.5 19.2,27.2 19.7,27.2 Z M37.1,28.3 L37.1,25.5 L36.4,25.5 L36.4,27.2 C36.2,26.9 35.8,26.7 35.4,26.7 C34.5,26.7 33.8,27.4 33.8,28.4 C33.8,29.4 34.5,30.1 35.4,30.1 C35.9,30.1 36.2,29.9 36.4,29.6 L36.4,30 L37.1,30 L37.1,28.3 Z M34.5,28.3 C34.5,27.7 34.9,27.3 35.5,27.3 C36.1,27.3 36.5,27.7 36.5,28.3 C36.5,28.9 36.1,29.3 35.5,29.3 C34.9,29.3 34.5,28.8 34.5,28.3 Z M11,28.3 L11,26.7 L10.3,26.7 L10.3,27.1 C10.1,26.8 9.7,26.6 9.3,26.6 C8.4,26.6 7.7,27.3 7.7,28.3 C7.7,29.3 8.4,30 9.3,30 C9.8,30 10.1,29.8 10.3,29.5 L10.3,29.9 L11,29.9 L11,28.3 Z M8.4,28.3 C8.4,27.7 8.8,27.3 9.4,27.3 C10,27.3 10.4,27.7 10.4,28.3 C10.4,28.9 10,29.3 9.4,29.3 C8.8,29.3 8.4,28.8 8.4,28.3 Z" id="Shape" fill="#000000" fill-rule="nonzero"></path>
                        <rect id="Rectangle" fill="#FF5F00" x="14.2" y="2.5" width="10.5" height="18.7"></rect>
                        <path d="M14.9,11.9 C14.9,8.1 16.7,4.7 19.5,2.5 C17.4,1 14.8,0 12,0 C5.4,0 0,5.3 0,11.9 C0,18.5 5.4,23.8 12,23.8 C14.8,23.8 17.4,22.8 19.4,21.3 C16.7,19.1 14.9,15.7 14.9,11.9 Z" id="Path" fill="#EB001B"></path>
                        <path d="M39,11.9 C39,18.5 33.6,23.8 27,23.8 C24.2,23.8 21.6,22.8 19.6,21.3 C22.4,19.1 24.2,15.7 24.2,11.9 C24.2,8.1 22.4,4.7 19.6,2.5 C21.5,1 24.1,0 26.9,0 C33.6,0 39,5.4 39,11.9 Z" id="Path_1_" fill="#F79E1B"></path>
                    </g>
                    <g id="iyzico" fill-rule="nonzero">
                        <g id="Group" transform="translate(19.000000, 24.000000)" fill="#000000">
                            <path d="M2.7,1.8 C2.5,1.8 2.5,1.9 2.5,2 L2.5,2.4 C2.3,2 1.9,1.8 1.4,1.8 C0.7,1.8 0,2.3 0,3.4 C0,4.5 0.8,5 1.4,5 C1.9,5 2.3,4.7 2.5,4.3 L2.5,4.8 C2.5,5 2.7,5 2.7,5 C2.9,5 2.9,4.8 2.9,4.8 L2.9,2.1 C3,1.8 2.8,1.8 2.7,1.8 Z M1.5,4.5 C1,4.5 0.4,4.1 0.4,3.4 C0.4,2.7 0.9,2.3 1.5,2.3 C2,2.3 2.5,2.7 2.5,3.4 C2.5,4.1 1.9,4.5 1.5,4.5 Z" id="Shape"></path>
                            <path d="M7.5,0.7 L6.4,0.7 C6.2,0.7 5.9,0.9 5.9,1.2 L5.9,4.6 C5.9,4.8 6.1,5 6.3,5 C6.5,5 6.7,4.8 6.7,4.6 L6.7,3.5 L7.5,3.5 C8.4,3.5 9,2.9 9,2.1 C9,1.3 8.4,0.7 7.5,0.7 Z M7.4,2.7 L6.7,2.7 L6.7,1.3 L7.4,1.3 C7.9,1.3 8.2,1.5 8.2,2 C8.2,2.5 7.8,2.7 7.4,2.7 Z" id="Shape"></path>
                            <path d="M12,1.8 C11.8,1.8 11.6,2 11.6,2.2 L11.6,2.3 C11.4,2 11.1,1.8 10.7,1.8 C10,1.8 9.3,2.3 9.3,3.4 C9.3,4.5 10.1,5 10.7,5 C11.2,5 11.5,4.7 11.6,4.5 L11.6,4.7 C11.6,4.9 11.8,5.1 12,5.1 C12.2,5.1 12.4,4.9 12.4,4.7 L12.4,2.3 C12.5,1.9 12.2,1.8 12,1.8 Z M10.9,4.3 C10.5,4.3 10.1,4 10.1,3.4 C10.1,2.8 10.5,2.5 10.9,2.5 C11.2,2.5 11.7,2.7 11.7,3.4 C11.7,4 11.3,4.3 10.9,4.3 Z" id="Shape"></path>
                            <path d="M15.7,1.8 C15.5,1.8 15.4,1.9 15.3,2.1 L14.5,4 L13.7,2.1 C13.6,1.9 13.5,1.8 13.4,1.8 C13.2,1.8 13,2 13,2.2 C13,2.3 13,2.4 13.1,2.4 L14.2,4.8 L13.8,5.6 C13.8,5.7 13.7,5.7 13.7,5.8 C13.7,6 13.9,6.2 14.1,6.2 C14.3,6.2 14.4,6.1 14.5,5.9 L16.1,2.4 C16.1,2.3 16.2,2.3 16.2,2.2 C16.1,1.9 16,1.8 15.7,1.8 Z" id="Path"></path>
                            <path d="M19.7,0.6 C19.5,0.6 19.2,0.8 19.2,1 L19.2,3.3 C19.2,3.9 18.8,4.2 18.4,4.2 C17.9,4.2 17.6,4 17.6,3.3 L17.6,1 C17.6,0.8 17.4,0.6 17.2,0.6 C17,0.6 16.8,0.8 16.8,1 L16.8,3.4 C16.8,4.4 17.6,4.9 18.5,4.9 C19.4,4.9 20.2,4.3 20.2,3.4 L20.2,1 C20.1,0.8 20,0.6 19.7,0.6 Z" id="Path"></path>
                            <path d="M24.1,2.1 C24.3,2.1 24.6,2.2 24.9,2.5 C25,2.6 25.1,2.7 25.1,2.7 C25.3,2.7 25.3,2.6 25.3,2.5 C25.3,2.4 25.2,2.3 25.1,2.3 C24.9,2 24.5,1.8 24,1.8 C23.3,1.8 22.4,2.3 22.4,3.4 C22.4,4.5 23.2,5 24,5 C24.5,5 24.8,4.8 25.1,4.5 C25.2,4.4 25.3,4.3 25.3,4.3 C25.3,4.1 25.2,4.1 25.1,4.1 C25,4.1 24.9,4.2 24.9,4.3 C24.7,4.5 24.4,4.7 24.1,4.7 C23.6,4.7 23,4.3 23,3.6 C23.1,2.5 23.6,2.1 24.1,2.1 Z" id="Path"></path>
                            <path d="M27.3,1.7 C26.6,1.7 25.7,2.2 25.7,3.3 C25.7,4.4 26.6,4.9 27.3,4.9 C28,4.9 28.9,4.4 28.9,3.3 C28.8,2.3 28,1.7 27.3,1.7 Z M27.3,4.5 C26.8,4.5 26.2,4.1 26.2,3.4 C26.2,2.7 26.8,2.3 27.3,2.3 C27.8,2.3 28.4,2.7 28.4,3.4 C28.4,4.1 27.8,4.5 27.3,4.5 Z" id="Shape"></path>
                            <path d="M33.4,1.8 C32.8,1.8 32.3,2.3 32.2,2.6 C32,2 31.5,1.8 31.1,1.8 C30.4,1.8 30,2.3 30,2.6 L30,2.1 C30,1.9 29.9,1.9 29.8,1.9 C29.6,1.9 29.6,2 29.6,2.1 L29.6,4.8 C29.6,5 29.8,5 29.8,5 C30,5 30,4.8 30,4.8 L30,3 C30.1,2.6 30.4,2.2 31,2.2 C31.5,2.2 31.8,2.4 31.8,3.1 L31.8,4.7 C31.8,4.9 31.9,4.9 32,4.9 C32.2,4.9 32.2,4.7 32.2,4.7 L32.2,3.1 L32.2,3 C32.3,2.6 32.6,2.2 33.2,2.2 C33.7,2.2 34,2.4 34,3.1 L34,4.7 C34,4.9 34.2,4.9 34.2,4.9 C34.4,4.9 34.4,4.7 34.4,4.7 L34.4,3.1 C34.5,2.1 33.9,1.8 33.4,1.8 Z" id="Path"></path>
                            <path d="M36.8,1.7 C36.3,1.7 35.9,1.9 35.7,2.3 L35.7,1.9 C35.7,1.7 35.6,1.7 35.5,1.7 C35.3,1.7 35.3,1.8 35.3,1.9 L35.3,5.7 C35.3,5.9 35.4,5.9 35.5,5.9 C35.7,5.9 35.7,5.7 35.7,5.7 L35.7,4.2 C35.9,4.6 36.2,4.9 36.8,4.9 C37.5,4.9 38.2,4.4 38.2,3.3 C38.3,2.2 37.5,1.7 36.8,1.7 Z M36.8,4.5 C36.3,4.5 35.8,4.1 35.8,3.4 C35.8,2.6 36.3,2.3 36.8,2.3 C37.3,2.3 37.9,2.7 37.9,3.4 C37.8,4.1 37.3,4.5 36.8,4.5 Z" id="Shape"></path>
                            <path d="M41.5,1.8 C41.3,1.8 41.3,1.9 41.3,2 L41.3,2.4 C41.1,2 40.7,1.8 40.2,1.8 C39.5,1.8 38.8,2.3 38.8,3.4 C38.8,4.5 39.6,5 40.2,5 C40.7,5 41.1,4.7 41.3,4.3 L41.3,4.8 C41.3,5 41.5,5 41.5,5 C41.7,5 41.7,4.8 41.7,4.8 L41.7,2.1 C41.8,1.8 41.7,1.8 41.5,1.8 Z M40.3,4.5 C39.8,4.5 39.2,4.1 39.2,3.4 C39.2,2.7 39.7,2.3 40.3,2.3 C40.8,2.3 41.3,2.7 41.3,3.4 C41.3,4.1 40.7,4.5 40.3,4.5 Z" id="Shape"></path>
                            <path d="M44.2,1.8 C43.5,1.8 43.1,2.3 43.1,2.6 L43.1,2.1 C43.1,1.9 43,1.9 42.9,1.9 C42.7,1.9 42.7,2 42.7,2.1 L42.7,4.8 C42.7,5 42.9,5 42.9,5 C43.1,5 43.1,4.8 43.1,4.8 L43.1,3 C43.2,2.6 43.5,2.2 44.1,2.2 C44.6,2.2 44.9,2.4 44.9,3.1 L44.9,4.7 C44.9,4.9 45,4.9 45.1,4.9 C45.3,4.9 45.3,4.7 45.3,4.7 L45.3,3.1 C45.3,2.1 44.7,1.8 44.2,1.8 Z" id="Path"></path>
                            <path d="M48.3,1.8 C48.2,1.8 48.1,1.9 48.1,2 L47.1,4.3 L46.1,2 C46,1.8 45.9,1.8 45.9,1.8 C45.7,1.8 45.7,1.9 45.7,2 C45.7,2.1 45.7,2.1 45.7,2.1 L46.9,4.8 L46.5,5.7 C46.5,5.7 46.5,5.8 46.5,5.9 C46.5,6.1 46.6,6.1 46.7,6.1 C46.8,6.1 46.9,6 46.9,5.9 L48.6,2.1 L48.6,2 C48.6,1.8 48.5,1.8 48.3,1.8 Z" id="Path"></path>
                        </g>
                        <g id="Group" fill="#1E64FF">
                            <path d="M1.9,5.8 C0.9,5.8 0.2,6.6 0.2,7.5 L0.2,17.7 C0.2,18.7 1,19.4 1.9,19.4 C2.8,19.4 3.6,18.6 3.6,17.7 L3.6,7.6 C3.6,6.6 2.9,5.8 1.9,5.8 Z" id="Path"></path>
                            <path d="M1.9,0.2 C0.8,0.2 0,1.1 0,2.2 C0,3.3 0.8,4.1 1.9,4.1 C3,4.1 3.8,3.3 3.8,2.2 C3.9,1.1 3,0.2 1.9,0.2 Z" id="Path"></path>
                            <path d="M33.2,17.8 C33.2,16.8 32.4,16.1 31.5,16.1 L26.6,16.1 L32.7,8.7 C33.3,7.9 33.2,6.9 32.5,6.3 C32.1,6 31.7,5.8 31.3,5.9 L23.6,5.9 C22.6,5.9 21.9,6.7 21.9,7.6 C21.9,8.5 22.7,9.3 23.6,9.3 L27.6,9.3 L21.5,16.6 C20.9,17.4 21,18.4 21.7,19 C22,19.3 22.5,19.4 22.8,19.4 C22.9,19.4 31.4,19.4 31.4,19.4 C32.4,19.5 33.2,18.7 33.2,17.8 Z" id="Path"></path>
                            <path d="M48.6,9.1 C49.6,9.1 50.4,9.5 51.1,10.2 C51.8,10.9 52.9,10.9 53.6,10.2 C54.3,9.5 54.3,8.4 53.6,7.7 C52.2,6.3 50.5,5.7 48.6,5.7 C46.7,5.7 45,6.5 43.6,7.7 C42.2,9.1 41.6,10.8 41.6,12.7 C41.6,14.6 42.4,16.3 43.6,17.7 C45,19.1 46.7,19.7 48.6,19.7 C50.5,19.7 52.2,18.9 53.6,17.7 C54.3,17 54.3,15.9 53.6,15.2 C52.9,14.5 51.8,14.5 51.1,15.2 C50.4,15.9 49.5,16.3 48.6,16.3 C47.6,16.3 46.8,15.9 46.1,15.2 C45.4,14.5 45,13.6 45,12.7 C45,11.7 45.4,10.9 46.1,10.2 C46.7,9.5 47.6,9.1 48.6,9.1 Z" id="Path"></path>
                            <path d="M62.7,5.6 C58.8,5.6 55.6,8.8 55.6,12.7 C55.6,16.6 58.8,19.8 62.7,19.8 C66.6,19.8 69.8,16.6 69.8,12.7 C69.8,8.8 66.6,5.6 62.7,5.6 Z M62.7,16.2 C60.7,16.2 59.1,14.6 59.1,12.6 C59.1,10.6 60.7,9 62.7,9 C64.7,9 66.3,10.6 66.3,12.6 C66.3,14.6 64.7,16.2 62.7,16.2 Z" id="Shape"></path>
                            <path d="M37.5,5.8 C36.5,5.8 35.8,6.6 35.8,7.5 L35.8,17.7 C35.8,18.7 36.6,19.4 37.5,19.4 C38.4,19.4 39.2,18.6 39.2,17.7 L39.2,7.6 C39.2,6.6 38.4,5.8 37.5,5.8 Z" id="Path"></path>
                            <path d="M37.5,0.2 C36.4,0.2 35.6,1 35.6,2.1 C35.6,3.2 36.4,4 37.5,4 C38.6,4 39.4,3.2 39.4,2.1 C39.4,1.1 38.5,0.2 37.5,0.2 Z" id="Path"></path>
                            <path d="M18.9,6 C18,5.5 17,5.9 16.5,6.7 L12.8,13.9 L9.1,6.7 C8.6,5.9 7.6,5.5 6.7,6 C5.8,6.5 5.5,7.5 6,8.3 L10.9,17.7 L8.6,22 C8.1,22.8 8.5,23.9 9.4,24.4 C9.7,24.6 10,24.6 10.3,24.6 C10.9,24.6 11.5,24.2 11.7,23.7 L19.7,8.3 C20.1,7.5 19.7,6.4 18.9,6 Z" id="Path"></path>
                        </g>
                    </g>
                </g>
            </g>
        </g>
    </g>
</svg>