<?xml version="1.0" encoding="UTF-8"?>
<svg width="120px" height="52px" viewBox="0 0 120 52" version="1.1" xmlns="http://www.w3.org/2000/svg" xmlns:xlink="http://www.w3.org/1999/xlink">
    <title>Brand/1- Logo/aPayUcompany/Logo</title>
    <g id="👉Method-View" stroke="none" stroke-width="1" fill="none" fill-rule="evenodd">
        <g id="PWI_Method_02_PaymentOptions-Copy-5" transform="translate(-867.000000, -704.000000)">
            <g id="Group" transform="translate(867.000000, 704.000000)">
                <g fill="#1E64FF" id="Group-21">
                    <path d="M28.437053,11.182161 C29.2010518,9.71186357 31.0130487,9.13834505 32.4857963,9.90386977 C33.9590438,10.6708945 34.5307929,12.4847031 33.7625442,13.9577507 L33.7625442,13.9577507 L20.067817,40.3843539 C19.5523178,41.3723858 18.5643195,41.9529045 17.5273212,41.9964059 C17.0175721,42.0214068 16.4965729,41.9166534 16.0130737,41.6608951 C14.5400762,40.8963704 13.9688271,39.0825619 14.7348259,37.6092643 L14.7348259,37.6092643 L18.6073194,30.1290228 L10.2200834,13.9577507 C9.45408467,12.4847031 10.0293337,10.6708945 11.5005813,9.90386977 C12.9715788,9.13834505 14.7870758,9.71186357 15.5498245,11.182161 L15.5498245,11.182161 L21.9930638,23.6040621 Z M83.5560112,9.1644709 C86.8050058,9.1644709 89.8592507,10.4295117 92.1574968,12.728086 C93.3259949,13.9018739 93.3259949,15.8036853 92.1574968,16.9777232 C90.9822488,18.1480109 89.080002,18.1480109 87.9080039,16.9777232 C86.7435059,15.8126855 85.2025084,15.1746649 83.5560112,15.1746649 C81.9140139,15.1746649 80.3705165,15.8126855 79.2092684,16.9777232 C78.0467704,18.1352605 77.4080214,19.6815605 77.4080214,21.3256135 C77.4080214,22.9681666 78.0467704,24.5127164 79.2092684,25.675504 C80.3705165,26.8335414 81.9140139,27.4808123 83.5560112,27.4808123 C85.2025084,27.4808123 86.7435059,26.8335414 87.9080039,25.675504 C89.080002,24.5004661 90.9822488,24.5004661 92.1574968,25.675504 C93.3259949,26.8485419 93.3259949,28.7516033 92.1574968,29.919891 C89.8592507,32.2189653 86.8050058,33.4860062 83.5560112,33.4860062 C80.3110166,33.4860062 77.2582717,32.2189653 74.9617755,29.919891 C72.6650293,27.628317 71.3992814,24.5722184 71.3992814,21.3256135 C71.3992814,18.0755086 72.6650293,15.0266602 74.9617755,12.728086 C77.2582717,10.4295117 80.3110166,9.1644709 83.5560112,9.1644709 Z M107.841146,9.16439589 C114.545635,9.16439589 119.999875,14.619322 119.999875,21.3255385 C119.999875,28.030505 114.545635,33.4861812 107.841146,33.4861812 C101.139407,33.4861812 95.685916,28.030505 95.685916,21.3255385 C95.685916,14.619322 101.139407,9.16439589 107.841146,9.16439589 Z M3.3173699,9.56585885 C4.97611713,9.56585885 6.32086489,10.9109023 6.32086489,12.5654557 L6.32086489,12.5654557 L6.32086489,30.134523 C6.32086489,31.7948266 4.97611713,33.1363699 3.3173699,33.1363699 C1.65862266,33.1363699 0.313374906,31.7948266 0.313374906,30.134523 L0.313374906,30.134523 L0.313374906,12.5654557 C0.313374906,10.9109023 1.65862266,9.56585885 3.3173699,9.56585885 Z M53.6801981,9.56493277 C53.7178483,9.56497994 53.7521494,9.56502925 53.7829588,9.56508077 L53.9759355,9.56580885 C54.6936843,9.54130806 55.4184331,9.77031546 56.0101821,10.2688316 C57.27918,11.3296158 57.4451797,13.2274271 56.3811815,14.4967181 L56.3811815,14.4967181 L45.7786991,27.1291259 L54.0756853,27.1291259 C55.7356825,27.1291259 57.0824303,28.4776695 57.0824303,30.134473 C57.0824303,31.7950266 55.7356825,33.1363199 54.0756853,33.1363199 L54.0756853,33.1363199 L39.3387099,33.1363199 C38.657211,33.1363199 37.9702121,32.9095626 37.4077131,32.4335472 C36.1387152,31.3697628 35.9712155,29.4769517 37.0384637,28.2031606 L37.0384637,28.2031606 L47.639196,15.5750029 L40.7089576,15.5750029 C39.0482103,15.5750029 37.7054626,14.2264593 37.7054626,12.5656557 C37.7054626,10.9108523 39.0482103,9.56580885 40.7089576,9.56580885 L40.7089576,9.56580885 L43.5390268,9.56505977 C43.6362602,9.56503664 43.7351402,9.56501338 43.835524,9.56499005 Z M64.460348,9.56585885 C66.1223402,9.56585885 67.463838,10.9109023 67.463838,12.5654557 L67.463838,12.5654557 L67.463838,30.134523 C67.463838,31.7948266 66.1223402,33.1363699 64.460348,33.1363699 C62.8030958,33.1363699 61.460348,31.7948266 61.460348,30.134523 L61.460348,30.134523 L61.460348,12.5654557 C61.460348,10.9109023 62.8030958,9.56585885 64.460348,9.56585885 Z M107.841146,15.1745899 C104.450901,15.1745899 101.694656,17.933179 101.694656,21.3255385 C101.694656,24.716898 104.450901,27.4807373 107.841146,27.4807373 C111.23364,27.4807373 113.993885,24.716898 113.993885,21.3255385 C113.993885,17.933179 111.23364,15.1745899 107.841146,15.1745899 Z M3.3173699,-2.49800181e-15 C5.14886685,-2.49800181e-15 6.63611437,1.486548 6.63611437,3.32035721 C6.63611437,5.15041629 5.14886685,6.63971438 3.3173699,6.63971438 C1.48587295,6.63971438 -0.000124571785,5.15041629 -0.000124571785,3.32035721 C-0.000124571785,1.486548 1.48587295,-2.49800181e-15 3.3173699,-2.49800181e-15 Z M64.460343,-2.49800181e-15 C66.2953399,-2.49800181e-15 67.7810875,1.486548 67.7810875,3.32035721 C67.7810875,5.15041629 66.2953399,6.63971438 64.460343,6.63971438 C62.626846,6.63971438 61.1410985,5.15041629 61.1410985,3.32035721 C61.1410985,1.486548 62.626846,-2.49800181e-15 64.460343,-2.49800181e-15 Z" id="Combined-Shape"></path>
                </g>
                <g transform="translate(32.550000, 42.000000)" fill="#212529" fill-rule="nonzero" id="Combined-Shape">
                    <g>
                        <path d="M27.1659,1.8618 C27.5264,1.8618 27.7989,2.1408 27.7989,2.4658 C27.7989,2.5928 27.7534,2.6983 27.7159,2.7813 L27.7159,2.7813 L25.0399,8.7993 C24.8974,9.1293 24.6489,9.2718 24.3874,9.2718 C24.0394,9.2718 23.7924,8.9923 23.7924,8.6678 C23.7924,8.5378 23.8339,8.4368 23.8614,8.3558 L23.8614,8.3558 L24.4499,7.0143 L22.5304,2.7813 C22.4999,2.6983 22.4579,2.5928 22.4579,2.4658 C22.4579,2.1408 22.7254,1.8618 23.0784,1.8618 C23.3359,1.8618 23.5814,2.0048 23.7294,2.3363 L23.7294,2.3363 L25.1104,5.5343 L26.5274,2.3363 C26.6679,2.0048 26.9079,1.8618 27.1659,1.8618 Z M83.27475,1.8618 C83.49975,1.8618 83.67475,2.0473 83.67475,2.2548 C83.67475,2.3363 83.65525,2.3883 83.63575,2.4478 L83.63575,2.4478 L80.8048,8.9848 C80.7223,9.1798 80.5673,9.2718 80.4013,9.2718 C80.1738,9.2718 80.0173,9.0863 80.0173,8.8823 C80.0173,8.7993 80.0388,8.7488 80.0623,8.6858 L80.0623,8.6858 L80.7548,7.0738 L78.7293,2.4478 C78.7078,2.3883 78.6863,2.3363 78.6863,2.2548 C78.6863,2.0473 78.8653,1.8618 79.0898,1.8618 C79.2548,1.8618 79.4128,1.9523 79.4938,2.1503 L79.4938,2.1503 L81.1783,6.0948 L82.86725,2.1503 C82.95175,1.9523 83.10725,1.8618 83.27475,1.8618 Z M63.50955,1.8294 C64.65655,1.8294 66.05155,2.7399 66.05155,4.5754 C66.05155,6.4304 64.65655,7.3354 63.50955,7.3354 C62.60155,7.3354 61.90155,6.7909 61.68155,6.1759 L61.68155,6.1759 L61.68155,8.8409 C61.68155,9.0754 61.47855,9.2719 61.25105,9.2719 C61.01455,9.2719 60.82005,9.0754 60.82005,8.8409 L60.82005,8.8409 L60.82005,2.2944 C60.82005,2.0554 61.00205,1.8619 61.25105,1.8619 C61.47855,1.8619 61.67255,2.0554 61.67255,2.2944 L61.67255,2.2944 L61.67255,2.9164 C61.99355,2.2229 62.72355,1.8294 63.50955,1.8294 Z M47.08385,1.8294 C48.28435,1.8294 49.77735,2.7489 49.77735,4.5864 C49.77735,6.4304 48.28435,7.3354 47.08385,7.3354 C45.89735,7.3354 44.39735,6.4304 44.39735,4.5864 C44.39735,2.7489 45.89735,1.8294 47.08385,1.8294 Z M34.1249,-1.03028697e-13 C34.5039,-1.03028697e-13 34.7959,0.3075 34.7959,0.677 L34.7959,0.677 L34.7959,4.6705 C34.7959,6.3405 33.5154,7.3355 31.9144,7.3355 C30.3064,7.3355 29.0349,6.3405 29.0349,4.6705 L29.0349,4.6705 L29.0349,0.677 C29.0349,0.3075 29.3329,-1.03028697e-13 29.7149,-1.03028697e-13 C30.0989,-1.03028697e-13 30.4269,0.3075 30.4269,0.677 L30.4269,0.677 L30.4269,4.649 C30.4269,5.7325 31.1229,6.1615 31.9144,6.1615 C32.7224,6.1615 33.4004,5.7325 33.4004,4.649 L33.4004,4.649 L33.4004,0.677 C33.4004,0.3075 33.7299,-1.03028697e-13 34.1249,-1.03028697e-13 Z M69.3348,1.8294 C70.1168,1.8294 70.8513,2.2229 71.1708,2.9164 L71.1708,2.9164 L71.1708,2.2944 C71.1708,2.0554 71.3703,1.8619 71.5943,1.8619 C71.8428,1.8619 72.0248,2.0554 72.0248,2.2944 L72.0248,2.2944 L72.0248,6.8884 C72.0248,7.1139 71.8338,7.3209 71.5943,7.3209 C71.3703,7.3209 71.1708,7.1139 71.1708,6.8884 L71.1708,6.8884 L71.1708,6.1459 C70.9648,6.7734 70.2528,7.3354 69.3348,7.3354 C68.1903,7.3354 66.7968,6.4304 66.7968,4.5754 C66.7968,2.7399 68.1903,1.8294 69.3348,1.8294 Z M18.62195,1.82965 C19.35745,1.82965 19.94495,2.22265 20.14945,2.70915 L20.14945,2.70915 L20.14945,2.52865 C20.14945,2.17015 20.46295,1.86165 20.83195,1.86165 C21.19395,1.86165 21.52245,2.17015 21.52245,2.52865 L21.52245,2.52865 L21.52245,6.65065 C21.52245,7.02365 21.19395,7.32115 20.83195,7.32115 C20.46295,7.32115 20.14945,7.02365 20.14945,6.65065 L20.14945,6.65065 L20.14945,6.45315 C20.07095,6.77315 19.52145,7.33565 18.62195,7.33565 C17.48795,7.33565 16.12495,6.45315 16.12495,4.57515 C16.12495,2.74015 17.49495,1.82965 18.62195,1.82965 Z M2.54,1.8294 C3.3225,1.8294 4.0545,2.2229 4.3755,2.9164 L4.3755,2.9164 L4.3755,2.2944 C4.3755,2.0554 4.572,1.8619 4.799,1.8619 C5.0475,1.8619 5.232,2.0554 5.232,2.2944 L5.232,2.2944 L5.232,6.8884 C5.232,7.1139 5.033,7.3209 4.799,7.3209 C4.572,7.3209 4.3755,7.1139 4.3755,6.8884 L4.3755,6.8884 L4.3755,6.1459 C4.1685,6.7734 3.456,7.3354 2.54,7.3354 C1.39,7.3354 1.42108547e-14,6.4304 1.42108547e-14,4.5754 C1.42108547e-14,2.7399 1.39,1.8294 2.54,1.8294 Z M12.9628,0.0339 C14.5708,0.0339 15.6033,1.0764 15.6033,2.3774 C15.6033,3.7014 14.5708,4.6979 12.9628,4.6979 L12.9628,4.6979 L11.7023,4.6979 L11.7023,6.6319 C11.7023,7.0144 11.3938,7.3354 11.0098,7.3354 C10.6188,7.3354 10.3083,7.0144 10.3083,6.6319 L10.3083,6.6319 L10.3083,0.7964 C10.3083,0.3529 10.6278,0.0339 11.0733,0.0339 L11.0733,0.0339 Z M57.53505,1.8367 C58.51355,1.8367 59.54555,2.4262 59.54555,4.1402 L59.54555,4.1402 L59.54555,6.8812 C59.54555,7.1027 59.35905,7.3137 59.12555,7.3137 C58.88555,7.3137 58.68955,7.1027 58.68955,6.8812 L58.68955,6.8812 L58.68955,4.1402 C58.68955,3.0172 58.02005,2.5927 57.29705,2.5927 C56.24255,2.5927 55.70705,3.4812 55.61105,4.0707 L55.61105,4.0707 L55.61105,6.8812 C55.61105,7.1027 55.41705,7.3137 55.17855,7.3137 C54.93955,7.3137 54.75455,7.1027 54.75455,6.8812 L54.75455,6.8812 L54.75455,4.1402 C54.75455,3.0172 54.07355,2.5927 53.35055,2.5927 C52.29955,2.5927 51.76255,3.4812 51.67055,4.0707 L51.67055,4.0707 L51.67055,6.8812 C51.67055,7.1027 51.47555,7.3137 51.24505,7.3137 C51.00855,7.3137 50.81255,7.1027 50.81255,6.8812 L50.81255,6.8812 L50.81255,2.2942 C50.81255,2.0552 51.00855,1.8617 51.24505,1.8617 C51.47555,1.8617 51.67055,2.0552 51.67055,2.2942 L51.67055,2.2942 L51.67,3.13 L51.6860837,3.06762593 C51.7975611,2.70202099 52.3672442,1.93424321 53.4004006,1.84518148 L53.59955,1.8367 C54.36205,1.8367 55.16605,2.2012 55.48005,3.1812 C55.76655,2.5542 56.45155,1.8367 57.53505,1.8367 Z M76.05455,1.8367 C77.02605,1.8367 78.06805,2.4262 78.06805,4.1402 L78.06805,4.1402 L78.06805,6.8812 C78.06805,7.1027 77.87205,7.3137 77.63705,7.3137 C77.39755,7.3137 77.21355,7.1027 77.21355,6.8812 L77.21355,6.8812 L77.21355,4.1402 C77.21355,3.0172 76.52805,2.5927 75.80755,2.5927 C74.75605,2.5927 74.21705,3.4812 74.12355,4.0707 L74.12355,4.0707 L74.12355,6.8812 C74.12355,7.1027 73.92855,7.3137 73.70155,7.3137 C73.46505,7.3137 73.26705,7.1027 73.26705,6.8812 L73.26705,6.8812 L73.26705,2.2942 C73.26705,2.0552 73.46505,1.8617 73.70155,1.8617 C73.92855,1.8617 74.12355,2.0552 74.12355,2.2942 L74.12355,2.2942 L74.12355,3.1312 C74.18255,2.7812 74.82505,1.8367 76.05455,1.8367 Z M41.6532,1.82945 C42.3997,1.82945 43.0472,2.09595 43.5017,2.64745 C43.5842,2.74895 43.6982,2.86295 43.6982,3.02645 C43.6982,3.23445 43.5322,3.38045 43.3357,3.38045 C43.1827,3.38045 43.0582,3.28645 42.9737,3.18145 C42.6647,2.77095 42.1512,2.58495 41.6952,2.58495 C40.7772,2.58495 39.8182,3.24445 39.8182,4.57495 C39.8182,5.89845 40.7772,6.55845 41.6952,6.55845 C42.1512,6.55845 42.6647,6.37245 42.9737,5.96145 C43.0582,5.85295 43.1827,5.76295 43.3357,5.76295 C43.5322,5.76295 43.6982,5.90945 43.6982,6.11695 C43.6982,6.28095 43.5842,6.39045 43.5017,6.48795 C43.0472,7.03295 42.3997,7.31395 41.6532,7.31395 C40.4347,7.31395 38.9677,6.41245 38.9677,4.57495 C38.9677,2.73095 40.4347,1.82945 41.6532,1.82945 Z M63.38755,2.5704 C62.58155,2.5704 61.63305,3.1634 61.63305,4.5754 C61.63305,5.9614 62.58155,6.5784 63.38755,6.5784 C64.22555,6.5784 65.19205,5.9404 65.19205,4.5754 C65.19205,3.2264 64.22555,2.5704 63.38755,2.5704 Z M47.08385,2.5849 C46.22735,2.5849 45.24835,3.2554 45.24835,4.5864 C45.24835,5.9094 46.22735,6.5784 47.08385,6.5784 C47.95085,6.5784 48.92285,5.9094 48.92285,4.5864 C48.92285,3.2554 47.95085,2.5849 47.08385,2.5849 Z M2.661,2.5704 C1.828,2.5704 0.8525,3.2264 0.8525,4.5754 C0.8525,5.9404 1.828,6.5784 2.661,6.5784 C3.4665,6.5784 4.417,5.9614 4.417,4.5754 C4.417,3.1634 3.4665,2.5704 2.661,2.5704 Z M69.4608,2.5704 C68.6208,2.5704 67.6513,3.2264 67.6513,4.5754 C67.6513,5.9404 68.6208,6.5784 69.4608,6.5784 C70.2618,6.5784 71.2138,5.9614 71.2138,4.5754 C71.2138,3.1634 70.2618,2.5704 69.4608,2.5704 Z M18.87095,2.98665 C18.18945,2.98665 17.47845,3.52215 17.47845,4.57515 C17.47845,5.63915 18.18945,6.16165 18.87095,6.16165 C19.44895,6.16165 20.21395,5.74015 20.21395,4.57515 C20.21395,3.40915 19.44895,2.98665 18.87095,2.98665 Z M12.8993,1.2199 L11.7023,1.2199 L11.7023,3.5154 L12.8993,3.5154 C13.6768,3.5154 14.2518,3.2344 14.2518,2.3774 C14.2518,1.5299 13.6768,1.2199 12.8993,1.2199 L12.8993,1.2199 Z"></path>
                    </g>
                </g>
            </g>
        </g>
    </g>
</svg>